<?xml version="1.0" encoding="UTF-8"?>
<svg id="layout" xmlns="http://www.w3.org/2000/svg" viewBox="0 0 530 430">
  <g id="intro">
    <path id="kinetic" d="M332.69,244.25c0,.6,.08,1.18,.25,1.74s.42,1.05,.77,1.47c.34,.42,.77,.75,1.29,1,.52,.25,1.14,.38,1.86,.38,1,0,1.8-.21,2.42-.64s1.07-1.08,1.37-1.94h3.24c-.18,.84-.49,1.59-.93,2.25-.44,.66-.97,1.22-1.59,1.67-.62,.45-1.32,.79-2.08,1.02s-1.57,.34-2.42,.34c-1.22,0-2.3-.2-3.24-.6-.94-.4-1.74-.96-2.39-1.68-.65-.72-1.14-1.58-1.47-2.58-.33-1-.5-2.1-.5-3.3,0-1.1,.17-2.14,.53-3.13,.35-.99,.85-1.86,1.5-2.61,.65-.75,1.43-1.34,2.35-1.78,.92-.44,1.96-.66,3.12-.66,1.22,0,2.31,.25,3.29,.76,.97,.51,1.77,1.18,2.42,2.03,.64,.84,1.1,1.8,1.39,2.89,.29,1.09,.37,2.22,.23,3.38h-11.4Zm7.98-2.25c-.04-.54-.16-1.06-.34-1.56-.19-.5-.45-.93-.78-1.31-.33-.37-.73-.67-1.2-.9s-1-.35-1.58-.35-1.14,.11-1.63,.32-.91,.5-1.26,.87c-.35,.37-.63,.81-.84,1.3-.21,.5-.33,1.04-.35,1.62h7.98Zm10.2,.96l-5.37-7.35h4.14l3.24,4.77,3.39-4.77h3.96l-5.28,7.17,5.94,8.34h-4.11l-3.93-5.73-3.81,5.73h-4.02l5.85-8.16Zm12.03-7.35h3.24v2.1h.06c.48-.9,1.15-1.54,2.01-1.93,.86-.39,1.79-.58,2.79-.58,1.22,0,2.28,.21,3.19,.64,.91,.43,1.67,1.02,2.27,1.77,.6,.75,1.05,1.62,1.35,2.62s.45,2.07,.45,3.21c0,1.04-.13,2.05-.41,3.03-.27,.98-.68,1.85-1.23,2.6-.55,.75-1.25,1.35-2.08,1.8s-1.83,.67-2.97,.67c-.5,0-1-.04-1.5-.13s-.98-.24-1.44-.44c-.46-.2-.88-.45-1.28-.76-.39-.31-.71-.67-.97-1.09h-.06v7.74h-3.42v-21.24Zm11.94,7.77c0-.7-.09-1.38-.27-2.04-.18-.66-.45-1.25-.81-1.75s-.81-.92-1.35-1.23c-.54-.31-1.16-.47-1.86-.47-1.44,0-2.53,.5-3.25,1.5-.73,1-1.09,2.33-1.09,3.99,0,.78,.09,1.51,.28,2.17,.19,.67,.48,1.25,.86,1.73,.38,.48,.83,.86,1.37,1.14,.53,.28,1.14,.42,1.84,.42,.78,0,1.44-.16,1.98-.48,.54-.32,.99-.74,1.34-1.25,.35-.51,.6-1.09,.75-1.74,.15-.65,.22-1.31,.22-2Zm8.97,.87c0,.6,.08,1.18,.25,1.74s.42,1.05,.77,1.47c.34,.42,.77,.75,1.29,1,.52,.25,1.14,.38,1.86,.38,1,0,1.8-.21,2.42-.64s1.07-1.08,1.37-1.94h3.24c-.18,.84-.49,1.59-.93,2.25-.44,.66-.97,1.22-1.59,1.67-.62,.45-1.32,.79-2.08,1.02s-1.57,.34-2.42,.34c-1.22,0-2.3-.2-3.24-.6-.94-.4-1.74-.96-2.39-1.68-.65-.72-1.14-1.58-1.47-2.58-.33-1-.5-2.1-.5-3.3,0-1.1,.17-2.14,.53-3.13,.35-.99,.85-1.86,1.5-2.61,.65-.75,1.43-1.34,2.35-1.78,.92-.44,1.96-.66,3.12-.66,1.22,0,2.31,.25,3.29,.76,.97,.51,1.77,1.18,2.42,2.03,.64,.84,1.1,1.8,1.39,2.89,.29,1.09,.37,2.22,.23,3.38h-11.4Zm7.98-2.25c-.04-.54-.16-1.06-.34-1.56-.19-.5-.45-.93-.78-1.31-.33-.37-.73-.67-1.2-.9s-1-.35-1.58-.35-1.14,.11-1.63,.32-.91,.5-1.26,.87c-.35,.37-.63,.81-.84,1.3-.21,.5-.33,1.04-.35,1.62h7.98Zm6.03-6.39h3.21v3h.06c.1-.42,.29-.83,.58-1.23,.29-.4,.64-.76,1.05-1.09,.41-.33,.87-.59,1.37-.79,.5-.2,1.01-.3,1.53-.3,.4,0,.68,0,.83,.03,.15,.02,.3,.04,.46,.06v3.3c-.24-.04-.48-.08-.73-.1-.25-.03-.5-.05-.74-.05-.58,0-1.12,.12-1.63,.35s-.96,.57-1.33,1.02-.68,1-.9,1.67-.33,1.42-.33,2.28v7.38h-3.42v-15.51Zm10.65-5.91h3.42v3.24h-3.42v-3.24Zm0,5.91h3.42v15.51h-3.42v-15.51Zm7.14,0h3.24v2.16h.09c.26-.38,.54-.73,.84-1.05,.3-.32,.63-.59,1-.81,.37-.22,.79-.39,1.28-.53,.48-.13,1.03-.19,1.65-.19,.94,0,1.81,.21,2.62,.63,.81,.42,1.38,1.07,1.72,1.95,.58-.8,1.25-1.43,2.01-1.89,.76-.46,1.71-.69,2.85-.69,1.64,0,2.91,.4,3.82,1.2,.91,.8,1.37,2.14,1.37,4.02v10.71h-3.42v-9.06c0-.62-.02-1.19-.06-1.7-.04-.51-.16-.95-.35-1.32-.19-.37-.47-.65-.85-.85s-.9-.3-1.56-.3c-1.16,0-2,.36-2.52,1.08-.52,.72-.78,1.74-.78,3.06v9.09h-3.42v-9.96c0-1.08-.2-1.89-.58-2.45-.39-.55-1.11-.83-2.14-.83-.44,0-.87,.09-1.28,.27s-.77,.44-1.08,.78c-.31,.34-.56,.76-.75,1.26s-.29,1.07-.29,1.71v9.21h-3.42v-15.51Zm28.77,8.64c0,.6,.08,1.18,.25,1.74s.42,1.05,.77,1.47c.34,.42,.77,.75,1.29,1,.52,.25,1.14,.38,1.86,.38,1,0,1.8-.21,2.42-.64s1.07-1.08,1.37-1.94h3.24c-.18,.84-.49,1.59-.93,2.25-.44,.66-.97,1.22-1.59,1.67-.62,.45-1.32,.79-2.08,1.02s-1.57,.34-2.42,.34c-1.22,0-2.3-.2-3.24-.6-.94-.4-1.74-.96-2.39-1.68-.65-.72-1.14-1.58-1.47-2.58-.33-1-.5-2.1-.5-3.3,0-1.1,.17-2.14,.53-3.13,.35-.99,.85-1.86,1.5-2.61,.65-.75,1.43-1.34,2.35-1.78,.92-.44,1.96-.66,3.12-.66,1.22,0,2.31,.25,3.29,.76,.97,.51,1.77,1.18,2.42,2.03,.64,.84,1.1,1.8,1.39,2.89,.29,1.09,.37,2.22,.23,3.38h-11.4Zm7.98-2.25c-.04-.54-.16-1.06-.34-1.56-.19-.5-.45-.93-.78-1.31-.33-.37-.73-.67-1.2-.9s-1-.35-1.58-.35-1.14,.11-1.63,.32-.91,.5-1.26,.87c-.35,.37-.63,.81-.84,1.3-.21,.5-.33,1.04-.35,1.62h7.98Zm6.03-6.39h3.24v2.28l.06,.06c.52-.86,1.2-1.54,2.04-2.03,.84-.49,1.77-.73,2.79-.73,1.7,0,3.04,.44,4.02,1.32,.98,.88,1.47,2.2,1.47,3.96v10.65h-3.42v-9.75c-.04-1.22-.3-2.1-.78-2.66-.48-.55-1.23-.83-2.25-.83-.58,0-1.1,.11-1.56,.32-.46,.21-.85,.5-1.17,.87-.32,.37-.57,.81-.75,1.3-.18,.5-.27,1.03-.27,1.59v9.15h-3.42v-15.51Zm15.66,0h2.58v-4.65h3.42v4.65h3.09v2.55h-3.09v8.28c0,.36,.01,.67,.04,.93s.1,.48,.21,.66c.11,.18,.27,.31,.5,.41,.22,.09,.52,.13,.9,.13,.24,0,.48,0,.72-.02,.24,0,.48-.04,.72-.1v2.64c-.38,.04-.75,.08-1.11,.12-.36,.04-.73,.06-1.11,.06-.9,0-1.63-.09-2.18-.26-.55-.17-.98-.42-1.29-.75-.31-.33-.52-.74-.63-1.24-.11-.5-.17-1.07-.19-1.71v-9.15h-2.58v-2.55Zm-223.97-19.9v-2.56h18.27v2.56h-7.62v20.29h-3.04v-20.29h-7.62Zm30.24,20.29h-3.04v-9.34l-8.83-13.5h3.62l6.85,10.88,6.69-10.88h3.46l-8.74,13.5v9.34Zm21.31-22.85c2.3,0,4.05,.59,5.23,1.78,1.18,1.18,1.78,2.84,1.78,4.98s-.59,3.8-1.78,4.99c-1.18,1.19-2.93,1.78-5.23,1.76h-6.98v9.34h-3.04v-22.85h10.02Zm-1.03,10.94c1.73,.02,2.99-.33,3.79-1.06,.8-.72,1.2-1.77,1.2-3.14s-.4-2.41-1.2-3.12c-.8-.71-2.06-1.07-3.79-1.07h-5.95v8.38h5.95Zm27.52-10.94v2.56h-12.74v7.26h11.87v2.56h-11.87v7.9h12.83v2.56h-15.87v-22.85h15.78Zm-140.24-26.62h1.22v15.14l10.14-8.74h1.76l-7.2,6.14,7.71,10.3h-1.66l-7.01-9.38-3.74,3.17v6.21h-1.22v-22.85Zm15.04,3.3v-3.3h1.22v3.3h-1.22Zm0,19.55v-16.45h1.22v16.45h-1.22Zm5.09-16.45h1.22v3.52h.06c.21-.62,.52-1.17,.91-1.65,.39-.48,.85-.89,1.38-1.23,.52-.34,1.09-.6,1.71-.77,.62-.17,1.25-.26,1.89-.26,.96,0,1.78,.12,2.45,.35,.67,.24,1.22,.54,1.65,.93,.43,.38,.76,.82,1.01,1.3,.25,.48,.42,.97,.53,1.46,.11,.49,.17,.96,.19,1.42,.02,.46,.03,.86,.03,1.2v10.18h-1.22v-10.4c0-.4-.03-.92-.1-1.54-.06-.62-.25-1.21-.56-1.78-.31-.57-.78-1.05-1.41-1.46-.63-.41-1.5-.61-2.61-.61-.94,0-1.77,.17-2.5,.51-.73,.34-1.34,.82-1.86,1.42-.51,.61-.9,1.33-1.17,2.18-.27,.84-.4,1.77-.4,2.77v8.9h-1.22v-16.45Zm17.06,8.38v.19c0,.96,.13,1.88,.38,2.75,.26,.88,.64,1.64,1.14,2.3,.5,.66,1.13,1.18,1.89,1.57,.76,.38,1.64,.58,2.65,.58,1.65,0,2.95-.43,3.91-1.3,.96-.86,1.63-2.06,1.99-3.6h1.22c-.36,1.92-1.15,3.39-2.35,4.42-1.21,1.02-2.8,1.54-4.78,1.54-1.22,0-2.28-.22-3.18-.66-.91-.44-1.66-1.03-2.27-1.79-.61-.76-1.06-1.65-1.36-2.69-.3-1.03-.45-2.15-.45-3.34s.15-2.26,.46-3.31c.31-1.06,.77-1.98,1.39-2.78,.62-.8,1.39-1.44,2.32-1.92,.93-.48,2.02-.72,3.28-.72,1.15,0,2.17,.21,3.06,.64,.88,.43,1.63,1.01,2.22,1.74,.6,.74,1.05,1.59,1.36,2.56,.31,.97,.46,2.01,.46,3.12,0,.11,0,.23-.02,.37-.01,.14-.02,.25-.02,.34h-13.31Zm12.1-1.06c-.04-.9-.19-1.74-.45-2.54-.26-.8-.64-1.5-1.14-2.11-.5-.61-1.11-1.09-1.83-1.46-.72-.36-1.54-.54-2.45-.54-.98,0-1.85,.19-2.6,.56-.75,.37-1.38,.86-1.89,1.47-.51,.61-.91,1.32-1.19,2.13-.28,.81-.45,1.64-.51,2.5h12.06Zm10.11-6.27h-3.58v11.49c0,.66,.07,1.18,.22,1.57,.15,.38,.38,.68,.69,.88,.31,.2,.68,.33,1.12,.37,.44,.04,.94,.05,1.52,.03v1.06c-.62,.04-1.22,.04-1.81-.02-.59-.05-1.1-.21-1.55-.48-.45-.27-.81-.67-1.07-1.2-.27-.53-.38-1.27-.34-2.21v-11.49h-3.04v-1.06h3.04v-5.12h1.22v5.12h3.58v1.06Zm2.53-4.16v-3.3h1.22v3.3h-1.22Zm0,19.55v-16.45h1.22v16.45h-1.22Zm17.47-11.36c-.06-.72-.25-1.36-.56-1.92-.31-.55-.71-1.01-1.2-1.38-.49-.36-1.06-.64-1.71-.83-.65-.19-1.35-.29-2.1-.29-1.02,0-1.93,.21-2.72,.62-.79,.42-1.45,.97-1.98,1.66-.53,.69-.94,1.48-1.22,2.37-.28,.89-.42,1.8-.42,2.74,0,1.11,.13,2.13,.38,3.07,.26,.94,.65,1.75,1.18,2.45,.53,.69,1.19,1.23,1.98,1.62,.79,.38,1.72,.58,2.78,.58,.77,0,1.48-.13,2.13-.38s1.23-.61,1.73-1.06c.5-.45,.91-.99,1.23-1.62,.32-.63,.53-1.32,.64-2.06h1.22c-.13,.98-.39,1.86-.8,2.62s-.92,1.41-1.54,1.94c-.62,.52-1.32,.92-2.11,1.2-.79,.28-1.62,.42-2.5,.42-1.34,0-2.49-.24-3.44-.72-.95-.48-1.73-1.12-2.34-1.94-.61-.81-1.06-1.74-1.34-2.8-.29-1.06-.43-2.16-.43-3.31s.17-2.24,.5-3.26c.33-1.02,.82-1.92,1.46-2.69,.64-.77,1.43-1.38,2.37-1.82,.94-.45,2.02-.67,3.23-.67,.9,0,1.73,.11,2.51,.34,.78,.22,1.47,.56,2.08,1.01,.61,.45,1.1,1.02,1.49,1.71,.38,.69,.62,1.5,.7,2.42h-1.22Z" style="fill: #171400;"/>
    <path id="waiting" d="M77.02,140.98h-1.98c-.9,0-2.58-.12-3.96-2.58-3-5.34-6.3-14.04-8.22-22.8-1.98,8.94-5.34,18.3-9.6,25.38h-1.92c-.9,0-2.76-.12-4.14-2.58-6.06-10.74-10.74-25.62-12.42-38.88h4.74c2.88,0,4.56,2.52,4.92,4.68,1.14,7.02,2.94,14.64,6.78,23.82,3.72-8.82,6.72-21.06,7.86-26.94h2.7c2.7,0,5.58,1.2,6.42,5.46,1.38,6.9,3.48,13.8,6.78,21.48,3.42-8.34,6.36-18.66,7.68-28.44h4.26c1.92,0,3.6,1.38,3.6,3.84,0,2.22-2.88,12.06-4.26,16.38-2.04,6.42-4.56,13.08-9.24,21.18Zm30.54,.18h-1.62c-7.68,0-12.96-4.32-12.96-10.26s4.2-10.14,16.08-10.14h2.82v-.42c0-4.56-2.16-5.94-6.96-5.94-5.82,0-9.06,2.22-10.26,3.72h-.3v-2.58c0-3.6,3.24-7.92,11.76-7.92,7.2,0,13.68,3.36,13.68,14.52v7.44c0,6.84-5.04,11.58-12.24,11.58Zm4.38-14.64h-2.88c-6.12,0-7.86,1.44-7.86,4.08s2.04,4.02,5.58,4.02,5.16-1.68,5.16-4.98v-3.12Zm19.2-20.58c-2.58,0-4.68-2.16-4.68-4.74s2.1-4.68,4.68-4.68,4.74,2.1,4.74,4.68-2.16,4.74-4.74,4.74Zm5.7,34.98c-6.24,0-9.66-3.54-9.66-10.08v-21.9h2.28c3.6,0,5.76,1.92,5.76,6v15.12c0,3.24,1.38,4.26,4.92,4.26h1.5v1.74c0,3.48-1.38,4.86-4.8,4.86Zm11.94-37.8c1.08-1.26,2.52-2.22,3.78-2.22h1.86v7.32h11.22v3.3c0,1.68-1.5,3.84-4.8,3.84h-6.42v12.66c0,4.2,1.86,5.82,5.1,5.82,2.58,0,4.56-.36,5.82-1.14h.3v2.88c0,3.3-2.4,5.4-7.08,5.4-8.16,0-12.12-4.44-12.12-12v-19.44c0-3.18,.6-4.38,2.34-6.42Zm26.64,2.82c-2.58,0-4.68-2.16-4.68-4.74s2.1-4.68,4.68-4.68,4.74,2.1,4.74,4.68-2.16,4.74-4.74,4.74Zm5.7,34.98c-6.24,0-9.66-3.54-9.66-10.08v-21.9h2.28c3.6,0,5.76,1.92,5.76,6v15.12c0,3.24,1.38,4.26,4.92,4.26h1.5v1.74c0,3.48-1.38,4.86-4.8,4.86Zm35.64-.3c-3.6,0-5.88-2.28-5.88-5.28v-12.84c0-5.46-2.4-7.86-6.54-7.86-3.48,0-5.88,2.64-5.88,7.26v18.72h-2.4c-3.42,0-5.64-2.28-5.64-5.28v-13.98c0-6.84,4.5-13.86,14.58-13.86,7.62,0,13.92,5.1,13.92,14.28v18.84h-2.16Zm38.4-9.06c.06,1.32,.12,3.06,.12,4.14,0,8.1-5.4,15.36-15.84,15.36-6.66,0-11.22-3.24-11.22-7.08v-3.66h.36c1.92,2.04,5.64,3.48,10.26,3.48,5.52,0,8.34-2.52,8.34-6.78v-4.74c-.66,2.34-3.72,4.8-8.34,4.8-7.86,0-13.44-5.46-13.44-13.08,0-9.12,6-16.5,16.44-16.5,8.04,0,13.2,5.88,13.2,14.16v5.52c0,1.08,.06,2.94,.12,4.38Zm-21.48-8.58c0,4.2,2.58,7.32,6.42,7.32s6.9-3,6.9-8.16-2.52-7.5-6.06-7.5c-4.14,0-7.26,3.48-7.26,8.34Zm61.26-18.36c-1.26-.42-2.7-.72-4.68-.72-3.3,0-5.76,1.14-5.76,5.46v2.88h9.24v2.22c0,2.88-3.06,4.56-5.76,4.56h-3.48v21.6h-3.24c-2.58,0-4.86-1.98-4.86-4.8v-27.12c0-4.56,3.18-11.88,12.6-11.88,3.48,0,6.18,1.92,6.18,5.1v2.7h-.24Zm17.46,2.88c9.72,0,15.3,7.8,15.3,16.38,0,9.72-5.58,17.46-16.02,17.46-9.72,0-15.3-7.74-15.3-16.32,0-9.72,5.58-17.52,16.02-17.52Zm-.72,7.2c-4.62,0-6.96,3.84-6.96,9.18,0,6.42,2.34,10.26,7.68,10.26,4.68,0,6.96-3.84,6.96-9.12,0-6.48-2.4-10.32-7.68-10.32Zm40.68,1.38c-1.2-.48-2.58-.96-4.68-.96-3.6,0-5.58,1.98-5.58,6.9v18.6h-2.22c-3.6,0-5.88-1.8-5.88-5.16v-14.88c0-6.48,3.42-12.66,11.94-12.66,4.98,0,6.72,2.82,6.72,5.28v2.88h-.3Zm28.68,24.84c-6.66,0-10.26-3.54-10.26-10.08v-33.42h2.28c4.02,0,5.76,2.34,5.76,5.4v27.24c0,3.24,1.68,4.26,5.46,4.26h2.16v1.74c0,3.48-1.86,4.86-5.4,4.86Zm23.52-33.42c9.72,0,15.3,7.8,15.3,16.38,0,9.72-5.58,17.46-16.02,17.46-9.72,0-15.3-7.74-15.3-16.32,0-9.72,5.58-17.52,16.02-17.52Zm-.72,7.2c-4.62,0-6.96,3.84-6.96,9.18,0,6.42,2.34,10.26,7.68,10.26,4.68,0,6.96-3.84,6.96-9.12,0-6.48-2.4-10.32-7.68-10.32Zm45.78,7.62c-2.16,5.94-5.76,13.74-9.36,18.66h-1.56c-2.4,0-3.66-.84-5.28-3.24-4.38-6.66-9.9-20.76-10.62-29.52h4.32c2.76,0,4.5,2.1,4.8,3.84,1.14,6,2.76,12.24,6.18,18.9,3.06-6.06,5.88-14.64,7.08-22.74h3.42c2.76,0,3.78,1.2,3.78,3.84,0,.96-.78,4.86-2.76,10.26Zm19.68,5.58h-5.28c.6,4.08,4.32,6.66,9.06,6.66,3.36,0,7.32-.66,9.9-3.06h.3v2.52c0,4.14-2.82,7.32-11.7,7.32-8.04,0-15.9-6.36-15.9-16.26,0-10.8,6.6-17.58,15.84-17.58,6.72,0,12.96,4.8,12.96,12.54,0,5.94-4.5,7.86-15.18,7.86Zm1.5-13.68c-3.9,0-6.6,3.18-6.78,6.9l-.06,1.08h3.6c7.62,0,9.36-.84,9.36-3.12,0-3.24-2.4-4.86-6.12-4.86Z" style="fill: #007371;"/>
  </g>
  <g id="first-twenty">
    <path id="defeated" d="M448.92,387.86c.48-.11,.94-.14,1.37-.1,.43,.04,.83,.14,1.2,.31l-.25-.91c-.06-.21-.1-.37-.14-.49s-.07-.21-.1-.26c-.08-.14-.15-.23-.23-.26-.05,.02-.12,.05-.21,.07-.09,.03-.16,.05-.21,.06h.04c-.07,.03-.15,.06-.23,.09s-.15,.04-.21,.06c-.66,.15-1.05-.03-1.19-.54-.14-.52,.19-.86,1-1.05,.03,0,.07-.02,.13-.03,.06-.01,.13-.02,.19-.03,.04,0,.08-.01,.12-.02s.08,0,.12-.02l.58-.08s.08-.02,.16-.04c.08-.02,.16-.05,.25-.08,.1-.03,.19-.06,.27-.09,.08-.02,.16-.04,.24-.06,.54-.12,.89,.12,1.06,.71l.07,.26s.02,.13,.07,.35c.02,.06,.03,.12,.04,.2,.01,.08,.03,.15,.05,.23,.03,.09,.12,.52,.29,1.29,.02,.06,.03,.12,.04,.19,.01,.07,.02,.13,.04,.17,.04,.19,.07,.35,.11,.49s.07,.27,.1,.37l.43,1.6,.78,2.71c.11,.36,.2,.65,.27,.85,.07,.2,.12,.34,.17,.4,.02,.07,.07,.09,.16,.07,.06-.01,.12-.03,.16-.04,.04-.02,.09-.03,.14-.06,.04,0,.07-.02,.11-.03,.04-.01,.07-.02,.09-.03,.02-.02,.06-.03,.12-.05,.06-.01,.1-.02,.12-.03,.64-.14,1.03,.04,1.17,.54,.14,.53-.16,.88-.9,1.04-.06,.01-.15,.03-.26,.05-.11,.02-.21,.03-.32,.04-.05,.01-.11,.02-.16,.03-.06,0-.12,.01-.19,.01-.07,0-.14,.01-.21,.03-.01,0-.02,0-.04,.02-.01,0-.03,.02-.05,.02-.02,0-.06,.01-.09,.02s-.09,.03-.15,.05h.04c-.14,.06-.29,.11-.44,.15-.4,.09-.7-.03-.9-.36-.5,.63-1.26,1.07-2.28,1.3-1.34,.3-2.51,.11-3.51-.58-1.02-.66-1.72-1.67-2.09-3.04-.18-.67-.24-1.3-.19-1.91s.21-1.16,.47-1.64c.55-1.02,1.48-1.68,2.79-1.98Zm3.87,5.45c-.02-.19-.06-.4-.11-.62-.05-.23-.11-.48-.18-.75-.1-.36-.19-.65-.27-.88-.08-.23-.15-.41-.21-.53-.24-.5-.57-.84-.98-1-.54-.22-1.07-.27-1.59-.15-.74,.17-1.25,.56-1.52,1.19-.27,.63-.28,1.41-.03,2.33,.27,.98,.69,1.69,1.27,2.13s1.25,.59,2.01,.42c.57-.13,1-.38,1.29-.77,.29-.39,.4-.84,.32-1.36Zm12.93-5.13c.07,.26,.12,.47,.15,.62,.03,.15,.02,.28-.02,.37-.04,.09-.12,.16-.23,.21-.12,.04-.28,.09-.49,.14l-5.69,1.28c-.05,.01-.07,.02-.07,.03,.21,.77,.63,1.34,1.25,1.71,.6,.39,1.25,.5,1.96,.34,.47-.1,.86-.31,1.17-.63,.32-.31,.48-.66,.5-1.04l.04-.5c.03-.19,.1-.35,.22-.49s.28-.23,.5-.28c.66-.15,1.06,.07,1.22,.64,.21,.78-.04,1.57-.76,2.36-.69,.76-1.56,1.26-2.62,1.5-1.36,.31-2.55,.14-3.57-.5-1-.64-1.69-1.63-2.05-2.97-.37-1.35-.26-2.57,.33-3.65,.6-1.07,1.59-1.76,2.95-2.07,.63-.14,1.22-.18,1.76-.1,.54,.07,1.06,.24,1.54,.51,.98,.57,1.63,1.41,1.92,2.51Zm-2.17,.05c-.14-.52-.47-.92-.99-1.2-.54-.28-1.09-.36-1.63-.24-.56,.12-1.04,.45-1.46,.99-.37,.51-.49,.99-.37,1.45l4.45-1Zm7.39-6.35c-.03-.13-.04-.25,0-.38-.14-.03-.32-.02-.53,.03-.4,.09-.69,.3-.87,.62-.17,.32-.2,.71-.07,1.17l.07,.28,1.32-.3c.6-.14,.98,.07,1.13,.61,.15,.54-.08,.88-.69,1.01l-1.32,.3,1.44,5.3c.06,.16,.13,.23,.24,.2-.01,0,.01,0,.08-.04,.07-.03,.16-.07,.28-.12,.05-.01,.09-.03,.13-.05,.06-.03,.12-.04,.17-.06s.09-.02,.11-.03c.62-.14,.99,.04,1.13,.55,.15,.54-.13,.89-.82,1.04-.11,.03-.25,.05-.42,.08s-.35,.05-.56,.07c-.22,.03-.4,.05-.54,.07-.14,.02-.26,.04-.36,.06-.34,.08-.65,.16-.91,.26-.23,.08-.42,.14-.57,.19-.15,.05-.26,.09-.33,.1-.72,.16-1.15-.03-1.3-.57-.05-.2,0-.39,.13-.59,.14-.2,.34-.32,.59-.38,.1-.02,.19-.04,.26-.04,.07,0,.15,0,.23,0,.07,0,.14,0,.2,0,.06-.01,.11-.02,.15-.03,.06-.01,.08-.09,.06-.23-.02-.26-.15-.89-.39-1.87-.15-.57-.31-1.14-.45-1.71-.15-.56-.3-1.14-.46-1.72-.01-.05-.03-.07-.04-.06l-.89,.2c-.62,.14-1-.07-1.15-.62-.14-.53,.1-.86,.73-1l.95-.21-.07-.28c-.25-.93-.17-1.71,.24-2.33,.41-.62,1.13-1.05,2.15-1.28,.85-.19,1.57-.18,2.16,.03,.6,.21,.97,.57,1.11,1.1,.08,.3,.04,.57-.13,.81-.17,.24-.42,.4-.76,.48-.33,.07-.63,.05-.89-.08-.27-.13-.44-.32-.51-.59Zm10.83,2.7c.07,.26,.12,.47,.15,.62,.03,.15,.02,.27-.02,.37-.04,.09-.12,.16-.24,.21-.12,.05-.28,.09-.49,.14l-5.69,1.28c-.05,.01-.07,.02-.07,.03,.21,.77,.62,1.34,1.25,1.71,.6,.39,1.25,.5,1.96,.34,.47-.11,.86-.31,1.17-.63,.32-.31,.48-.66,.5-1.04l.04-.5c.03-.19,.1-.35,.22-.49,.12-.14,.28-.23,.5-.28,.66-.15,1.06,.07,1.22,.64,.21,.78-.04,1.57-.76,2.36-.69,.76-1.56,1.26-2.62,1.5-1.36,.31-2.55,.14-3.57-.49-1-.64-1.69-1.63-2.05-2.97-.37-1.35-.26-2.57,.33-3.65,.6-1.07,1.59-1.76,2.95-2.07,.63-.14,1.22-.18,1.76-.1,.54,.07,1.06,.24,1.54,.51,.98,.57,1.63,1.41,1.93,2.51Zm-2.17,.05c-.14-.52-.47-.92-.99-1.2-.54-.28-1.09-.36-1.63-.24-.55,.12-1.04,.45-1.46,.98-.37,.51-.49,.99-.37,1.45l4.45-1Zm12.86,3.1c-.93,.21-1.64,.06-2.12-.44-.5,.77-1.34,1.29-2.53,1.55-1.07,.24-1.99,.19-2.75-.14s-1.25-.9-1.46-1.69c-.13-.48-.12-.94,.04-1.37,.16-.43,.43-.81,.8-1.14,.29-.25,.56-.43,.8-.54,.22-.11,.69-.29,1.4-.53,.93-.31,1.51-.57,1.74-.77,.18-.19,.21-.47,.11-.85-.1-.37-.32-.63-.66-.78-.34-.15-.77-.17-1.29-.06-.49,.11-.91,.34-1.24,.68v-.02c-.07,.1-.1,.16-.1,.17h.02c.32,.14,.52,.36,.6,.65,.08,.29,.03,.55-.16,.78-.18,.24-.45,.39-.8,.47-.4,.09-.77,.05-1.1-.13-.33-.17-.54-.44-.64-.8-.19-.69,.03-1.35,.64-1.99,.58-.63,1.38-1.06,2.4-1.29,2.38-.54,3.85,.22,4.41,2.28l.89,3.29c.06,.23,.12,.42,.16,.57,.05,.15,.09,.26,.12,.31,.13,.24,.27,.34,.4,.31,.21-.05,.25-.34,.1-.88l-.22-.81c-.13-.49,.08-.8,.65-.93,.6-.14,1,.13,1.18,.79l.02,.09,.23,.93c.3,1.2-.25,1.96-1.65,2.27Zm-3.39-3.6c-.07,.04-.13,.08-.2,.13-.06,.04-.13,.09-.21,.13-.31,.18-.83,.38-1.54,.6-1.16,.37-1.65,.89-1.46,1.55,.09,.33,.3,.57,.62,.71,.32,.14,.73,.16,1.21,.05,.72-.16,1.23-.46,1.53-.91s.37-.98,.22-1.6l-.16-.66Zm9.94-1.83c-.14-.6,.1-.97,.72-1.11,.62-.14,1.02,.12,1.19,.77,.17,.62,.26,1.16,.28,1.61,.01,.45-.03,.83-.13,1.14-.32,.8-1.05,1.33-2.2,1.59-.53,.12-1.01,.14-1.44,.07s-.8-.23-1.1-.48c-.47-.39-.84-1.08-1.1-2.07l-1.06-3.91c-.02-.08-.04-.12-.07-.11l-.57,.13c-.28,.06-.53,.04-.75-.08s-.37-.29-.43-.51c-.06-.21-.01-.41,.12-.62,.14-.21,.33-.34,.57-.39l.7-.16-.48-1.76c-.16-.57,.1-.93,.77-1.09,.63-.14,1.02,.07,1.18,.65l.47,1.74s.01,.02,.02,.01l1.95-.44c.66-.15,1.05,.04,1.2,.57,.15,.55-.12,.9-.8,1.06l-1.99,.45s.07,.05,.09,.11l1.09,4.01c.27,.99,.71,1.41,1.33,1.27,.67-.15,.9-.61,.69-1.38l-.25-1.06Zm10.98-4.06c.07,.26,.12,.47,.15,.62,.03,.15,.02,.28-.02,.37-.04,.09-.12,.16-.23,.21-.12,.04-.28,.09-.49,.14l-5.69,1.28c-.05,.01-.07,.02-.07,.03,.21,.77,.63,1.34,1.25,1.71,.6,.39,1.25,.5,1.96,.34,.47-.1,.86-.31,1.17-.63,.32-.31,.48-.66,.5-1.04l.04-.5c.03-.19,.1-.35,.22-.49s.28-.23,.5-.28c.66-.15,1.06,.07,1.22,.64,.21,.78-.04,1.57-.76,2.36-.69,.76-1.56,1.26-2.62,1.5-1.36,.31-2.55,.14-3.57-.5-1-.64-1.69-1.63-2.05-2.97-.37-1.35-.26-2.57,.33-3.65,.6-1.07,1.59-1.76,2.95-2.07,.63-.14,1.22-.18,1.76-.1,.54,.07,1.06,.24,1.54,.51,.99,.57,1.63,1.41,1.93,2.51Zm-2.17,.05c-.14-.52-.47-.92-.99-1.2-.54-.28-1.09-.36-1.63-.24-.56,.12-1.04,.45-1.46,.99-.37,.51-.49,.99-.37,1.45l4.45-1Zm6.71-5.16c.48-.11,.93-.14,1.37-.1,.43,.04,.83,.15,1.2,.31l-.25-.91c-.06-.21-.1-.37-.14-.49-.04-.12-.07-.21-.1-.26-.08-.14-.15-.23-.23-.26-.05,.02-.12,.05-.21,.07-.09,.03-.16,.05-.21,.06h.04c-.07,.03-.14,.06-.22,.09-.08,.02-.15,.04-.21,.06-.66,.15-1.05-.03-1.19-.54-.14-.52,.19-.86,1-1.05l.13-.03c.06-.01,.13-.02,.19-.03,.04,0,.08-.01,.12-.02,.04,0,.08,0,.12-.02l.58-.08s.08-.02,.16-.04c.08-.02,.16-.05,.25-.08,.1-.03,.19-.06,.27-.09,.08-.02,.16-.04,.23-.06,.54-.12,.89,.11,1.06,.71l.07,.26s.01,.13,.07,.35c.01,.06,.03,.12,.04,.2,.01,.08,.03,.15,.05,.23,.02,.09,.12,.52,.29,1.29,.01,.06,.03,.12,.04,.19,.01,.07,.02,.13,.04,.17,.04,.19,.08,.35,.12,.49s.07,.27,.1,.37l.43,1.6,.77,2.71c.11,.36,.2,.65,.27,.85,.07,.2,.13,.34,.17,.4,.02,.07,.07,.09,.16,.07,.06-.01,.12-.03,.16-.04,.04-.02,.09-.04,.13-.06,.04,0,.07-.02,.11-.03,.04-.01,.07-.02,.09-.03,.02-.02,.06-.03,.12-.05,.06-.01,.1-.02,.12-.03,.64-.14,1.03,.04,1.17,.54,.14,.53-.16,.88-.9,1.04-.06,.01-.15,.03-.26,.05s-.22,.03-.32,.04c-.05,.01-.1,.02-.16,.03-.06,0-.12,.01-.19,.01-.07,0-.14,.01-.21,.03-.01,0-.02,0-.04,.02s-.03,.02-.05,.02c-.03,0-.06,.01-.1,.02-.04,0-.09,.02-.15,.05h.04c-.14,.06-.29,.11-.44,.15-.4,.09-.7-.03-.9-.36-.5,.63-1.26,1.07-2.28,1.3-1.34,.3-2.51,.11-3.51-.58-1.02-.66-1.72-1.67-2.09-3.04-.18-.67-.24-1.3-.19-1.91,.06-.61,.21-1.15,.47-1.64,.55-1.03,1.48-1.68,2.79-1.98Zm3.87,5.45c-.02-.19-.06-.4-.11-.62-.05-.23-.11-.48-.18-.75-.1-.36-.19-.65-.27-.88-.08-.23-.15-.41-.21-.53-.24-.5-.57-.84-.98-1-.54-.22-1.07-.27-1.59-.15-.74,.17-1.25,.56-1.52,1.19s-.28,1.41-.03,2.33c.27,.97,.69,1.69,1.27,2.13,.58,.45,1.25,.59,2.01,.42,.57-.13,1-.39,1.29-.77,.29-.39,.4-.84,.32-1.36Zm-150.14,23.23l-.07-8.63h1.05l.03,3.75,11.98-.08v1.12l-11.97,.08,.03,3.75h-1.05Zm12.95-10.28l-13.02,.08v-1.12l5.58-.04-.05-7.01-5.59,.04v-1.12l13.02-.08v1.12l-6.38,.04,.05,7.01,6.39-.04v1.12Zm-.07-10.81l-13.06-4.57v-1.27l12.98-4.63v1.15l-4.07,1.39,.04,5.4,4.1,1.37v1.15Zm-5.15-2.9l-.04-4.64-6.82,2.36,6.86,2.28Zm-7.95-8.01l-.07-8.63h1.05l.03,3.75,11.98-.08v1.12l-11.97,.08,.03,3.75h-1.05Z"/>
    <path id="obstacle" d="M289.18,328.26c1.5,1.71,2.25,3.73,2.25,6.07s-.75,4.4-2.25,6.09-3.78,2.53-6.83,2.53-5.33-.84-6.83-2.53-2.25-3.72-2.25-6.09,.75-4.36,2.25-6.07,3.78-2.57,6.83-2.57,5.33,.86,6.83,2.57Zm-6.85,1.01c-1.36,0-2.41,.44-3.14,1.31s-1.1,2.12-1.1,3.75,.37,2.87,1.1,3.75,1.78,1.32,3.14,1.32,2.4-.44,3.13-1.32,1.09-2.13,1.09-3.75-.36-2.87-1.09-3.75-1.77-1.31-3.13-1.31Zm22.08,13.55c-1.47,0-2.65-.27-3.54-.8-.53-.32-1.11-.87-1.73-1.66v2.03h-4.55v-21.84h4.63v7.77c.59-.75,1.23-1.33,1.94-1.72,.84-.49,1.9-.74,3.2-.74,2.34,0,4.17,.77,5.49,2.3s1.98,3.51,1.98,5.94-.65,4.59-1.96,6.25-3.13,2.48-5.46,2.48Zm2.54-8.28c0-1.15-.16-2.1-.49-2.85-.62-1.42-1.76-2.14-3.42-2.14s-2.84,.7-3.47,2.09c-.33,.74-.49,1.7-.49,2.88,0,1.38,.34,2.53,1.01,3.44s1.7,1.37,3.08,1.37c1.2,0,2.13-.44,2.79-1.32s.99-2.04,.99-3.47Zm20.45-7.58c1.39,.81,2.19,2.21,2.4,4.18h-4.65c-.07-.54-.23-.97-.51-1.29-.51-.57-1.38-.86-2.61-.86-1.01,0-1.73,.14-2.16,.43s-.64,.62-.64,1.01c0,.48,.23,.84,.68,1.05,.46,.23,2.07,.62,4.84,1.17,1.85,.4,3.23,.99,4.16,1.8,.91,.81,1.37,1.83,1.37,3.04,0,1.6-.66,2.91-1.97,3.92s-3.33,1.52-6.07,1.52-4.86-.54-6.19-1.61-2-2.44-2-4.1h4.71c.1,.75,.31,1.29,.64,1.6,.58,.56,1.64,.85,3.2,.85,.91,0,1.64-.12,2.18-.37s.81-.62,.81-1.11-.22-.84-.65-1.08-2.05-.67-4.84-1.28c-2.01-.46-3.43-1.02-4.26-1.71-.83-.67-1.24-1.64-1.24-2.91,0-1.49,.64-2.78,1.93-3.85s3.1-1.61,5.44-1.61,4.03,.4,5.43,1.2Zm14.46,12.42v3.16l-2.2,.07c-2.2,.07-3.7-.28-4.5-1.04-.52-.48-.78-1.23-.78-2.24v-9.96h-2.48v-3.01h2.48v-4.51h4.6v4.51h2.89v3.01h-2.89v8.55c0,.66,.09,1.08,.28,1.24s.75,.24,1.7,.24c.14,0,.29,0,.45,0s.31-.01,.46-.02Zm3.65-11.41c1.23-1.42,3.34-2.14,6.33-2.14,1.95,0,3.67,.35,5.19,1.05s2.27,2.03,2.27,3.98v7.42c0,.51,.01,1.14,.03,1.87,.03,.55,.13,.93,.28,1.13s.38,.36,.68,.49v.62h-5.06c-.14-.33-.24-.63-.29-.92s-.1-.61-.13-.98c-.64,.63-1.38,1.17-2.22,1.62-1,.52-2.13,.79-3.39,.79-1.61,0-2.94-.42-3.99-1.25s-1.57-2.02-1.57-3.55c0-1.99,.84-3.43,2.53-4.32,.92-.48,2.28-.83,4.08-1.04l1.58-.18c.86-.1,1.47-.22,1.84-.37,.66-.26,.99-.66,.99-1.2,0-.66-.25-1.12-.76-1.37s-1.25-.38-2.23-.38c-1.1,0-1.88,.25-2.33,.74-.33,.37-.54,.86-.65,1.48h-4.48c.1-1.41,.53-2.58,1.3-3.49Zm3.46,11.37c.43,.33,.97,.49,1.6,.49,1,0,1.92-.27,2.76-.8s1.28-1.51,1.31-2.92v-1.57c-.29,.17-.59,.3-.89,.41s-.71,.2-1.23,.29l-1.04,.18c-.98,.16-1.68,.35-2.1,.58-.72,.39-1.08,.98-1.08,1.8,0,.72,.22,1.24,.67,1.56Zm29.83-7.32h-4.76c-.09-.6-.31-1.15-.67-1.63-.52-.65-1.33-.98-2.43-.98-1.57,0-2.64,.71-3.21,2.12-.3,.75-.46,1.75-.46,3s.15,2.14,.46,2.86c.55,1.35,1.6,2.02,3.13,2.02,1.09,0,1.86-.27,2.32-.8s.73-1.23,.83-2.08h4.75c-.11,1.29-.62,2.5-1.53,3.65-1.46,1.85-3.61,2.77-6.47,2.77s-4.96-.77-6.31-2.31c-1.35-1.54-2.02-3.55-2.02-6.01,0-2.78,.74-4.94,2.23-6.48,1.49-1.54,3.54-2.31,6.16-2.31,2.23,0,4.05,.46,5.47,1.37s2.26,2.52,2.52,4.82Zm3.29-11.5h4.65v21.87h-4.65v-21.87Zm24.4,17.12c-.12,.96-.67,1.93-1.65,2.92-1.52,1.57-3.65,2.36-6.39,2.36-2.26,0-4.26-.66-5.98-1.99s-2.59-3.48-2.59-6.47c0-2.8,.78-4.95,2.34-6.44s3.58-2.24,6.07-2.24c1.48,0,2.81,.25,4,.76s2.16,1.3,2.94,2.39c.7,.96,1.15,2.07,1.35,3.34,.12,.74,.17,1.81,.15,3.2h-12.17c.07,1.62,.63,2.76,1.68,3.41,.64,.41,1.41,.61,2.32,.61,.96,0,1.73-.25,2.33-.74,.33-.27,.61-.64,.86-1.11h4.75Zm-4.6-4.96c-.08-1.12-.45-1.97-1.12-2.54s-1.5-.87-2.49-.87c-1.08,0-1.91,.31-2.5,.92s-.96,1.44-1.12,2.49h7.22Zm-135.19-34.82h-.06v17.1h-2.03v-19.6h2.3l12.45,17.12h.06v-17.12h2.03v19.6h-2.36l-12.39-17.1Zm18.73,7.32c0-1.43,.21-2.78,.64-4.03,.43-1.25,1.06-2.35,1.9-3.28s1.87-1.67,3.11-2.22c1.24-.54,2.66-.82,4.28-.82s3.15,.27,4.41,.8c1.27,.54,2.32,1.27,3.17,2.21s1.49,2.03,1.91,3.29,.64,2.61,.64,4.04-.21,2.74-.64,3.99c-.43,1.24-1.06,2.33-1.9,3.27-.84,.93-1.88,1.67-3.14,2.22-1.26,.54-2.71,.82-4.37,.82s-3.11-.27-4.37-.82c-1.26-.54-2.3-1.28-3.14-2.22-.84-.93-1.47-2.02-1.88-3.27-.42-1.24-.63-2.57-.63-3.99Zm10.05,8.71c1.4,0,2.6-.24,3.61-.72,1.01-.48,1.83-1.12,2.48-1.92,.65-.8,1.13-1.72,1.44-2.78,.31-1.05,.46-2.15,.46-3.29,0-1.36-.18-2.58-.55-3.66-.37-1.08-.9-2-1.6-2.76-.7-.76-1.55-1.34-2.54-1.74-1-.4-2.11-.6-3.35-.6-1.38,0-2.57,.24-3.58,.74s-1.84,1.14-2.48,1.95c-.65,.81-1.13,1.74-1.44,2.79s-.46,2.15-.46,3.29,.15,2.27,.46,3.32c.31,1.05,.79,1.98,1.44,2.78,.65,.8,1.48,1.43,2.48,1.91,1.01,.47,2.22,.71,3.64,.71Zm-44.05,24.79c.02,.11,.06,.25,.12,.42,.05,.17,.08,.37,.08,.58,0,.44-.11,.77-.35,1-.24,.23-.67,.35-1.29,.35l-6.06,.04v1.06h-.79v-1.06h-2.31v-.86h2.3v-1.43h.79v1.41l5.69-.04c.2,0,.38,0,.53-.02,.15-.01,.27-.04,.37-.09,.1-.05,.16-.12,.21-.23s.06-.25,.06-.43c0-.12-.01-.23-.03-.36-.02-.12-.05-.24-.08-.36h.78Zm-.04-1.4l-11.52,.07v-.87l4.38-.03c-.41-.35-.74-.71-1-1.08s-.39-.82-.39-1.34c0-.47,.08-.9,.25-1.3,.17-.4,.48-.74,.91-1.01,.3-.19,.6-.3,.92-.33,.31-.04,.64-.06,.98-.06l5.43-.03v.87l-5.4,.03c-.75,0-1.3,.16-1.68,.46-.37,.3-.55,.8-.55,1.5,0,.27,.05,.52,.14,.74,.09,.22,.21,.42,.36,.6,.15,.18,.32,.33,.52,.46,.19,.12,.4,.22,.61,.29,.27,.09,.52,.14,.77,.16,.25,.02,.51,.03,.8,.02l4.46-.03v.87Zm-3.98-8.61c.45,0,.87-.06,1.27-.17,.4-.11,.74-.27,1.04-.48s.52-.48,.7-.8c.17-.32,.26-.69,.26-1.11,0-.57-.17-1.06-.51-1.47-.33-.41-.81-.67-1.41-.81v-.98c.39,.11,.75,.24,1.09,.42,.34,.17,.63,.39,.88,.65s.45,.57,.59,.93c.14,.36,.21,.78,.22,1.25,0,.6-.1,1.12-.32,1.56-.22,.44-.52,.8-.91,1.08-.39,.28-.84,.5-1.37,.63-.53,.14-1.09,.21-1.7,.21-.61,0-1.18-.07-1.71-.23-.53-.16-1-.38-1.41-.68-.4-.29-.72-.65-.95-1.08s-.35-.91-.36-1.45c0-1.04,.38-1.86,1.16-2.45,.78-.6,1.92-.9,3.41-.89l.04,5.85Zm-.84-4.92c-.4,0-.79,.06-1.14,.16-.36,.11-.67,.26-.92,.46-.26,.2-.47,.45-.62,.75-.15,.3-.23,.65-.22,1.03,0,.39,.09,.73,.25,1.03,.16,.3,.38,.55,.65,.75,.27,.21,.58,.37,.93,.5,.35,.12,.73,.2,1.12,.24l-.04-4.92Zm4.69-3.58v.87l-8.28,.05v-.87h1.55v-.04c-.66-.24-1.13-.55-1.39-.93-.26-.38-.4-.89-.4-1.52h1.04c0,.49,.08,.9,.27,1.21,.18,.32,.43,.57,.74,.76,.31,.19,.68,.32,1.1,.39,.42,.07,.86,.1,1.32,.1l4.06-.03Zm-3.95-4.44c.45,0,.87-.06,1.27-.17s.74-.27,1.04-.48c.29-.21,.52-.48,.7-.8,.17-.32,.26-.69,.26-1.11,0-.57-.17-1.06-.51-1.47-.33-.41-.81-.67-1.41-.81v-.98c.39,.1,.75,.24,1.09,.42,.34,.17,.63,.39,.88,.65s.45,.57,.59,.93c.14,.36,.21,.78,.22,1.25,0,.6-.1,1.12-.32,1.56-.22,.44-.52,.8-.91,1.08-.39,.28-.84,.5-1.37,.64-.53,.14-1.09,.21-1.7,.21s-1.18-.07-1.71-.23c-.53-.16-1-.38-1.41-.68-.4-.29-.72-.65-.95-1.08-.23-.43-.35-.91-.36-1.45,0-1.04,.38-1.86,1.16-2.45,.78-.6,1.92-.9,3.41-.9l.04,5.85Zm-.84-4.92c-.4,0-.79,.06-1.14,.16-.36,.1-.66,.26-.92,.46-.26,.2-.47,.45-.62,.75-.15,.3-.23,.65-.22,1.04s.09,.73,.25,1.02c.16,.3,.38,.55,.65,.75,.27,.21,.58,.37,.93,.5,.35,.12,.73,.2,1.12,.24l-.04-4.92Zm-6.71-2.2v-1.14l2.2-1.63v.74l-2.2,2.02Zm8.77-5.81c.71-.14,1.22-.39,1.51-.75,.29-.36,.43-.86,.43-1.52,0-.32-.05-.6-.13-.83s-.2-.42-.35-.57c-.15-.15-.31-.26-.49-.34-.18-.08-.37-.11-.58-.11-.41,0-.71,.12-.9,.36-.2,.24-.35,.54-.46,.9s-.2,.75-.28,1.17c-.08,.42-.19,.81-.35,1.17-.16,.36-.38,.66-.68,.9-.3,.24-.72,.36-1.26,.36-.69,0-1.26-.22-1.71-.68s-.67-1.11-.68-1.95c0-.82,.19-1.48,.59-1.99,.4-.51,1.06-.82,2-.94v.89c-.63,.08-1.08,.31-1.34,.67-.26,.37-.39,.83-.38,1.38,0,.55,.14,.97,.4,1.26,.26,.29,.61,.43,1.04,.43,.37,0,.66-.12,.85-.36,.2-.24,.35-.54,.47-.9,.12-.36,.23-.75,.32-1.17,.09-.42,.23-.81,.4-1.17,.17-.36,.41-.66,.71-.9,.3-.24,.71-.36,1.25-.36,.39,0,.75,.07,1.05,.23,.31,.15,.56,.37,.77,.64s.36,.59,.46,.97c.1,.37,.16,.78,.16,1.23s-.07,.84-.21,1.19c-.14,.34-.34,.64-.59,.88-.25,.24-.55,.44-.89,.57-.34,.14-.71,.22-1.1,.24v-.89Z"/>
    <path id="can_t" data-name="can`t" d="M393.35,373.58c-.2-.63-.53-1.13-1.01-1.48-.47-.35-1.07-.53-1.79-.52-.56,0-1.03,.11-1.43,.32s-.72,.49-.97,.84c-.25,.35-.44,.74-.55,1.17-.12,.43-.17,.87-.17,1.31,0,.45,.06,.89,.18,1.32,.12,.43,.31,.81,.56,1.15,.26,.34,.58,.61,.98,.81,.4,.2,.88,.3,1.45,.3,.81,0,1.45-.21,1.94-.62,.49-.41,.79-.97,.92-1.69h1.16c-.09,.47-.24,.9-.45,1.29-.21,.39-.48,.73-.81,1.01-.33,.28-.72,.5-1.18,.66-.46,.16-.98,.24-1.57,.24-.75,0-1.39-.11-1.94-.33-.54-.23-.99-.54-1.35-.94s-.62-.87-.79-1.42c-.17-.55-.26-1.13-.27-1.76,0-.59,.08-1.16,.27-1.71,.18-.54,.45-1.03,.81-1.45,.36-.42,.81-.75,1.34-1,.53-.25,1.15-.38,1.85-.38,1.09,0,1.96,.22,2.64,.69,.67,.47,1.1,1.2,1.27,2.2h-1.1Zm7.73,.83c.21-.02,.45-.06,.73-.1,.28-.05,.52-.11,.7-.19,.18-.08,.29-.21,.33-.39,.04-.18,.06-.35,.06-.5,0-.5-.18-.92-.54-1.24s-.96-.48-1.8-.47c-.37,0-.72,.03-1.03,.1-.31,.06-.59,.17-.82,.32-.23,.15-.43,.35-.57,.6-.15,.25-.25,.56-.29,.93h-1.1c.03-.5,.16-.93,.37-1.29,.21-.36,.49-.65,.83-.88,.34-.23,.74-.39,1.19-.5,.45-.11,.93-.16,1.44-.17,.47,0,.91,.04,1.33,.13,.42,.09,.78,.24,1.09,.44,.31,.2,.55,.47,.73,.81,.18,.34,.27,.76,.27,1.25l.04,4.64c0,.38,.08,.63,.23,.73s.46,.08,.91-.08v.77c-.08,.02-.2,.06-.36,.1s-.32,.07-.48,.07c-.17,0-.33-.01-.49-.05-.18-.02-.33-.07-.44-.15-.11-.08-.2-.18-.26-.29-.07-.11-.11-.24-.14-.38-.03-.14-.04-.28-.04-.44-.45,.46-.98,.82-1.57,1.06s-1.23,.37-1.91,.37c-.41,0-.81-.04-1.19-.14-.38-.1-.72-.25-1.01-.45s-.52-.46-.69-.76c-.17-.3-.26-.66-.26-1.08-.01-1.45,1.07-2.31,3.25-2.59l1.5-.19Zm1.83,.48c-.46,.18-.92,.3-1.39,.35-.47,.06-.94,.11-1.41,.14-.83,.06-1.48,.23-1.94,.52-.46,.29-.69,.72-.69,1.3,0,.26,.06,.49,.18,.68,.12,.19,.27,.35,.46,.47,.19,.13,.41,.22,.65,.28,.25,.06,.5,.09,.75,.09,.43,0,.86-.06,1.27-.16,.41-.1,.77-.25,1.09-.46,.32-.2,.57-.46,.76-.78s.28-.69,.28-1.11v-1.33Zm5.04,4.45h-1.09l-.07-8.52h1.09v1.18c.44-.42,.89-.76,1.35-1.03,.46-.27,1.02-.4,1.67-.41,.58,0,1.12,.08,1.61,.26s.91,.49,1.26,.94c.23,.31,.37,.62,.41,.94,.04,.32,.07,.66,.07,1.01l.04,5.58h-1.09l-.04-5.56c0-.77-.2-1.34-.57-1.72-.38-.38-1-.57-1.87-.56-.34,0-.65,.05-.92,.15s-.53,.22-.75,.38c-.22,.16-.41,.33-.57,.53-.16,.2-.27,.41-.36,.63-.11,.28-.17,.54-.19,.79-.02,.25-.03,.53-.03,.82l.03,4.59Zm8.39-11.79h1.41l2.03,2.27h-.92l-2.51-2.27Zm9.9,11.71c-.13,.02-.31,.06-.52,.12-.22,.06-.46,.08-.72,.09-.54,0-.96-.12-1.24-.36-.29-.25-.43-.69-.44-1.32l-.05-6.24h-1.32v-.81h1.31l-.02-2.38h1.09l.02,2.36h1.76v.81h-1.75l.04,5.85c0,.21,0,.39,.02,.54,.01,.15,.05,.28,.11,.38s.15,.17,.28,.21,.31,.06,.53,.06c.14,0,.29-.01,.44-.04s.3-.05,.44-.09v.81Zm7.98-.08h-1.09l-.09-11.84h1.09l.04,4.68c.35-.53,.82-.93,1.43-1.2,.61-.27,1.24-.41,1.91-.42,.71,0,1.33,.12,1.86,.36,.53,.24,.96,.57,1.31,.98s.61,.89,.78,1.43c.17,.55,.26,1.12,.27,1.71,0,.63-.07,1.21-.22,1.76-.15,.55-.4,1.03-.74,1.43-.34,.4-.78,.72-1.3,.95s-1.17,.35-1.93,.36c-.3,0-.61-.04-.92-.11-.31-.07-.62-.18-.92-.32-.3-.14-.57-.32-.82-.53-.25-.21-.45-.46-.61-.75h-.04v1.5Zm-.02-4.3c0,.52,.08,1,.22,1.44,.14,.44,.35,.83,.61,1.15,.27,.32,.6,.58,1,.76,.4,.18,.85,.27,1.36,.27,.46,0,.88-.08,1.26-.23,.38-.15,.72-.37,1.01-.66,.29-.29,.51-.64,.67-1.05,.16-.41,.24-.89,.23-1.43,.02-.54-.03-1.04-.16-1.5-.12-.47-.32-.87-.59-1.22s-.61-.62-1.03-.83c-.42-.2-.9-.3-1.46-.29-.49,0-.94,.1-1.33,.3-.39,.19-.72,.45-.99,.78-.27,.33-.47,.71-.62,1.14-.14,.43-.21,.89-.21,1.38Zm10.51,.2c0,.46,.07,.9,.21,1.31,.14,.41,.33,.77,.6,1.07,.26,.3,.59,.54,.99,.72s.86,.27,1.38,.26c.71,0,1.32-.18,1.82-.52s.84-.83,1-1.45h1.21c-.13,.4-.3,.78-.52,1.12-.21,.35-.48,.65-.81,.91-.32,.26-.71,.46-1.15,.61-.45,.14-.96,.22-1.55,.22-.75,0-1.39-.11-1.94-.33-.54-.23-.99-.54-1.35-.94-.35-.4-.62-.87-.79-1.41-.17-.54-.26-1.13-.27-1.75,0-.63,.09-1.21,.28-1.76,.2-.55,.47-1.03,.84-1.45,.36-.41,.81-.74,1.34-.98,.53-.24,1.13-.36,1.81-.36,1.29,0,2.31,.39,3.05,1.19,.74,.8,1.11,1.97,1.11,3.51l-7.27,.05Zm6.11-.86c0-.42-.07-.81-.2-1.18-.13-.37-.32-.68-.57-.95-.25-.27-.56-.48-.94-.64-.38-.16-.8-.23-1.29-.23s-.91,.09-1.27,.25-.68,.39-.94,.66c-.26,.28-.46,.6-.62,.96-.15,.36-.25,.75-.3,1.15l6.11-.04Z"/>
    <path id="life" d="M171.47,278.87l-4.02,17.19h11.41l-.88,3.77h-16.22l4.89-20.96h4.81Zm9.47,20.96l4.89-20.96h4.78l-4.89,20.96h-4.78Zm27.05-12.43l-.84,3.64h-10.11l-2.05,8.79h-4.78l4.88-20.93h16.33l-.86,3.68h-11.55l-1.13,4.82h10.11Zm20.24,8.66l-.88,3.77h-17.46l4.89-20.96h16.89l-.88,3.71h-12.19l-1.03,4.45h11.19l-.86,3.64h-11.19l-1.25,5.39h12.75Zm-85.93-18.13l-.7-1.06,.87-.47,.7,1.06-.87,.47Zm5.02,7.51l-4.09-6.18,.79-.43,4.09,6.18-.79,.43Zm3.58-1.96l-.79,.43-4.09-6.18,.79-.43,.57,.86c.11-.47,.28-.9,.49-1.27,.21-.38,.55-.69,1.02-.95,.42-.23,.85-.38,1.3-.44,.45-.06,.9,0,1.36,.19,.31,.13,.56,.31,.75,.53,.19,.22,.36,.45,.53,.71l2.67,4.05-.79,.43-2.67-4.03c-.37-.56-.78-.9-1.24-1.03-.46-.13-1-.02-1.63,.32-.24,.13-.45,.29-.6,.47-.16,.18-.28,.37-.37,.57-.09,.2-.14,.4-.16,.61s0,.4,.04,.6c.05,.24,.13,.46,.23,.65,.1,.19,.23,.4,.37,.61l2.2,3.33Zm12.56-6.84c-.09,.07-.19,.17-.32,.29-.13,.13-.29,.24-.49,.35-.39,.22-.75,.29-1.08,.22-.32-.07-.64-.33-.94-.79l-2.99-4.52-.96,.52-.39-.6,.96-.52-1.14-1.72,.79-.43,1.14,1.72,1.27-.7,.39,.6-1.27,.7,2.8,4.24c.1,.15,.19,.28,.27,.39,.08,.11,.17,.18,.26,.23,.09,.05,.19,.06,.31,.04,.11-.02,.25-.07,.42-.16,.1-.06,.21-.12,.31-.2,.1-.08,.19-.15,.28-.24l.39,.58Zm1.24-.71l-5.68-8.59,.79-.43,2.16,3.27c.11-.47,.28-.9,.49-1.27,.21-.38,.55-.69,1.02-.95,.42-.23,.85-.38,1.3-.44,.45-.06,.9,0,1.36,.19,.31,.13,.56,.31,.75,.52s.36,.45,.53,.71l2.67,4.05-.79,.43-2.67-4.03c-.37-.56-.78-.9-1.23-1.03-.46-.13-1-.02-1.63,.32-.25,.13-.45,.29-.6,.47-.16,.18-.28,.37-.37,.57-.09,.2-.14,.4-.16,.61s0,.4,.04,.6c.05,.24,.13,.46,.23,.65s.23,.4,.37,.61l2.2,3.33-.79,.43Zm2.4-11.57l-.7-1.06,.87-.47,.7,1.06-.87,.47Zm5.02,7.51l-4.09-6.18,.79-.43,4.09,6.18-.79,.43Zm1.97-3.71c.48,.47,.94,.72,1.41,.77,.46,.05,.99-.1,1.59-.42,.29-.16,.52-.33,.68-.5,.17-.18,.28-.36,.35-.54,.06-.18,.09-.36,.07-.53-.02-.17-.08-.34-.18-.49-.2-.3-.46-.47-.77-.5-.31-.03-.66,0-1.04,.1-.38,.09-.78,.21-1.19,.36-.42,.15-.82,.25-1.23,.31-.4,.06-.79,.03-1.15-.07-.36-.1-.68-.36-.94-.77-.34-.52-.42-1.05-.22-1.61,.2-.56,.68-1.04,1.44-1.46,.73-.4,1.43-.58,2.09-.53,.66,.05,1.27,.4,1.82,1.04l-.8,.44c-.39-.44-.81-.67-1.26-.68-.46-.02-.93,.11-1.43,.39s-.81,.58-.95,.92c-.13,.34-.1,.67,.12,.99,.18,.28,.43,.43,.74,.46s.66,0,1.04-.08c.38-.09,.79-.2,1.21-.33,.42-.13,.84-.23,1.25-.27,.41-.05,.8-.02,1.16,.09,.36,.11,.67,.36,.94,.76,.19,.29,.3,.59,.31,.9,.01,.3-.06,.6-.2,.88-.14,.29-.36,.56-.65,.82-.29,.26-.63,.5-1.03,.72s-.79,.36-1.18,.42c-.38,.06-.74,.06-1.09-.01-.34-.07-.66-.2-.95-.39s-.54-.42-.75-.71l.8-.44Z" style="fill: #60605e;"/>
    <path id="love" d="M292.87,253.32v10.44c.03,1.86,.15,2.98,.37,3.36,.22,.38,.85,.57,1.88,.57h2.73c1.88,0,3.09-.2,3.64-.59,.55-.39,.82-1.24,.82-2.55v-.16c0-.6-.01-1.18-.04-1.73,0-.34-.01-.69-.04-1.06-.03-.37-.04-.56-.04-.59,0-1.23,.49-1.84,1.47-1.84s1.42,.54,1.42,1.61c0,.26-.02,.72-.06,1.37-.1,1.6-.15,2.64-.15,3.14,0,.63,.03,1.24,.09,1.84,.09,.92,.13,1.4,.13,1.45,0,1.1-.62,1.65-1.86,1.65-.37,0-.96-.04-1.77-.12-.32-.03-1.28-.08-2.89-.16-1.73-.08-2.83-.12-3.32-.12-2.36,0-4.11,.07-5.26,.2-1.15,.13-2,.2-2.55,.2-1.09,0-1.64-.52-1.64-1.57,0-.86,.46-1.3,1.38-1.3,.29,0,.5,.05,.65,.16,.46,.1,.72,.16,.78,.16,.55,0,.89-.39,1.04-1.16,.14-.77,.22-2.67,.22-5.69v-7.49c0-3.05-.07-4.96-.22-5.73-.14-.77-.49-1.16-1.04-1.16-.14,0-.37,.03-.69,.1-.32,.07-.56,.1-.73,.1-.92,0-1.38-.44-1.38-1.33,0-1.02,.55-1.53,1.64-1.53,.4,0,1.03,.07,1.9,.22,.86,.14,1.54,.22,2.03,.22,.46,0,1.12-.07,1.98-.22,.86-.14,1.51-.22,1.94-.22,.46,0,.85,.15,1.16,.45,.32,.3,.47,.66,.47,1.08,0,.89-.47,1.33-1.42,1.33-.09,0-.29-.03-.6-.1-.32-.06-.59-.1-.82-.1-.55,0-.88,.39-1.01,1.16-.13,.77-.19,2.68-.19,5.71Zm24.42,17.31c-2.82,0-5.07-1.23-6.75-3.69-1.68-2.46-2.52-5.76-2.52-9.89s.84-7.44,2.52-9.91,3.93-3.71,6.75-3.71,5.06,1.23,6.73,3.69c1.67,2.46,2.5,5.77,2.5,9.93s-.83,7.43-2.5,9.89c-1.67,2.46-3.91,3.69-6.73,3.69Zm.04-24.45c-1.93,0-3.42,.96-4.46,2.87-1.05,1.91-1.57,4.58-1.57,8.01s.52,6.03,1.57,7.95c1.05,1.92,2.49,2.88,4.34,2.88s3.38-.95,4.44-2.86c1.06-1.91,1.6-4.57,1.6-7.97s-.53-6.03-1.58-7.97c-1.05-1.94-2.5-2.9-4.34-2.9Zm17.51,3.95l4.36,15.87,4.1-17.4c.11-.52,.17-.91,.17-1.17,0-.57-.26-.86-.78-.86h-1.25c-.81,0-1.21-.45-1.21-1.34,0-.97,.52-1.45,1.55-1.45,.37,0,.96,.08,1.77,.23,.69,.13,1.32,.2,1.9,.2,.43,0,1.03-.07,1.81-.22,.78-.14,1.34-.22,1.68-.22,.98,0,1.47,.48,1.47,1.45,0,.89-.42,1.33-1.25,1.33-.14,0-.34-.02-.58-.06-.24-.04-.44-.06-.58-.06-.58,0-1.14,1.01-1.68,3.02l-.78,2.87-4.44,16.72c-.26,.94-.92,1.41-1.98,1.41-.69,0-1.16-.13-1.42-.39-.23-.18-.45-.63-.65-1.33l-5.52-18.84c-.63-2.22-1.31-3.34-2.03-3.34h-.13c-.09,.03-.14,.04-.17,.04-.17,.03-.36,.05-.56,.08-.35,0-.64-.15-.88-.45s-.37-.65-.37-1.04c0-.94,.52-1.41,1.55-1.41,.4,0,.99,.07,1.77,.22,.78,.14,1.37,.22,1.77,.22,.66,0,1.22-.06,1.68-.2,.92-.16,1.54-.23,1.86-.23,.98,0,1.47,.46,1.47,1.39,0,.39-.14,.72-.43,.99-.29,.27-.63,.41-1.03,.41h-1.08c-.52,0-.78,.26-.78,.78,0,.23,.11,.76,.35,1.56l.34,1.21Zm23.68,.48v2.43l.04,.82c.03,.73,.3,1.1,.81,1.1h1.67c1.17,0,1.75-.61,1.75-1.84,0-.39-.01-.72-.04-.98-.09-.76-.13-1.19-.13-1.3,0-.99,.43-1.49,1.29-1.49s1.25,.62,1.25,1.84v.82l-.17,2.12c-.06,.71-.09,1.43-.09,2.16,0,1.28,.06,2.57,.18,3.85,.05,.52,.07,.86,.07,1.02,0,1.05-.43,1.57-1.29,1.57s-1.25-.54-1.25-1.61c0-.24,.03-.6,.09-1.1,.06-.5,.09-.86,.09-1.1,0-1.1-.54-1.65-1.62-1.65h-1.79c-.4,0-.64,.08-.73,.24-.09,.16-.13,.6-.13,1.34v6.66c0,.89,.24,1.46,.73,1.69,.35,.16,1.05,.24,2.11,.24h2.33c1.9,0,3.15-.24,3.75-.71s.91-1.46,.91-2.96c0-.34-.03-.85-.09-1.52-.06-.67-.09-1.18-.09-1.52,0-1.18,.47-1.77,1.42-1.77s1.42,.52,1.42,1.57c0,.18-.03,.62-.09,1.3-.17,.89-.26,1.91-.26,3.06v3.38c0,.71-.16,1.2-.47,1.47-.32,.27-.89,.41-1.72,.41-.49,0-1.1-.04-1.85-.12-1.23-.13-3.04-.2-5.41-.2-.2,0-1.36,.04-3.48,.12-1.17,.05-2,.11-2.49,.16-1.03,.13-1.78,.2-2.23,.2-1.12,0-1.67-.52-1.67-1.57,0-.86,.46-1.3,1.38-1.3,.29,0,.5,.03,.65,.08,.46,.05,.72,.08,.78,.08,.55,0,.89-.38,1.04-1.15,.14-.77,.22-2.65,.22-5.65v-7.43c0-3.02-.07-4.92-.22-5.69-.14-.77-.49-1.15-1.04-1.15-.14,0-.37,.02-.69,.06-.32,.04-.56,.06-.73,.06-.92,0-1.38-.44-1.38-1.33,0-1.02,.55-1.53,1.64-1.53,.26,0,1.21,.1,2.85,.31,.6,.08,1.35,.12,2.24,.12,2.27,0,4.69-.09,7.25-.27,.72-.1,1.65-.16,2.8-.16,1.27,0,1.97,.3,2.11,.9,.06,.26,.09,.63,.09,1.1,0,.37-.01,.85-.04,1.45-.09,1.68-.09,3.04,0,4.08l.13,1.88c0,1.07-.45,1.61-1.34,1.61-.98,0-1.47-.58-1.47-1.75,0-.34,.01-.82,.04-1.46,.03-.64,.04-1.12,.04-1.46,0-1.43-.23-2.38-.69-2.88s-1.35-.74-2.66-.74h-3.31c-1.14,0-1.85,.22-2.13,.67-.27,.45-.41,1.58-.41,3.41Z" style="fill: #d80000;"/>
    <path id="if" d="M275,243.21c.02,.08,.04,.18,.08,.31,.04,.13,.06,.27,.06,.43,0,.32-.08,.57-.26,.74s-.49,.26-.95,.26l-4.48,.03v.79h-.59v-.78h-1.71v-.63h1.7v-1.05h.58v1.04l4.21-.03c.15,0,.28,0,.39-.01,.11,0,.2-.03,.27-.07,.07-.04,.12-.09,.15-.17,.03-.08,.05-.18,.05-.32,0-.09,0-.17-.03-.26s-.04-.18-.06-.26h.58Zm-.03-1.04l-8.52,.05v-.65l3.24-.02c-.3-.26-.55-.52-.74-.8-.19-.27-.29-.61-.29-.99,0-.34,.06-.66,.19-.96,.13-.29,.35-.54,.67-.75,.22-.14,.45-.22,.68-.25,.23-.03,.47-.04,.73-.04l4.01-.03v.65l-3.99,.03c-.55,0-.96,.12-1.24,.34-.27,.22-.41,.6-.4,1.11,0,.2,.04,.38,.1,.55,.07,.16,.16,.31,.27,.44,.11,.13,.24,.24,.38,.34,.14,.09,.29,.16,.45,.21,.2,.06,.39,.1,.57,.11,.18,.01,.38,.02,.59,.02l3.3-.02v.65Zm-2.94-6.36c.33,0,.64-.04,.94-.12s.55-.2,.77-.35c.22-.16,.39-.35,.52-.59,.13-.24,.19-.51,.19-.82,0-.42-.13-.79-.38-1.09-.25-.3-.6-.5-1.05-.6v-.72c.29,.08,.56,.18,.81,.31,.25,.13,.47,.29,.65,.48,.19,.19,.33,.42,.44,.69,.1,.27,.16,.57,.16,.92,0,.44-.08,.83-.24,1.15-.16,.32-.39,.59-.67,.8-.29,.21-.62,.37-1.01,.47-.39,.1-.81,.16-1.26,.16-.45,0-.87-.05-1.27-.17-.39-.12-.74-.28-1.04-.5-.3-.22-.53-.48-.7-.8-.17-.31-.26-.67-.26-1.07,0-.77,.28-1.37,.86-1.81s1.42-.66,2.52-.66l.03,4.33Zm-.62-3.63c-.3,0-.58,.04-.85,.12-.26,.08-.49,.19-.68,.34-.19,.15-.34,.33-.46,.56-.11,.22-.17,.48-.17,.77s.06,.54,.18,.76c.12,.22,.28,.4,.48,.56,.2,.15,.43,.28,.69,.37s.54,.15,.83,.18l-.03-3.64Zm3.47-2.65v.65l-6.12,.04v-.65h1.14v-.03c-.49-.18-.83-.41-1.03-.69-.2-.28-.29-.66-.3-1.12h.77c0,.36,.06,.66,.2,.9,.14,.24,.32,.42,.55,.56,.23,.14,.5,.23,.81,.29,.31,.05,.64,.08,.98,.07l3-.02Zm-2.92-3.29c.33,0,.64-.04,.94-.12s.55-.2,.77-.35c.22-.16,.39-.35,.52-.59,.13-.24,.19-.51,.19-.82,0-.42-.13-.79-.38-1.09-.25-.3-.6-.5-1.05-.6v-.72c.29,.08,.56,.18,.81,.31,.25,.13,.47,.29,.65,.48,.19,.19,.33,.42,.44,.69,.1,.27,.16,.57,.16,.92,0,.44-.08,.83-.24,1.15-.16,.32-.39,.59-.67,.8-.29,.21-.62,.37-1.01,.47-.39,.1-.81,.16-1.26,.16-.45,0-.87-.05-1.27-.17-.39-.12-.74-.28-1.04-.5-.3-.22-.53-.48-.7-.8-.17-.31-.26-.67-.26-1.07,0-.77,.28-1.37,.86-1.81s1.42-.66,2.52-.66l.03,4.33Zm-.62-3.63c-.3,0-.58,.04-.85,.12-.26,.08-.49,.19-.68,.34s-.34,.33-.46,.56c-.11,.22-.17,.48-.17,.77,0,.29,.06,.54,.18,.76,.12,.22,.28,.4,.48,.56,.2,.15,.43,.28,.69,.37s.54,.15,.83,.18l-.03-3.64Zm-4.96-1.63v-.84l1.63-1.2v.55l-1.63,1.5Zm6.49-4.29c.53-.1,.9-.29,1.11-.55,.21-.26,.32-.64,.32-1.13,0-.24-.04-.44-.1-.61-.06-.17-.15-.31-.26-.42-.11-.11-.23-.19-.36-.25s-.28-.08-.43-.08c-.3,0-.52,.09-.67,.27-.14,.18-.26,.4-.34,.66-.08,.27-.15,.55-.21,.86-.06,.31-.14,.6-.26,.86-.12,.27-.28,.49-.5,.67-.22,.18-.53,.27-.93,.27-.51,0-.93-.16-1.26-.5-.33-.34-.5-.82-.5-1.44,0-.6,.14-1.09,.43-1.47,.29-.38,.79-.61,1.48-.69v.66c-.47,.06-.8,.23-.99,.5-.19,.27-.29,.61-.28,1.02,0,.41,.1,.72,.3,.93s.45,.32,.77,.32c.28,0,.49-.09,.63-.27,.14-.18,.26-.4,.35-.66,.09-.27,.17-.55,.24-.86,.07-.31,.17-.6,.29-.86,.13-.27,.3-.49,.52-.67,.22-.18,.53-.27,.92-.27,.29,0,.55,.05,.78,.17,.23,.11,.41,.27,.57,.47,.15,.2,.27,.44,.34,.71s.12,.58,.12,.91c0,.33-.05,.62-.15,.88s-.25,.47-.44,.65c-.19,.18-.41,.32-.66,.42-.25,.1-.52,.16-.81,.18v-.66Zm-37.76,6.93h5.09v22.33h-5.09v-22.33Zm27.27,3.95h-12.3v5.13h10.77v3.88h-10.77v9.36h-5.09v-22.3h17.4v3.92Zm-22.1-9.65h-2.58l-.49,1.31h-1.53l2.5-6.38h1.66l2.48,6.38h-1.59l-.45-1.31Zm-.41-1.1l-.88-2.51-.9,2.51h1.78Zm9.01,2.41h-1.46l-2.86-4.53v4.53h-1.37v-6.38h1.54l2.79,4.45v-4.45h1.37v6.38Zm4.39,0h-3.02v-6.38h3.02c.43,0,.8,.05,1.08,.14,.49,.15,.89,.42,1.19,.81,.24,.32,.41,.66,.5,1.03s.13,.72,.13,1.06c0,.85-.19,1.57-.56,2.16-.51,.79-1.29,1.19-2.35,1.19Zm1.09-4.75c-.22-.35-.67-.52-1.34-.52h-1.35v4.16h1.35c.69,0,1.17-.31,1.45-.93,.15-.34,.22-.75,.22-1.22,0-.65-.11-1.15-.33-1.5Z"/>
    <path id="magical" d="M209.98,197.66c1.11,0,2.01-.11,2.71-.33,1.31-.43,1.97-1.22,1.97-2.38,0-.68-.33-1.2-.98-1.57-.65-.36-1.68-.68-3.07-.96l-2.39-.49c-2.34-.48-3.96-1.01-4.86-1.57-1.52-.95-2.28-2.43-2.28-4.44,0-1.84,.73-3.36,2.2-4.58s3.62-1.82,6.47-1.82c2.37,0,4.4,.57,6.08,1.72,1.68,1.15,2.56,2.81,2.64,4.99h-4.53c-.08-1.23-.67-2.11-1.77-2.63-.73-.34-1.65-.51-2.74-.51-1.21,0-2.18,.22-2.9,.67s-1.09,1.07-1.09,1.86c0,.73,.36,1.28,1.07,1.64,.46,.24,1.44,.52,2.94,.85l3.88,.85c1.7,.37,2.99,.87,3.85,1.49,1.35,.96,2.02,2.36,2.02,4.19s-.79,3.43-2.36,4.67c-1.58,1.24-3.8,1.86-6.67,1.86s-5.24-.61-6.93-1.83c-1.68-1.22-2.52-2.9-2.52-5.03h4.49c.14,.94,.42,1.64,.84,2.1,.76,.84,2.07,1.27,3.93,1.27Zm22.67,3.53c-3.22,0-5.68-.8-7.38-2.39-2.28-1.96-3.42-4.78-3.42-8.46s1.14-6.57,3.42-8.46c1.7-1.59,4.16-2.39,7.38-2.39s5.68,.8,7.38,2.39c2.27,1.88,3.41,4.7,3.41,8.46s-1.14,6.5-3.41,8.46c-1.7,1.6-4.16,2.39-7.38,2.39Zm4.45-5.51c1.09-1.25,1.64-3.03,1.64-5.34s-.55-4.08-1.64-5.33c-1.1-1.26-2.58-1.89-4.44-1.89s-3.35,.63-4.46,1.88c-1.11,1.25-1.67,3.03-1.67,5.34s.56,4.09,1.67,5.34c1.11,1.25,2.6,1.88,4.46,1.88s3.35-.63,4.45-1.88Zm22.95,4.94h-4.39v-20.5h6.85l4.1,16.12,4.07-16.12h6.77v20.5h-4.39v-13.87c0-.4,0-.96,.01-1.68,.01-.72,.02-1.27,.02-1.66l-4.27,17.21h-4.57l-4.24-17.21c0,.39,0,.94,.02,1.66,.01,.72,.01,1.28,.01,1.68v13.87Zm34.97-4.22h-8.3l-1.56,4.22h-4.92l8.04-20.5h5.32l7.98,20.5h-5.11l-1.45-4.22Zm-1.32-3.53l-2.81-8.07-2.9,8.07h5.72Zm24.55,7.25c-1.24,.7-2.77,1.04-4.59,1.04-2.99,0-5.43-.94-7.34-2.82-1.99-1.89-2.98-4.48-2.98-7.76s1-5.98,3.01-7.98,4.66-3,7.97-3c2.86,0,5.16,.66,6.9,1.98,1.74,1.32,2.73,2.97,2.99,4.95h-4.63c-.36-1.4-1.23-2.38-2.61-2.93-.77-.31-1.64-.46-2.58-.46-1.81,0-3.31,.62-4.47,1.87-1.17,1.25-1.75,3.12-1.75,5.63s.63,4.31,1.9,5.36,2.7,1.57,4.31,1.57,2.87-.42,3.88-1.25c1.01-.83,1.63-1.92,1.87-3.26h-5.21v-3.42h9.39v11h-3.12l-.47-2.56c-.91,.97-1.72,1.66-2.45,2.06Zm10.17-20h4.68v20.5h-4.68v-20.5Zm24.97,18.97c-1.68,1.4-3.83,2.1-6.45,2.1-3.24,0-5.79-.95-7.64-2.84-1.86-1.9-2.78-4.51-2.78-7.82,0-3.58,1.05-6.34,3.17-8.28,1.83-1.69,4.17-2.53,7-2.53,3.79,0,6.56,1.13,8.32,3.39,.97,1.27,1.49,2.55,1.56,3.83h-4.71c-.31-.98-.7-1.72-1.18-2.23-.86-.89-2.12-1.34-3.81-1.34s-3.06,.63-4.05,1.89c-.99,1.26-1.48,3.03-1.48,5.34s.52,4.02,1.57,5.17c1.04,1.14,2.37,1.72,3.98,1.72s2.91-.49,3.78-1.48c.48-.53,.88-1.32,1.19-2.38h4.66c-.41,2.23-1.45,4.05-3.12,5.45Zm19.91-2.69h-8.3l-1.56,4.22h-4.92l8.04-20.5h5.32l7.98,20.5h-5.11l-1.45-4.22Zm-1.32-3.53l-2.81-8.07-2.9,8.07h5.72Zm10.73-12.76h4.71v16.82h11.16v3.69h-15.87v-20.5Z" style="fill: #c936f1;"/>
    <path id="day" d="M204.77,174.1h-8.41v-17.77h8.41c1.21,.02,2.22,.14,3.02,.39,1.37,.41,2.48,1.16,3.33,2.25,.68,.88,1.14,1.84,1.39,2.87s.37,2.01,.37,2.94c0,2.36-.52,4.36-1.56,6-1.41,2.21-3.6,3.32-6.55,3.32Zm3.03-13.24c-.63-.96-1.87-1.45-3.72-1.45h-3.76v11.6h3.76c1.93,0,3.27-.86,4.03-2.59,.42-.95,.62-2.08,.62-3.39,0-1.81-.31-3.2-.93-4.17Zm19.58,9.58h-7.19l-1.35,3.65h-4.27l6.97-17.77h4.61l6.92,17.77h-4.43l-1.26-3.65Zm-1.14-3.06l-2.44-6.99-2.52,6.99h4.96Zm22.58-11.05l-6.53,11.09v6.68h-4.08v-6.68l-6.76-11.09h4.81l4.05,7.74,3.88-7.74h4.62Zm2.66,19c-.16,.59-.46,1.11-.89,1.54-.47,.47-1.02,.82-1.65,1.05-.63,.24-1.07,.36-1.31,.36v-1.33c.76-.19,1.32-.51,1.68-.96,.36-.45,.56-1.08,.62-1.89h-2.29v-3.59h4.08v3.11c0,.55-.08,1.12-.24,1.71Zm-55.25-37.24h2.05l.1,13.61h-2.05l-.1-13.61Zm16.23-.1v1.62l-5.03,.03,.09,12h-2.05l-.09-11.99-5.05,.03v-1.62l12.13-.08Zm3.26,9.21c.05,.77,.25,1.4,.59,1.88,.66,.9,1.8,1.34,3.44,1.33,.73,0,1.4-.11,2-.31,1.16-.39,1.74-1.08,1.73-2.07,0-.74-.26-1.27-.75-1.58-.5-.31-1.29-.57-2.36-.79l-1.97-.4c-1.29-.26-2.2-.56-2.73-.88-.93-.56-1.39-1.41-1.4-2.54,0-1.22,.44-2.23,1.34-3.02,.9-.79,2.18-1.19,3.84-1.2,1.53,0,2.83,.33,3.9,1.01,1.07,.68,1.62,1.78,1.63,3.3h-1.91c-.1-.72-.32-1.28-.64-1.66-.6-.71-1.61-1.06-3.03-1.05-1.15,0-1.97,.24-2.47,.7-.5,.46-.74,.99-.74,1.6,0,.67,.31,1.15,.9,1.46,.39,.2,1.27,.44,2.64,.73l2.04,.42c.98,.2,1.74,.49,2.28,.85,.93,.63,1.39,1.55,1.4,2.76,.01,1.51-.57,2.59-1.74,3.25s-2.54,.99-4.09,1c-1.82,.01-3.24-.41-4.27-1.27-1.03-.85-1.55-2.01-1.54-3.49h1.91Zm-39.77,40.99v-1.86l6.17-.04-.05-7-6.19,.04v-1.86l14.96-.09v1.86l-6.99,.04,.05,7,7-.04v1.86l-14.96,.09Zm-.13-17.63l-.02-2.09,14.93-5.04,.02,2.02-4.47,1.41,.04,5.39,4.5,1.45v1.89l-15-5.03Zm8.81-3.09l-6.6,2.11,6.63,2.16-.03-4.27Zm1.25-6.89c.85-.05,1.54-.23,2.07-.54,.99-.6,1.48-1.64,1.46-3.13,0-.67-.12-1.27-.34-1.82-.43-1.06-1.19-1.58-2.27-1.58-.82,0-1.39,.23-1.74,.69-.34,.46-.63,1.17-.87,2.14l-.45,1.79c-.29,1.17-.61,2-.97,2.49-.62,.84-1.55,1.27-2.79,1.28-1.35,0-2.45-.4-3.32-1.21-.87-.82-1.31-1.98-1.32-3.49-.01-1.39,.36-2.57,1.11-3.55,.75-.98,1.96-1.47,3.62-1.48v1.73c-.79,.09-1.4,.29-1.83,.58-.78,.54-1.16,1.46-1.15,2.75,0,1.04,.27,1.79,.77,2.25,.51,.45,1.09,.68,1.76,.67,.73,0,1.27-.28,1.6-.82,.21-.35,.48-1.16,.8-2.4l.47-1.85c.22-.89,.53-1.58,.93-2.07,.69-.84,1.71-1.27,3.04-1.28,1.66-.01,2.85,.52,3.57,1.58s1.09,2.31,1.1,3.72c.01,1.65-.45,2.95-1.4,3.89-.94,.94-2.21,1.41-3.83,1.4v-1.73Z"/>
    <path id="night" d="M29.23,148.73h10.87v1.67h-8.89v4.14h8.22v1.58h-8.22v4.62h9.04v1.62h-11.02v-13.62Zm14.92,0l4.3,11.6,4.25-11.6h2.27l-5.46,13.62h-2.15l-5.45-13.62h2.24Zm12.93,0h10.87v1.67h-8.89v4.14h8.22v1.58h-8.22v4.62h9.04v1.62h-11.02v-13.62Zm13.97,0h6.81c1.12,0,2.05,.15,2.77,.45,1.38,.58,2.07,1.65,2.07,3.22,0,.82-.19,1.48-.56,2-.37,.52-.89,.94-1.55,1.25,.58,.22,1.02,.5,1.32,.85,.3,.35,.46,.92,.49,1.72l.07,1.83c.02,.52,.07,.91,.14,1.16,.12,.43,.34,.71,.65,.83v.31h-2.49c-.07-.12-.12-.27-.16-.45s-.07-.54-.1-1.08l-.12-2.27c-.05-.89-.4-1.49-1.06-1.79-.38-.17-.97-.25-1.77-.25h-4.49v5.84h-2.03v-13.62Zm6.59,6.24c.92,0,1.66-.17,2.2-.52s.81-.97,.81-1.87c0-.97-.38-1.63-1.13-1.98-.4-.19-.94-.28-1.62-.28h-4.82v4.66h4.56Zm6.72-6.24h2.37l4.3,6.55,4.3-6.55h2.39l-5.67,8.13v5.49h-2.03v-5.49l-5.66-8.13Zm20.22,2.29h3.59l4.69,6.27v-6.27h3.63v11.33h-3.63l-4.66-6.22v6.22h-3.62v-11.33Zm14.62,0h3.86v11.33h-3.86v-11.33Zm12.88,7.23v-2.36h5.95v4.83c-1.14,.71-2.15,1.19-3.02,1.44-.88,.25-1.91,.38-3.11,.38-1.48,0-2.68-.23-3.61-.69-.93-.46-1.65-1.14-2.17-2.05-.51-.91-.77-1.95-.77-3.12,0-1.24,.28-2.31,.84-3.23,.56-.91,1.38-1.61,2.46-2.08,.84-.37,1.98-.55,3.41-.55s2.4,.11,3.09,.34c.68,.23,1.25,.58,1.7,1.06,.45,.48,.79,1.08,1.02,1.81l-3.71,.6c-.15-.43-.41-.75-.78-.98-.36-.23-.83-.34-1.4-.34-.84,0-1.52,.27-2.02,.8-.5,.53-.75,1.38-.75,2.53,0,1.23,.25,2.1,.76,2.63,.51,.53,1.21,.79,2.12,.79,.43,0,.84-.06,1.23-.17,.39-.11,.84-.31,1.34-.58v-1.07h-2.57Zm8.25-7.23h3.85v3.96h4.2v-3.96h3.86v11.33h-3.86v-4.58h-4.2v4.58h-3.85v-11.33Zm13.6,0h11.7v2.8h-3.92v8.53h-3.85v-8.53h-3.92v-2.8Z"/>
    <path id="and" d="M29.71,127.27l1.65-.02,5.15,11.54-1.6,.02-1.46-3.46-4.26,.06-.79,3.49-1.49,.02,2.81-11.64Zm3.13,6.81l-2.18-5.1-1.19,5.14,3.37-.05Zm3.75-6.9l1.72-.02,6.37,9.29-1.01-9.36,1.39-.02,1.24,11.59-1.64,.02-6.45-9.28,1,9.35-1.39,.02-1.24-11.59Zm10.9-.15l4.3-.06c1.46-.02,2.65,.53,3.58,1.65,.83,1.01,1.33,2.31,1.5,3.91,.13,1.23,.04,2.35-.28,3.35-.56,1.77-1.75,2.66-3.57,2.69l-4.29,.06-1.24-11.59Zm5.11,10.19c.48,0,.87-.07,1.17-.18,.53-.21,.94-.61,1.23-1.2,.23-.47,.37-1.07,.41-1.81,.03-.44,.02-.84-.02-1.22-.15-1.44-.53-2.55-1.14-3.33-.6-.79-1.48-1.17-2.63-1.16l-2.53,.03,.95,8.9,2.54-.03Z"/>
    <path id="beautiful" d="M347.43,132.65c0,.87-.21,1.61-.63,2.2-.42,.6-1.11,1.11-2.06,1.52,.48,.16,.85,.33,1.11,.49h-.03c1.72,.91,2.57,2.23,2.57,3.97s-.75,3.1-2.24,4.14c-1.4,1-3.31,1.5-5.74,1.5-.4,0-.86-.01-1.39-.04s-1.11-.06-1.75-.1c-.64-.04-1.18-.07-1.63-.1-.45-.03-.82-.04-1.12-.04-.52,0-.99,.03-1.41,.08l-1.38,.16h-.06s-.04,0-.06,.01c-.02,0-.04,.01-.06,.01h-.3c-1.12-.02-1.68-.45-1.68-1.31,0-.8,.46-1.2,1.38-1.2,.08,0,.2,0,.36,.01,.16,0,.32,.03,.48,.07h.18c.1,.02,.17,.03,.22,.03h.13c.64,0,.96-.52,.96-1.55v-10.51c0-1.05-.31-1.59-.93-1.61-.04,.02-.12,.03-.24,.03s-.24,0-.36,.03h.03c-.34,.05-.62,.08-.84,.08-.92,0-1.38-.4-1.38-1.2,0-.85,.6-1.28,1.8-1.28h.42l1.41,.19c.42,.05,.95,.08,1.59,.08,.7,0,1.73-.05,3.08-.16h-.03c.46-.04,.93-.06,1.42-.08,.49-.02,1-.03,1.54-.03,2.11,0,3.75,.4,4.91,1.2,1.16,.8,1.73,1.92,1.73,3.38Zm-11.01,1.12c0,.76,.05,1.26,.15,1.5,.18,.13,.56,.19,1.14,.19h1.62c3.07,0,4.61-.88,4.61-2.64,0-1.6-1.24-2.4-3.71-2.4-1.9,0-3.03,.1-3.41,.3h.03c-.28,.16-.42,.64-.42,1.44v1.61Zm0,8.22c0,1,.13,1.59,.39,1.77,.2,.13,.56,.21,1.08,.26,.52,.05,1.23,.07,2.12,.07,3.25,0,4.88-1.1,4.88-3.29,0-2-1.56-2.99-4.67-2.99h-2.39c-.78,0-1.22,.13-1.32,.38-.06,.16-.09,.46-.09,.9v2.91Zm17.56-9.96c0-1.05-.33-1.58-.99-1.58-.14,0-.31,.02-.51,.05-.3,.05-.59,.08-.87,.08-.38,0-.7-.11-.97-.34-.27-.23-.4-.52-.4-.88,0-.85,.57-1.28,1.71-1.28h.18c.1,0,.2,0,.3,.03l2.3,.16c.52,.04,.9,.07,1.15,.1s.51,.03,.79,.01l6.94-.19c.1,0,.59-.03,1.47-.08h-.03c.16-.02,.31-.03,.45-.03h.42c1.34,0,2,.53,2,1.58,0,.05-.01,.2-.03,.45-.02,.24-.05,.55-.09,.91-.04,.25-.07,.52-.07,.79-.01,.27-.01,.51-.01,.71,0,.29,0,.54,.01,.75,0,.21,.02,.37,.04,.48,.04,.25,.07,.48,.09,.68,.02,.2,.03,.37,.03,.52,0,.89-.51,1.33-1.53,1.33s-1.53-.58-1.53-1.74v-1.36c0-1.31-.24-2.05-.72-2.23h.03c-.5-.18-1.73-.27-3.68-.27-1.24,0-2,.03-2.3,.08-.58,.18-.87,.58-.87,1.2v1.8c-.02,.13-.03,.23-.03,.31v.5c0,.49,.04,.77,.12,.84,.2,.04,.4,.05,.6,.05h1.2c.86,0,1.3-.24,1.32-.71-.02-.04-.03-.14-.04-.33-.01-.18-.03-.34-.04-.46v.03c-.06-.33-.09-.66-.09-1.01,0-.93,.51-1.39,1.53-1.39s1.53,.49,1.53,1.47c0,.09-.01,.28-.04,.57-.03,.29-.08,.66-.16,1.12-.12,.8-.18,1.49-.18,2.07,0,.16,0,.4,.03,.72,.02,.32,.05,.69,.09,1.1l.15,.87c.06,.38,.09,.71,.09,.98,0,.87-.51,1.31-1.53,1.31s-1.5-.49-1.5-1.47c0-.09,0-.22,.01-.38s.03-.32,.04-.46c0-.07,0-.17,.01-.3,.01-.13,.02-.24,.03-.34,.01-.1,.02-.17,.03-.22,.01-.05,.01-.03,.01,.04,0-.51-.38-.76-1.14-.76h-1.32c-.34,0-.54,.06-.61,.19-.07,.13-.1,.4-.1,.82v2.11c0,.17,0,.38,.03,.61,.02,.29,.03,.53,.03,.72v.42c.02,.64,.11,.99,.27,1.06,.1,.07,.5,.11,1.2,.11h3.92c.94,0,1.58-.13,1.93-.39,.35-.26,.52-.74,.52-1.43v-.33c0-.13-.01-.27-.03-.44,0-.05,0-.11-.01-.18-.01-.06-.01-.12-.01-.18-.02-.22-.03-.44-.03-.67v-.53c0-1.03,.51-1.55,1.53-1.55s1.59,.53,1.59,1.58v.41c0,.16-.01,.34-.03,.54,0,.05,0,.13-.01,.23-.01,.1-.01,.19-.01,.26,0,.09,0,.18-.01,.27-.01,.09-.01,.18-.01,.27-.02,.2-.03,.37-.03,.52v.82c0,.18,.01,.4,.03,.65,0,.07,0,.13,.01,.18,.01,.05,.01,.09,.01,.12,.02,.15,.03,.29,.03,.42v.34c0,1.07-.6,1.61-1.79,1.61h-.33c-.14,0-.26,0-.36-.03-.06,0-.13,0-.19-.01-.07,0-.14-.01-.2-.01-.36-.05-.69-.09-.99-.1-.3,0-.6-.01-.91-.01s-.64,0-1,.01c-.36,0-.77,.01-1.23,.01-.68-.02-1.31-.03-1.9-.04-.59,0-1.13-.01-1.63-.01-1.8,0-3.56,.05-5.3,.16-.08,0-.14,0-.18,.03h-.24c-1.14,0-1.71-.44-1.71-1.31,0-.8,.46-1.2,1.38-1.2,.02,0,.05,0,.09,.01,.04,0,.1,.01,.18,.01,.06,0,.14,0,.24,.01,.1,0,.2,.01,.3,.01,.1,.02,.2,.03,.3,.04,.1,0,.19,.01,.27,.01,.66,0,.99-.53,.99-1.58v-10.48Zm29.92,8.57c-.08-.18-.15-.29-.22-.34-.07-.05-.21-.07-.43-.07h-5.12c-.24,0-.4,.05-.49,.15-.09,.1-.22,.37-.4,.8l-.84,2.04c-.06,.15-.09,.27-.09,.38,0,.33,.21,.49,.63,.49,.08,0,.19,0,.33-.01,.14,0,.29-.02,.45-.04,.16-.02,.31-.03,.45-.04,.14,0,.27-.01,.39-.01,1.12,0,1.68,.43,1.68,1.28s-.6,1.23-1.8,1.23c-.08,0-.17,0-.27-.01-.1,0-.2-.02-.3-.04h-.12l-1.44-.19c-.12-.02-.3-.03-.54-.04-.24,0-.48-.01-.72-.01-.28,0-.54,0-.79,.01-.25,0-.43,.02-.55,.04l-1.2,.16c-.26,.04-.49,.06-.7,.08-.21,.02-.39,.03-.55,.03-1.08,0-1.62-.41-1.62-1.23s.53-1.28,1.59-1.28c.1,0,.17,0,.22-.01,.05,0,.12,0,.22,.04h.27c.32,0,.57-.13,.75-.38,.12-.15,.3-.54,.54-1.17l5.36-13.15c.36-.89,1.12-1.33,2.27-1.33s1.86,.44,2.21,1.33l5.15,12.96c.28,.71,.52,1.18,.73,1.43,.21,.24,.48,.37,.82,.37,.14,0,.24,0,.3-.03,.14,0,.25,0,.34-.01,.09,0,.17-.01,.25-.01s.15,0,.21-.03c1.1,0,1.65,.4,1.65,1.2s-.53,1.25-1.59,1.25h-.34c-.13,0-.24,0-.34-.03-.04,0-.08,0-.12-.01-.04,0-.07-.01-.09-.01-.6-.07-1.12-.12-1.56-.15-.44-.03-.8-.04-1.08-.04-.34,0-.79,.02-1.36,.05-.57,.04-1.25,.09-2.05,.16-.04,0-.08,0-.13,.01-.05,0-.1,.01-.13,.01-.12,.02-.24,.03-.37,.03h-.31c-1.1,0-1.65-.42-1.65-1.25s.59-1.25,1.77-1.25c.1,0,.22,0,.36,.01,.14,0,.29,.02,.45,.04,.14,.02,.28,.03,.42,.04,.14,0,.24,.01,.3,.01,.3,0,.45-.12,.45-.35,0-.02-.01-.05-.03-.11-.02-.05-.05-.13-.09-.22l-.09-.25v.03l-1.02-2.56Zm-5.39-2.78s-.02-.05-.06-.08h.09s-.03,.05-.03,.08Zm-.03,.11s0-.07,.01-.1c0-.03,.01-.02,.01,.01-.02,.02-.03,.04-.03,.05v.03Zm.03,.03s-.03,0-.03-.03l.03,.03Zm2.21-6.1c-.38,.98-.75,1.96-1.12,2.94s-.72,1.96-1.06,2.94h4.28v-.05l-2.09-5.83Zm2.15,6.02s-.03-.04-.03-.05-.01-.05-.03-.08h.18c-.08,.04-.12,.08-.12,.14Zm15.02-3.59l-.12,2.1v4c0,1.22,.13,2.05,.39,2.5,.28,.49,.76,.87,1.44,1.14,.34,.11,.7,.2,1.08,.29,.38,.08,.75,.12,1.11,.12,.96,0,1.76-.16,2.41-.48,.65-.32,1.07-.74,1.27-1.27,.1-.31,.17-.65,.22-1.02,.05-.37,.08-.79,.1-1.27,0-1.12,.01-2.25,.03-3.36,.02-1.12,.03-2.24,.03-3.36,0-.65,0-1.16-.01-1.51-.01-.35-.03-.58-.05-.67-.16-.69-.48-1.03-.96-1.03-.1,0-.2,0-.3,.03-.04,0-.07,0-.1,.01-.03,0-.07,.01-.1,.01-.16,.04-.32,.06-.48,.07-.16,0-.29,.01-.39,.01-.36,0-.68-.13-.97-.38-.29-.25-.43-.54-.43-.84,0-.87,.59-1.31,1.77-1.31h.27c.08,0,.15,0,.21,.03l1.68,.22c.42,.05,.88,.08,1.38,.08,.46,0,.86-.03,1.2-.08l1.26-.19c.3-.05,.56-.08,.78-.08,1.12,0,1.67,.42,1.67,1.25s-.55,1.25-1.65,1.25h-.51s-.08-.03-.12-.03c-.32,0-.52,.16-.6,.49-.12,.47-.18,1.79-.18,3.95v4.57c0,.56,0,1.06-.01,1.5-.01,.44-.03,.78-.07,1.03-.18,.87-.54,1.68-1.08,2.42-1.24,1.62-3.31,2.42-6.22,2.42-3.63,0-5.95-1.07-6.97-3.21h.03c-.2-.34-.34-.77-.42-1.27-.08-.5-.12-1.08-.12-1.73s.03-1.57,.09-2.8c.06-1.22,.09-2.14,.09-2.78v-1.39c0-1.29-.01-1.98-.03-2.07-.12-.76-.33-1.14-.63-1.14h-.21c-.1,.04-.2,.05-.31,.05h-.31c-1.14,0-1.71-.42-1.71-1.25s.53-1.25,1.59-1.25c.36,0,.72,.03,1.08,.08,.46,.07,.9,.13,1.32,.16,.42,.04,.82,.05,1.2,.05,.82,0,1.73-.08,2.75-.25,.12-.02,.25-.03,.39-.04,.14,0,.29-.01,.45-.01,1.12,0,1.68,.42,1.68,1.25s-.5,1.25-1.5,1.25c-.12,0-.24,0-.36-.01-.12,0-.25-.02-.39-.04-.12-.02-.27-.03-.45-.04-.18,0-.26-.02-.24-.04-.34,.02-.58,.23-.72,.63-.04,.11-.07,.29-.09,.54-.02,.25-.04,.57-.06,.95l-.06,1.71Zm25.58,8.25c0,1.05,.33,1.58,.99,1.58,.04,0,.12,0,.25-.01,.13,0,.25-.02,.37-.04,.14,0,.31,0,.51-.03,.2-.02,.28-.03,.24-.03,.38,0,.71,.12,.99,.37,.28,.25,.42,.52,.42,.83,0,.85-.59,1.28-1.77,1.28h-.24c-.06-.02-.13-.03-.21-.03l-1.44-.19c-.28-.04-.56-.06-.84-.08-.28-.02-.57-.03-.87-.03-.34,0-.67,0-.99,.03-.32,.02-.62,.05-.9,.08l-1.44,.19c-.08,0-.14,0-.18,.03h-.27c-1.18,0-1.77-.43-1.77-1.28,0-.8,.47-1.2,1.41-1.2-.04,0,.04,0,.25,.03,.21,.02,.37,.03,.49,.03,.14,.02,.27,.03,.39,.04,.12,0,.2,.01,.24,.01,.64,0,.96-.53,.96-1.58v-1.82l.03-2.31v-2.2l-.03-4.27c0-1-.54-1.5-1.62-1.5h-.87c-1.06,0-1.59,.49-1.59,1.47v.53c0,.14,0,.25,.03,.34l.12,.93c.02,.09,.03,.2,.03,.33v.38c0,1.34-.54,2.01-1.62,2.01s-1.56-.52-1.56-1.55v-.33c0-.14,0-.28,.03-.41,0-.05,0-.12,.01-.2,0-.08,.01-.17,.01-.26,.06-.82,.09-1.34,.09-1.58,0-.2,0-.41-.01-.63-.01-.22-.03-.45-.04-.71l-.09-.79c-.02-.11-.02-.16,0-.16,.02,0,0-.08-.03-.24,0-.98,.53-1.47,1.59-1.47,.12,0,.34,0,.67,.01,.33,0,.73,.03,1.21,.07h.24c.18,0,.44,0,.79,.01,.35,0,.78,.02,1.3,.04,.54,0,1.08,0,1.63,.03,.55,.02,1.09,.03,1.63,.03,.1,0,.25,0,.45-.01,.2,0,.44-.01,.72-.01,.24,0,.52,0,.84-.01,.32,0,.68-.01,1.08-.01,.34,0,.96-.03,1.86-.08,.34-.04,.68-.06,1.02-.07,.34,0,.62-.01,.84-.01,1.28,0,1.91,.5,1.91,1.5,0,.18-.03,.51-.07,.99-.05,.48-.09,.98-.13,1.51v.75c0,.21,.02,.45,.06,.72,.04,.36,.07,.66,.09,.9,.02,.24,.03,.4,.03,.49,0,.94-.54,1.42-1.62,1.42s-1.56-.55-1.56-1.66c0-.31,.03-.78,.09-1.42,.02-.31,.03-.58,.04-.82,.01-.24,.01-.43,.01-.57,0-.96-.59-1.44-1.77-1.44h-.81c-.52,0-.9,.12-1.14,.35-.24,.24-.38,.59-.42,1.06l-.09,1.82-.03,8.87Zm12.06-10.51c0-1.05-.33-1.58-.99-1.58-.18,0-.35,.02-.51,.05-.34,.05-.63,.08-.87,.08-.38,0-.7-.11-.97-.34-.27-.23-.4-.52-.4-.88,0-.85,.58-1.28,1.74-1.28h.24c.1,0,.19,0,.27,.03l1.5,.19c.28,.04,.56,.06,.85,.08,.29,.02,.57,.03,.85,.03,.26,0,.55-.01,.88-.04s.66-.06,1-.1l1.29-.16c.08-.02,.17-.03,.25-.03h.22c1.18,0,1.77,.43,1.77,1.28,0,.36-.14,.66-.42,.88-.28,.23-.6,.34-.96,.34-.28,0-.57-.03-.87-.08-.2-.04-.38-.05-.54-.05-.64,0-.96,.53-.96,1.58v10.48c0,1.05,.32,1.58,.96,1.58h.13s.12,0,.22-.03h.18c.36-.05,.65-.08,.87-.08,.92,0,1.38,.4,1.38,1.2,0,.87-.59,1.31-1.77,1.31h-.27s-.1-.03-.18-.03l-1.53-.22c-.26-.04-.51-.06-.76-.08-.25-.02-.49-.03-.73-.03-.4,0-.77,.01-1.11,.04s-.67,.06-.99,.1l-1.32,.19c-.08,0-.15,0-.21,.03h-.3c-1.14,0-1.71-.44-1.71-1.31,0-.8,.46-1.2,1.38-1.2,.02,0,.05,0,.09,.01,.04,0,.09,.01,.15,.01s.14,0,.24,.01c.1,0,.21,.01,.33,.01,.1,.02,.19,.03,.28,.04,.09,0,.18,.01,.28,.01,.66,0,.99-.53,.99-1.58v-10.48Zm11.46,6.34v-2.18l-.03-4.17c0-1.05-.33-1.58-.99-1.58-.12,0-.28,.02-.48,.05-.34,.05-.62,.08-.84,.08-.38,0-.7-.11-.97-.34-.27-.23-.4-.52-.4-.88,0-.85,.57-1.28,1.71-1.28h.19c.09,0,.18,0,.28,.03l1.94,.19c.38,.04,.77,.06,1.18,.08,.41,.02,.84,.03,1.3,.03,.5,0,1.56-.03,3.17-.08l3.35-.11h-.03l1.53-.08c.1-.02,.23-.03,.4-.03h.49c1.36,0,2.03,.54,2.03,1.61,0,.18-.01,.39-.04,.63-.03,.24-.07,.52-.1,.84-.04,.33-.07,.61-.1,.84-.03,.24-.04,.43-.04,.57s0,.29,.01,.44c0,.15,.02,.32,.04,.52,.02,.2,.03,.41,.04,.63,0,.22,.01,.43,.01,.63,0,.96-.51,1.44-1.53,1.44s-1.56-.54-1.56-1.61v-.48c0-.19,0-.41,.03-.67,0-.05,0-.11,.01-.18,0-.06,.01-.11,.01-.15,.02-.16,.03-.31,.03-.45v-.34c0-.78-.19-1.24-.57-1.39-.58-.24-1.88-.35-3.89-.35-1.62,0-2.52,.11-2.72,.33-.12,.15-.18,.86-.18,2.15v1.93c0,.31,.05,.5,.15,.59,.1,.08,.36,.12,.78,.12h.96c.92,0,1.38-.29,1.38-.87,0-.11-.01-.23-.03-.37-.02-.14-.04-.28-.06-.42-.02-.14-.03-.29-.04-.42-.01-.14-.01-.25-.01-.34,0-.91,.51-1.36,1.53-1.36s1.47,.51,1.47,1.52v.15c0,.06-.01,.13-.03,.2,0,.04,0,.08-.01,.14s-.01,.12-.01,.19l-.18,1.42c-.04,.31-.07,.57-.09,.79-.02,.22-.03,.4-.03,.54,0,.69,.09,1.58,.27,2.67,.06,.38,.09,.75,.09,1.12,0,.93-.51,1.39-1.53,1.39s-1.47-.49-1.47-1.47v-.35c0-.14,.01-.3,.03-.46,.02-.16,.03-.31,.04-.44,.01-.13,.01-.24,.01-.33,0-.4-.11-.65-.33-.76-.1-.07-.43-.11-.99-.11h-.9c-.52,0-.82,.04-.9,.11-.06,.05-.09,.35-.09,.9v3.1c0,.69,.06,1.15,.19,1.39s.38,.35,.76,.35h.21c.1,0,.22,0,.36-.03,.14,0,.27,0,.39-.01,.12,0,.22-.01,.3-.01,1.22,0,1.83,.42,1.83,1.25,0,.36-.15,.66-.45,.9-.3,.24-.66,.35-1.08,.35-.22,0-.44-.01-.66-.04-.22-.03-.48-.06-.78-.1-.42-.07-.86-.12-1.33-.15-.47-.03-.95-.04-1.45-.04-.66,0-1.38,.05-2.15,.16l-.99,.14c-.08,0-.15,0-.21,.03h-.21c-1.18,0-1.77-.44-1.77-1.31,0-.8,.46-1.2,1.38-1.2,.02,0,.05,0,.09,.01,.04,0,.09,.01,.15,.01h.22c.09,0,.19,0,.31,.03,.1,.02,.2,.03,.3,.04,.1,0,.19,.01,.27,.01,.34,0,.57-.11,.7-.34,.13-.23,.2-.64,.22-1.24l.06-4.14Zm21.15-4.08l-.12,2.1v4c0,1.22,.13,2.05,.39,2.5,.28,.49,.76,.87,1.44,1.14,.34,.11,.7,.2,1.08,.29,.38,.08,.75,.12,1.11,.12,.96,0,1.76-.16,2.41-.48,.65-.32,1.07-.74,1.27-1.27,.1-.31,.17-.65,.22-1.02,.05-.37,.08-.79,.1-1.27,0-1.12,.01-2.25,.03-3.36,.02-1.12,.03-2.24,.03-3.36,0-.65,0-1.16-.01-1.51-.01-.35-.03-.58-.05-.67-.16-.69-.48-1.03-.96-1.03-.1,0-.2,0-.3,.03-.04,0-.07,0-.1,.01-.03,0-.07,.01-.1,.01-.16,.04-.32,.06-.48,.07-.16,0-.29,.01-.39,.01-.36,0-.68-.13-.97-.38-.29-.25-.43-.54-.43-.84,0-.87,.59-1.31,1.77-1.31h.27c.08,0,.15,0,.21,.03l1.68,.22c.42,.05,.88,.08,1.38,.08,.46,0,.86-.03,1.2-.08l1.26-.19c.3-.05,.56-.08,.78-.08,1.12,0,1.67,.42,1.67,1.25s-.55,1.25-1.65,1.25h-.51s-.08-.03-.12-.03c-.32,0-.52,.16-.6,.49-.12,.47-.18,1.79-.18,3.95v4.57c0,.56,0,1.06-.01,1.5-.01,.44-.03,.78-.07,1.03-.18,.87-.54,1.68-1.08,2.42-1.24,1.62-3.31,2.42-6.22,2.42-3.63,0-5.95-1.07-6.97-3.21h.03c-.2-.34-.34-.77-.42-1.27-.08-.5-.12-1.08-.12-1.73s.03-1.57,.09-2.8c.06-1.22,.09-2.14,.09-2.78v-1.39c0-1.29-.01-1.98-.03-2.07-.12-.76-.33-1.14-.63-1.14h-.21c-.1,.04-.2,.05-.31,.05h-.31c-1.14,0-1.71-.42-1.71-1.25s.53-1.25,1.59-1.25c.36,0,.72,.03,1.08,.08,.46,.07,.9,.13,1.32,.16,.42,.04,.82,.05,1.2,.05,.82,0,1.73-.08,2.75-.25,.12-.02,.25-.03,.39-.04,.14,0,.29-.01,.45-.01,1.12,0,1.68,.42,1.68,1.25s-.5,1.25-1.5,1.25c-.12,0-.24,0-.36-.01-.12,0-.25-.02-.39-.04-.12-.02-.27-.03-.45-.04-.18,0-.26-.02-.24-.04-.34,.02-.58,.23-.72,.63-.04,.11-.07,.29-.09,.54-.02,.25-.04,.57-.06,.95l-.06,1.71Zm22.02,7.92c0,.98,.06,1.51,.18,1.58,.1,.11,.23,.17,.39,.19,.16,.02,.4,.03,.72,.04,.32,0,.7,.01,1.14,.01h2.51c1.22,0,1.99-.14,2.33-.41,.32-.24,.48-.79,.48-1.66v-.9c-.02-.16-.03-.32-.03-.46v-.38c0-.09,0-.17-.01-.25-.01-.07-.01-.13-.01-.16,0-1.02,.5-1.52,1.5-1.52,1.12,0,1.67,.47,1.67,1.42,0,.29-.01,.48-.03,.57l-.21,1.31c-.02,.2-.03,.39-.04,.59-.01,.19-.01,.39-.01,.59v.27c0,.11,.01,.24,.03,.38,0,.07,0,.14,.01,.19,.01,.05,.01,.12,.01,.19,.02,.22,.03,.43,.04,.64,.01,.21,.01,.37,.01,.48,0,1.03-.65,1.55-1.94,1.55-.06,0-.13,0-.21-.01-.08,0-.2-.01-.36-.01-.1,0-.22,0-.36-.01-.14,0-.29-.01-.45-.01-.14-.02-.29-.03-.45-.03h-.57c-.16,0-.32,0-.49-.01-.17,0-.35-.01-.55-.01l-2.15-.03h-5.21c-.24,0-.51,0-.81,.03-.12,0-.25,0-.4,.01-.15,0-.3,.01-.46,.01-.06,0-.15,0-.28,.01-.13,0-.27,.02-.4,.04-.18,.02-.35,.03-.52,.04-.17,0-.32,.01-.46,.01-1.14,0-1.71-.44-1.71-1.31,0-.8,.46-1.2,1.38-1.2-.04,0,.04,0,.25,.03,.21,.02,.37,.04,.49,.05,.14,0,.27,0,.39,.01,.12,0,.2,.01,.24,.01,.66,0,.99-.53,.99-1.58v-10.48c0-1.05-.33-1.58-.99-1.58-.14,0-.31,.02-.51,.05-.3,.05-.59,.08-.87,.08-.38,0-.7-.11-.97-.34-.27-.23-.4-.52-.4-.88,0-.85,.58-1.28,1.74-1.28h.24c.08,0,.17,0,.27,.03h-.03l1.53,.16c.4,.04,.76,.07,1.08,.1,.32,.03,.56,.04,.72,.04,.22,0,.48-.01,.79-.04s.64-.06,1-.1l1.32-.16h-.03c.08-.02,.17-.03,.25-.03h.22c1.18,0,1.77,.43,1.77,1.28,0,.36-.13,.66-.4,.88-.27,.23-.59,.34-.97,.34-.26,0-.55-.03-.87-.08-.08-.02-.16-.03-.24-.04-.08,0-.17-.01-.27-.01-.66,0-.99,.53-.99,1.58v10.18Z" style="fill: #e700ce;"/>
    <path id="kind" d="M395.86,118.18v-13.67h1.25v8.51l5.3-4.67h1.71l-4.05,3.55,4.53,6.29h-1.4l-4.05-5.49-2.05,1.77v3.72h-1.25Zm10.65-11.98v-1.69h1.38v1.69h-1.38Zm.06,11.98v-9.84h1.25v9.84h-1.25Zm5.7,0h-1.25v-9.84h1.25v1.37c.5-.48,1.02-.87,1.56-1.18,.54-.3,1.18-.46,1.93-.46,.67,0,1.29,.1,1.86,.31s1.05,.57,1.44,1.09c.26,.35,.42,.72,.47,1.09,.05,.37,.07,.76,.07,1.17v6.44h-1.25v-6.42c0-.89-.22-1.55-.65-1.99-.43-.44-1.15-.66-2.15-.66-.39,0-.74,.05-1.06,.16s-.61,.25-.87,.43c-.26,.18-.48,.38-.66,.61-.18,.23-.32,.47-.42,.72-.13,.32-.2,.62-.23,.91-.03,.29-.04,.61-.04,.95v5.3Zm18.7-13.67h1.25v13.67h-1.25v-1.73h-.04c-.18,.33-.41,.62-.7,.86-.29,.25-.6,.45-.94,.62-.34,.16-.69,.29-1.05,.38-.36,.09-.72,.13-1.06,.13-.88,0-1.62-.13-2.23-.4-.61-.27-1.12-.63-1.51-1.09-.4-.46-.69-1.01-.87-1.64-.18-.63-.27-1.31-.27-2.03,0-.68,.1-1.34,.29-1.97s.49-1.19,.89-1.66,.9-.85,1.5-1.14c.61-.28,1.32-.43,2.14-.43,.77,0,1.5,.16,2.2,.47,.7,.31,1.26,.77,1.66,1.38v-5.41Zm0,8.72c0-.56-.08-1.09-.25-1.59s-.41-.94-.72-1.31c-.31-.37-.7-.67-1.15-.89-.45-.22-.96-.33-1.53-.33-.65,0-1.22,.12-1.69,.35-.47,.23-.86,.55-1.17,.96-.31,.41-.53,.88-.67,1.41-.14,.54-.2,1.12-.17,1.74,0,.62,.09,1.17,.28,1.64,.19,.47,.45,.88,.78,1.21,.33,.33,.72,.58,1.17,.75,.45,.17,.93,.26,1.46,.26,.58,0,1.11-.11,1.57-.32,.46-.22,.84-.51,1.15-.88,.31-.37,.54-.82,.7-1.33,.16-.51,.24-1.07,.24-1.66Zm14.51,5.22c-.7-.01-1.35-.13-1.95-.34s-1.13-.54-1.59-.97c-.45-.43-.81-.97-1.07-1.61s-.4-1.4-.4-2.26c0-.72,.1-1.4,.31-2.02,.21-.63,.52-1.17,.94-1.64,.42-.47,.94-.84,1.57-1.11,.63-.27,1.36-.41,2.19-.41s1.59,.14,2.21,.41c.63,.27,1.15,.64,1.57,1.1,.42,.46,.73,1.01,.93,1.64,.2,.63,.3,1.31,.3,2.03,0,.79-.12,1.49-.35,2.13-.24,.63-.57,1.18-1.01,1.63-.44,.46-.97,.81-1.59,1.05s-1.3,.37-2.06,.37Zm3.67-5.18c0-.58-.07-1.13-.21-1.63-.14-.51-.36-.95-.65-1.32-.29-.37-.67-.67-1.13-.88-.46-.22-1.02-.32-1.69-.32s-1.21,.12-1.68,.35c-.47,.23-.85,.54-1.14,.93-.29,.39-.51,.83-.65,1.33-.14,.5-.21,1.02-.21,1.55,0,.61,.08,1.17,.24,1.68,.16,.51,.39,.95,.7,1.32,.31,.37,.69,.65,1.15,.85,.46,.2,.99,.3,1.59,.3,.65,0,1.21-.12,1.68-.35s.85-.55,1.14-.94c.29-.39,.51-.84,.65-1.33,.14-.49,.21-1.01,.21-1.54Zm2.55-3.97v-.95h1.61v-1.56c0-.78,.17-1.41,.52-1.86,.35-.46,.94-.68,1.77-.68,.2,0,.38,0,.54,.02,.17,.01,.33,.03,.5,.06v1.04c-.28-.06-.53-.09-.75-.09-.32,0-.57,.05-.75,.16-.18,.11-.31,.25-.4,.43-.08,.18-.14,.38-.16,.6-.02,.22-.03,.45-.03,.67v1.22h2.09v.95h-2.09v8.89h-1.25v-8.89h-1.61Z" style="fill: #0008e7;"/>
    <path id="way" d="M349.07,90.83c-.86-.29-1.25-.8-1.18-1.54-.82,.54-1.8,.61-2.94,.24-.85-.28-1.45-.7-1.8-1.25-.35-.55-.4-1.14-.15-1.78,.32-.79,.92-1.25,1.81-1.37,.34-.05,.62-.06,.84-.04,.22,.02,.65,.11,1.3,.25,.91,.21,1.53,.28,1.86,.21s.57-.3,.74-.71c.16-.39,.13-.75-.08-1.07-.21-.32-.58-.57-1.11-.75-.47-.16-.96-.18-1.46-.08-.19,.04-.31,.12-.35,.22-.01,.04,.01,.1,.08,.19,.11,.14,.12,.33,.02,.56-.08,.19-.21,.32-.42,.4-.2,.07-.42,.07-.65,0-.27-.09-.47-.25-.58-.48-.11-.23-.12-.47-.02-.72,.21-.53,.69-.89,1.42-1.08,.73-.19,1.51-.14,2.34,.13,1.9,.63,2.52,1.78,1.85,3.44l-1.16,2.88c-.18,.46-.28,.73-.29,.82-.07,.35,.04,.58,.33,.68,.37,.12,.67-.12,.91-.72l.28-.69c.12-.3,.34-.4,.66-.29,.34,.11,.42,.4,.23,.85l-.03,.07-.33,.81c-.39,.91-1.11,1.19-2.15,.84Zm-.6-3.42l.41-1.01c-.31,.11-.6,.17-.89,.16-.29,0-.77-.09-1.45-.26-1.23-.29-1.98-.09-2.26,.61-.15,.36-.12,.69,.09,1,.2,.3,.55,.54,1.04,.7,.7,.23,1.32,.24,1.86,.03,.54-.21,.94-.62,1.2-1.23Zm10.96,.82l-.6,4.73,3.24-4.62c.34-.49,.62-.8,.84-.92,.22-.13,.49-.14,.8-.03,.32,.11,.52,.28,.6,.51,.08,.23,.08,.63,0,1.19l-.84,5.41,2.91-3.96c.18-.25,.32-.48,.4-.68v-.03c.11-.26,.05-.43-.19-.51-.09-.03-.24-.06-.43-.09-.19-.03-.33-.05-.43-.09-.39-.13-.52-.35-.39-.66,.13-.33,.46-.41,.97-.24,.07,.02,.15,.06,.23,.09l.61,.29c.16,.08,.42,.17,.77,.29,.28,.09,.56,.17,.84,.22l.54,.11s.11,.02,.18,.04c.45,.15,.61,.39,.48,.72-.13,.32-.36,.42-.71,.31-.11-.04-.2-.08-.25-.14-.15-.09-.24-.14-.26-.14-.28-.09-.79,.34-1.52,1.3l-2.55,3.34c-.31,.41-.58,.67-.82,.79-.24,.12-.5,.13-.8,.04-.55-.18-.77-.71-.63-1.57l.87-5.47-3.23,4.57c-.31,.44-.59,.72-.84,.86-.26,.13-.54,.15-.84,.05-.49-.16-.7-.57-.63-1.22l.56-5.65c.03-.34-.06-.54-.25-.6-.06-.02-.17-.03-.31-.03-.18-.03-.3-.05-.36-.08-.35-.11-.46-.33-.33-.63,.14-.34,.44-.43,.91-.27,.08,.03,.14,.05,.17,.07l.64,.32c.14,.07,.33,.14,.57,.23,.29,.1,.64,.19,1.03,.27,.49,.1,.77,.17,.85,.19,.46,.15,.62,.39,.49,.72-.13,.32-.38,.41-.77,.28-.07-.02-.2-.08-.38-.16-.12-.09-.24-.16-.36-.2-.27-.09-.47,0-.58,.29-.08,.19-.13,.44-.17,.74Zm14.96,11.03c-.86-.29-1.25-.8-1.18-1.54-.82,.54-1.8,.61-2.94,.24-.85-.28-1.45-.7-1.8-1.25-.35-.55-.4-1.14-.15-1.78,.32-.79,.92-1.25,1.81-1.37,.34-.05,.62-.06,.84-.04,.22,.02,.65,.11,1.3,.25,.91,.21,1.53,.28,1.86,.21,.33-.06,.57-.3,.74-.71,.16-.39,.13-.75-.08-1.07-.21-.32-.58-.57-1.11-.75-.47-.16-.96-.18-1.46-.08-.19,.04-.31,.12-.36,.22-.01,.04,.01,.1,.08,.19,.11,.14,.12,.33,.02,.56-.08,.19-.22,.32-.42,.4-.2,.07-.42,.07-.65,0-.27-.09-.46-.25-.58-.48s-.12-.47-.02-.72c.21-.53,.69-.89,1.42-1.08,.73-.19,1.51-.14,2.34,.13,1.9,.63,2.52,1.78,1.85,3.44l-1.16,2.88c-.18,.46-.28,.73-.29,.82-.07,.35,.04,.58,.33,.68,.37,.12,.67-.12,.91-.72l.28-.69c.12-.3,.34-.4,.66-.29,.34,.11,.42,.4,.23,.85l-.03,.07-.33,.81c-.39,.91-1.1,1.19-2.15,.84Zm-.6-3.42l.41-1.01c-.31,.11-.6,.17-.89,.16-.29,0-.77-.09-1.45-.26-1.23-.29-1.98-.09-2.26,.61-.15,.36-.12,.69,.09,1,.2,.3,.55,.54,1.04,.7,.7,.23,1.32,.24,1.86,.03,.54-.21,.94-.62,1.2-1.23Zm7.24-1.12l-.13,5.42,3.82-4.11c.11-.12,.17-.21,.2-.29,.07-.16-.02-.28-.26-.36-.13-.04-.23-.07-.31-.07-.18-.04-.29-.06-.34-.08-.35-.11-.46-.32-.33-.63,.13-.32,.42-.41,.87-.26,.06,.02,.16,.06,.3,.13l.54,.26c.14,.07,.29,.13,.46,.18,.18,.06,.45,.13,.81,.2,.36,.07,.63,.14,.81,.2,.45,.15,.61,.38,.48,.7-.13,.31-.36,.41-.7,.29-.1-.04-.18-.07-.22-.11-.13-.07-.21-.12-.27-.14-.2-.07-.5,.11-.9,.52l-4.08,4.14c-.9,.92-1.66,1.55-2.27,1.9-1.04,.59-2.1,.71-3.16,.35-.64-.21-1.11-.54-1.43-.98-.32-.44-.39-.87-.22-1.29,.12-.3,.31-.5,.57-.63,.26-.12,.55-.13,.85-.03,.24,.08,.41,.21,.52,.39,.1,.18,.12,.37,.04,.56-.12,.3-.35,.45-.69,.43,.07,.26,.33,.47,.77,.61,.55,.18,1.13,.16,1.72-.07s.99-.57,1.17-1.04c.1-.24,.13-.73,.11-1.47l-.13-4.54v-.52c-.01-.49-.13-.77-.36-.85-.06-.02-.18-.05-.35-.08-.17-.03-.28-.05-.34-.07-.37-.12-.49-.34-.37-.64,.13-.32,.43-.4,.92-.24,.16,.05,.27,.1,.35,.14l.6,.29s.05,.02,.13,.04c.07,.03,.13,.06,.18,.08,.38,.13,.79,.24,1.23,.34,.34,.08,.56,.13,.66,.17,.44,.15,.6,.38,.47,.69-.13,.31-.39,.4-.79,.27-.06-.02-.16-.06-.29-.13-.13-.06-.22-.11-.29-.13-.15-.05-.25,0-.3,.13-.03,.08-.05,.18-.05,.31Z"/>
    <path id="theres" d="M250.8,90.19c-.2,.04-.47,.1-.81,.18-.33,.09-.7,.13-1.11,.13-.84,0-1.47-.18-1.91-.56-.44-.38-.66-1.06-.67-2.03l-.07-9.6h-2.03v-1.25h2.02l-.03-3.66h1.67l.03,3.64,2.7-.02v1.27l-2.69,.02,.07,8.99c0,.32,.01,.6,.03,.84,.02,.24,.08,.43,.17,.58,.09,.15,.24,.26,.43,.33,.2,.07,.47,.1,.82,.1,.22,0,.45-.02,.68-.06,.23-.03,.46-.08,.68-.13v1.24Zm2.68-.07l-.14-18.23h1.67l.05,6.93c.66-.65,1.35-1.17,2.06-1.58,.71-.41,1.57-.62,2.57-.62,.89,0,1.72,.13,2.48,.4,.76,.27,1.41,.76,1.93,1.44,.36,.47,.57,.95,.64,1.45,.07,.5,.11,1.02,.11,1.56l.07,8.58h-1.67l-.07-8.55c0-1.18-.3-2.07-.88-2.65-.58-.59-1.54-.88-2.87-.87-.52,0-.99,.08-1.42,.22-.43,.15-.81,.34-1.15,.58-.34,.24-.63,.51-.87,.82-.24,.31-.42,.63-.55,.97-.16,.42-.26,.83-.3,1.22-.03,.39-.05,.81-.05,1.27l.05,7.07h-1.67Zm16.46-6.3c0,.71,.11,1.38,.32,2.01,.21,.63,.51,1.18,.92,1.64,.4,.46,.91,.83,1.53,1.1,.61,.27,1.32,.41,2.12,.4,1.09,0,2.03-.27,2.8-.8,.78-.53,1.29-1.27,1.54-2.24h1.87c-.2,.61-.46,1.19-.79,1.73-.33,.53-.74,1-1.24,1.4-.5,.4-1.09,.71-1.77,.94s-1.48,.34-2.39,.34c-1.15,0-2.14-.16-2.98-.51s-1.53-.83-2.07-1.44c-.54-.61-.95-1.34-1.21-2.17-.27-.83-.4-1.73-.41-2.69,0-.96,.14-1.87,.44-2.71,.3-.85,.73-1.59,1.29-2.22,.56-.64,1.25-1.14,2.06-1.51,.81-.37,1.74-.56,2.78-.56,1.98-.01,3.55,.6,4.69,1.83,1.14,1.23,1.71,3.03,1.71,5.4l-11.19,.07Zm9.4-1.33c0-.64-.11-1.24-.31-1.81-.2-.56-.49-1.05-.87-1.46-.38-.41-.86-.74-1.44-.98-.58-.24-1.24-.36-1.98-.35-.74,0-1.39,.14-1.96,.39-.56,.26-1.04,.6-1.44,1.02-.4,.42-.71,.92-.95,1.47-.24,.56-.39,1.15-.46,1.78l9.41-.06Zm6.85,7.43h-1.67l-.1-13.11h1.67l.02,2.45h.06c.46-1.05,1.05-1.78,1.78-2.2s1.7-.63,2.9-.64v1.65c-.93-.01-1.71,.13-2.32,.42-.61,.29-1.09,.68-1.45,1.17-.36,.49-.6,1.07-.74,1.74-.13,.67-.2,1.36-.19,2.09l.05,6.43Zm8.5-6.26c0,.71,.11,1.38,.32,2.01,.21,.63,.51,1.18,.92,1.64,.4,.46,.91,.83,1.53,1.1,.61,.27,1.32,.41,2.12,.4,1.09,0,2.03-.27,2.8-.8,.78-.53,1.29-1.27,1.54-2.24h1.87c-.2,.61-.46,1.19-.79,1.73-.33,.53-.74,1-1.24,1.4-.5,.4-1.09,.71-1.77,.94-.68,.22-1.48,.34-2.39,.34-1.15,0-2.14-.16-2.98-.51-.84-.35-1.53-.83-2.07-1.44-.54-.61-.95-1.34-1.21-2.17-.27-.83-.4-1.73-.41-2.69,0-.96,.14-1.87,.44-2.71,.3-.85,.73-1.59,1.29-2.22,.56-.64,1.25-1.14,2.06-1.51,.81-.37,1.74-.56,2.78-.56,1.98-.01,3.55,.6,4.69,1.83,1.14,1.23,1.71,3.03,1.71,5.4l-11.19,.07Zm9.4-1.33c0-.64-.11-1.24-.31-1.81-.2-.56-.49-1.05-.87-1.46-.38-.41-.86-.74-1.44-.98-.58-.24-1.24-.36-1.98-.35-.74,0-1.39,.14-1.96,.39-.56,.26-1.04,.6-1.44,1.02-.4,.43-.71,.92-.95,1.47-.24,.56-.39,1.15-.46,1.78l9.41-.06Zm4.2-10.61h2.17l3.12,3.49h-1.42l-3.87-3.49Zm11.1,13.88c.27,1.13,.74,1.92,1.42,2.38,.68,.46,1.65,.69,2.91,.68,.61,0,1.14-.07,1.58-.21,.44-.14,.81-.32,1.1-.55,.29-.23,.5-.49,.65-.78,.15-.29,.22-.59,.22-.91,0-.64-.24-1.12-.69-1.43-.46-.31-1.03-.55-1.72-.72-.69-.17-1.43-.32-2.23-.44-.8-.12-1.54-.31-2.23-.56s-1.26-.61-1.72-1.08c-.46-.47-.69-1.14-.7-2,0-1.1,.43-2,1.3-2.71,.88-.71,2.12-1.06,3.74-1.07,1.56,0,2.83,.3,3.81,.93,.98,.63,1.58,1.68,1.79,3.17h-1.7c-.16-1-.58-1.71-1.28-2.12-.7-.41-1.58-.61-2.64-.6-1.06,0-1.86,.22-2.42,.64-.55,.42-.83,.96-.82,1.64,0,.59,.24,1.04,.69,1.35,.46,.31,1.03,.56,1.72,.75,.69,.19,1.43,.36,2.23,.51,.8,.15,1.54,.36,2.23,.63s1.26,.65,1.72,1.12c.46,.47,.69,1.13,.7,1.97,0,.62-.14,1.18-.43,1.66-.29,.48-.7,.89-1.21,1.21-.52,.32-1.13,.57-1.85,.73s-1.5,.25-2.35,.26c-.85,0-1.61-.1-2.27-.33-.66-.22-1.22-.54-1.69-.94-.47-.4-.83-.87-1.1-1.41-.26-.54-.42-1.12-.46-1.74h1.7Z"/>
    <path id="will" d="M155.38,39.19l8.77-.06,3.27,15.2,4.51-15.25,8.74-.06,4.75,15.17,3.04-15.22,8.73-.06-6.38,27.23-9.05,.06-5.37-17.09-5.09,17.15-9.05,.06-6.86-27.15Zm45.19-.29l9.25-.06,.21,27.19-9.25,.06-.21-27.19Zm15.88-.1l9.23-.06,.16,20.49,14.41-.09,.05,6.7-23.65,.15-.21-27.19Zm27.84-.18l9.23-.06,.16,20.49,14.41-.09,.05,6.7-23.65,.15-.21-27.19Zm-105.1-13.23v2.72h3.17v.74h-3.17v5.83c0,1.12,.38,1.98,1.61,1.98,.61,0,1.02-.08,1.32-.17l.13,.72c-.36,.13-.88,.25-1.54,.25-.79,0-1.44-.23-1.86-.68-.5-.51-.67-1.35-.67-2.2v-5.72h-1.84v-.74h1.84v-2.43l1.02-.29Zm5.64-1.77h1.02v6.32h.04c.31-.57,.86-1.12,1.54-1.48,.65-.36,1.44-.59,2.25-.59,.96,0,3.9,.38,3.9,4.14v5.2h-1.02v-5.17c0-1.77-.84-3.36-3.15-3.36-1.59,0-2.92,1.03-3.4,2.15-.13,.29-.17,.55-.17,.97v5.41h-1.02v-13.6Zm12.4,9.04c0,2.66,1.86,3.99,4.24,3.99,1.73,0,2.57-.3,3.21-.57l.27,.74c-.36,.15-1.48,.63-3.59,.63-3.11,0-5.13-1.92-5.13-4.56,0-3.1,2.17-5.01,5.01-5.01,3.72,0,4.36,3,4.36,4.22,0,.28,0,.42-.04,.57h-8.33Zm7.31-.74c.02-.95-.42-3.29-3.42-3.29-2.55,0-3.61,1.9-3.82,3.29h7.24Zm3.84-.87c0-.99-.02-1.96-.08-2.94h.94l.04,1.98h.06c.5-1.27,1.59-2.2,3.07-2.2,.17,0,.33,.02,.48,.06v.85c-.19-.04-.35-.04-.58-.04-1.4,0-2.46,1.06-2.8,2.64-.06,.27-.1,.59-.1,.89v4.94h-1.02v-6.17Zm6.58,1.61c0,2.66,1.86,3.99,4.24,3.99,1.73,0,2.57-.3,3.21-.57l.27,.74c-.36,.15-1.48,.63-3.59,.63-3.11,0-5.13-1.92-5.13-4.56,0-3.1,2.17-5.01,5.01-5.01,3.72,0,4.36,3,4.36,4.22,0,.28,0,.42-.04,.57h-8.33Zm7.31-.74c.02-.95-.42-3.29-3.42-3.29-2.55,0-3.61,1.9-3.82,3.29h7.24Zm4.49-7.86l1.82,2.72h-1.29l-2.55-2.72h2.02Zm5.05,11.45c.54,.32,1.5,.66,2.42,.66,1.34,0,1.96-.61,1.96-1.37,0-.8-.52-1.23-1.88-1.69-1.82-.59-2.67-1.5-2.67-2.6,0-1.48,1.32-2.7,3.49-2.7,1.02,0,1.92,.27,2.48,.57l-.46,1.22c-.4-.23-1.13-.53-2.07-.53-1.09,0-1.69,.57-1.69,1.25,0,.76,.61,1.1,1.92,1.56,1.75,.61,2.65,1.41,2.65,2.77,0,1.61-1.38,2.75-3.78,2.75-1.11,0-2.13-.25-2.84-.63l.46-1.27Zm18.54,1.71l-.15-1.16h-.06c-.56,.72-1.65,1.37-3.09,1.37-2.05,0-3.09-1.31-3.09-2.64,0-2.22,2.17-3.44,6.07-3.42v-.19c0-.76-.23-2.13-2.3-2.13-.94,0-1.92,.27-2.63,.68l-.42-1.1c.83-.49,2.05-.82,3.32-.82,3.09,0,3.84,1.92,3.84,3.76v3.44c0,.8,.04,1.58,.17,2.2h-1.67Zm-.27-4.69c-2-.04-4.28,.28-4.28,2.07,0,1.08,.79,1.6,1.73,1.6,1.32,0,2.15-.76,2.44-1.54,.06-.17,.1-.36,.1-.53v-1.6Z" style="fill: #000932;"/>
    <path id="where" d="M19.71,25.62l5.39-.36,2.69,9.23,2.09-9.55,5.38-.36,3.6,9.16,1.2-9.48,5.37-.36-2.71,16.99-5.57,.37-4.07-10.32-2.37,10.74-5.57,.37-5.43-16.45Zm27.59-1.83l5.68-.38,.47,5.85,6.21-.41-.47-5.85,5.7-.38,1.34,16.72-5.7,.38-.54-6.76-6.21,.41,.54,6.76-5.68,.38-1.34-16.72Zm21.35-1.41l15.22-1.01,.29,3.57-9.53,.63,.21,2.66,8.84-.59,.27,3.41-8.84,.59,.26,3.3,9.8-.65,.3,3.79-15.5,1.03-1.34-16.72Zm19.97,15.49l-1.34-16.72,9.47-.63c1.76-.12,3.11-.07,4.06,.14,.95,.21,1.74,.67,2.37,1.37,.63,.7,.98,1.59,1.07,2.65,.07,.93-.08,1.74-.46,2.44-.38,.7-.94,1.29-1.66,1.76-.46,.3-1.11,.56-1.94,.79,.69,.16,1.2,.33,1.53,.52,.22,.12,.55,.4,.98,.82s.73,.75,.88,.99l3.14,4.66-6.42,.42-3.44-4.91c-.44-.64-.81-1.04-1.13-1.22-.43-.23-.91-.33-1.42-.3l-.5,.03,.54,6.79-5.7,.38Zm4.91-10.32l2.39-.16c.26-.02,.75-.13,1.49-.33,.37-.09,.66-.29,.88-.59s.31-.63,.28-.99c-.04-.54-.26-.94-.66-1.21s-1.12-.36-2.15-.29l-2.5,.17,.27,3.4Zm13.64-7.71l15.22-1.01,.29,3.57-9.53,.63,.21,2.66,8.84-.59,.27,3.41-8.84,.59,.26,3.3,9.8-.65,.3,3.79-15.5,1.03-1.34-16.72Z" style="fill: #60605e;"/>
  </g>
</svg>