<?xml version="1.0" encoding="UTF-8"?>
<svg id="layout" xmlns="http://www.w3.org/2000/svg" viewBox="0 0 530 430">
  <g id="First-twenty">
    <g>
      <path d="M11.68,18.34l7.75-.56,3.87,14.58,3.01-15.08,7.73-.56,5.17,14.47,1.72-14.97,7.71-.56-3.9,26.84-8,.58-5.84-16.29-3.41,16.97-8,.58-7.8-25.99Z" style="fill: #60605e;"/>
      <path d="M51.34,15.45l8.16-.59,.67,9.24,8.92-.65-.67-9.24,8.2-.6,1.92,26.42-8.2,.6-.78-10.69-8.92,.65,.78,10.69-8.16,.59-1.92-26.42Z" style="fill: #60605e;"/>
      <path d="M82.02,13.22l21.88-1.59,.41,5.64-13.69,1,.31,4.2,12.7-.92,.39,5.39-12.7,.92,.38,5.21,14.09-1.03,.44,5.98-22.27,1.62-1.92-26.42Z" style="fill: #60605e;"/>
      <path d="M110.72,37.68l-1.92-26.42,13.6-.99c2.52-.18,4.47-.11,5.83,.23,1.37,.34,2.5,1.06,3.4,2.17,.9,1.11,1.42,2.51,1.54,4.19,.11,1.47-.11,2.75-.66,3.86-.55,1.11-1.35,2.03-2.39,2.77-.67,.47-1.6,.89-2.79,1.25,1,.25,1.73,.53,2.2,.82,.32,.19,.78,.63,1.41,1.29s1.04,1.19,1.26,1.56l4.51,7.37-9.22,.67-4.95-7.75c-.63-1-1.17-1.65-1.63-1.93-.62-.37-1.3-.52-2.04-.47l-.72,.05,.78,10.72-8.2,.6Zm7.05-16.31l3.44-.25c.37-.03,1.08-.2,2.14-.52,.53-.15,.95-.46,1.26-.93s.44-.99,.4-1.57c-.06-.85-.38-1.49-.95-1.9s-1.61-.57-3.09-.46l-3.59,.26,.39,5.37Z" style="fill: #60605e;"/>
      <path d="M137.38,9.19l21.88-1.59,.41,5.64-13.69,1,.31,4.2,12.7-.92,.39,5.39-12.7,.92,.38,5.21,14.09-1.03,.44,5.98-22.27,1.62-1.92-26.42Z" style="fill: #60605e;"/>
    </g>
    <g>
      <path d="M89,43.03v4.29h4.56v1.17h-4.56v9.21c0,1.77,.54,3.12,2.31,3.12,.87,0,1.47-.12,1.89-.27l.18,1.14c-.51,.21-1.26,.39-2.22,.39-1.14,0-2.07-.36-2.67-1.08-.72-.81-.96-2.13-.96-3.48v-9.03h-2.64v-1.17h2.64v-3.84l1.47-.45Z"/>
      <path d="M97.1,40.24h1.47v9.99h.06c.45-.9,1.23-1.77,2.22-2.34,.93-.57,2.07-.93,3.24-.93,1.38,0,5.61,.6,5.61,6.54v8.22h-1.47v-8.16c0-2.79-1.2-5.31-4.53-5.31-2.28,0-4.2,1.62-4.89,3.39-.18,.45-.24,.87-.24,1.53v8.55h-1.47v-21.48Z"/>
      <path d="M114.92,54.52c0,4.2,2.67,6.3,6.09,6.3,2.49,0,3.69-.48,4.62-.9l.39,1.17c-.51,.24-2.13,.99-5.16,.99-4.47,0-7.38-3.03-7.38-7.2,0-4.89,3.12-7.92,7.2-7.92,5.34,0,6.27,4.74,6.27,6.66,0,.45,0,.66-.06,.9h-11.97Zm10.5-1.17c.03-1.5-.6-5.19-4.92-5.19-3.66,0-5.19,3-5.49,5.19h10.41Z"/>
      <path d="M130.94,51.97c0-1.56-.03-3.09-.12-4.65h1.35l.06,3.12h.09c.72-2.01,2.28-3.48,4.41-3.48,.24,0,.48,.03,.69,.09v1.35c-.27-.06-.51-.06-.84-.06-2.01,0-3.54,1.68-4.02,4.17-.09,.42-.15,.93-.15,1.41v7.8h-1.47v-9.75Z"/>
      <path d="M140.39,54.52c0,4.2,2.67,6.3,6.09,6.3,2.49,0,3.69-.48,4.62-.9l.39,1.17c-.51,.24-2.13,.99-5.16,.99-4.47,0-7.38-3.03-7.38-7.2,0-4.89,3.12-7.92,7.2-7.92,5.34,0,6.27,4.74,6.27,6.66,0,.45,0,.66-.06,.9h-11.97Zm10.5-1.17c.03-1.5-.6-5.19-4.92-5.19-3.66,0-5.19,3-5.49,5.19h10.41Z"/>
      <path d="M157.34,40.93l2.61,4.29h-1.86l-3.66-4.29h2.91Z"/>
      <path d="M164.6,59.02c.78,.51,2.16,1.05,3.48,1.05,1.92,0,2.82-.96,2.82-2.16,0-1.26-.75-1.95-2.7-2.67-2.61-.93-3.84-2.37-3.84-4.11,0-2.34,1.89-4.26,5.01-4.26,1.47,0,2.76,.42,3.57,.9l-.66,1.92c-.57-.36-1.62-.84-2.97-.84-1.56,0-2.43,.9-2.43,1.98,0,1.2,.87,1.74,2.76,2.46,2.52,.96,3.81,2.22,3.81,4.38,0,2.55-1.98,4.35-5.43,4.35-1.59,0-3.06-.39-4.08-.99l.66-2.01Z"/>
      <path d="M191.24,61.72l-.21-1.83h-.09c-.81,1.14-2.37,2.16-4.44,2.16-2.94,0-4.44-2.07-4.44-4.17,0-3.51,3.12-5.43,8.73-5.4v-.3c0-1.2-.33-3.36-3.3-3.36-1.35,0-2.76,.42-3.78,1.08l-.6-1.74c1.2-.78,2.94-1.29,4.77-1.29,4.44,0,5.52,3.03,5.52,5.94v5.43c0,1.26,.06,2.49,.24,3.48h-2.4Zm-.39-7.41c-2.88-.06-6.15,.45-6.15,3.27,0,1.71,1.14,2.52,2.49,2.52,1.89,0,3.09-1.2,3.51-2.43,.09-.27,.15-.57,.15-.84v-2.52Z"/>
    </g>
    <g>
      <path d="M112.26,64.82l12.61-.09,4.71,24.01,6.47-24.09,12.56-.09,6.83,23.97,4.38-24.04,12.54-.09-9.17,43.01-13.01,.09-7.72-26.99-7.32,27.09-13.01,.09-9.85-42.88Z"/>
      <path d="M177.21,64.37l13.3-.09,.3,42.95-13.3,.09-.3-42.95Z"/>
      <path d="M200.03,64.21l13.27-.09,.23,32.37,20.71-.14,.07,10.58-33.98,.24-.3-42.95Z"/>
      <path d="M240.05,63.93l13.27-.09,.23,32.37,20.71-.14,.07,10.58-33.98,.24-.3-42.95Z"/>
    </g>
    <g>
      <path d="M269.83,55.75c-.29,.06-.68,.15-1.16,.29-.48,.14-1.01,.21-1.6,.21-1.2,0-2.12-.29-2.75-.88-.63-.6-.95-1.67-.96-3.21l-.11-15.16-2.92,.02v-2l2.91-.02-.04-5.76,2.4-.02,.04,5.76,3.88-.03v2l-3.87,.03,.1,14.2c0,.51,.02,.95,.05,1.32,.03,.37,.11,.68,.25,.92,.13,.24,.34,.41,.62,.52,.28,.1,.67,.16,1.18,.15,.32,0,.65-.03,.98-.09,.33-.05,.66-.12,.98-.21v1.96Z"/>
      <path d="M273.67,55.64l-.2-28.8,2.4-.02,.08,10.96c.95-1.02,1.94-1.85,2.96-2.5,1.02-.65,2.25-.98,3.69-.99,1.28,0,2.47,.2,3.56,.64,1.1,.43,2.02,1.19,2.78,2.28,.51,.74,.82,1.51,.92,2.29,.1,.79,.15,1.61,.16,2.46l.09,13.56-2.4,.02-.09-13.52c-.01-1.87-.44-3.26-1.27-4.19-.83-.93-2.21-1.38-4.13-1.37-.75,0-1.43,.12-2.04,.35-.61,.23-1.16,.54-1.65,.91-.49,.38-.91,.81-1.25,1.29-.34,.48-.61,.99-.79,1.53-.24,.67-.38,1.31-.43,1.92-.05,.61-.07,1.28-.07,2l.08,11.16-2.4,.02Z"/>
      <path d="M297.32,45.68c0,1.12,.16,2.18,.46,3.18,.3,1,.74,1.86,1.32,2.59,.58,.73,1.31,1.31,2.19,1.75,.88,.43,1.9,.65,3.04,.64,1.57-.01,2.92-.43,4.03-1.27,1.12-.83,1.85-2.01,2.21-3.54l2.68-.02c-.29,.99-.67,1.9-1.14,2.75-.47,.84-1.07,1.58-1.78,2.21-.72,.63-1.57,1.12-2.55,1.48s-2.13,.54-3.44,.54c-1.65,.01-3.08-.26-4.29-.81s-2.2-1.31-2.98-2.28c-.78-.97-1.36-2.11-1.74-3.43-.38-1.32-.58-2.74-.59-4.26,0-1.52,.2-2.95,.63-4.28,.43-1.34,1.05-2.51,1.86-3.51,.81-1.01,1.79-1.8,2.96-2.38,1.17-.58,2.5-.88,3.99-.89,2.85-.02,5.1,.94,6.74,2.89,1.64,1.95,2.46,4.79,2.46,8.52l-16.08,.11Zm13.5-2.09c0-1.01-.15-1.97-.44-2.86-.29-.89-.71-1.66-1.26-2.31-.55-.65-1.24-1.17-2.07-1.55-.83-.38-1.78-.57-2.84-.56-1.07,0-2,.21-2.81,.62-.81,.4-1.5,.94-2.07,1.61-.57,.67-1.02,1.45-1.36,2.33-.34,.88-.56,1.82-.66,2.81l13.52-.09Z"/>
      <path d="M320.67,55.31l-2.4,.02-.14-20.72,2.4-.02,.03,3.88h.08c.65-1.66,1.51-2.82,2.55-3.48,1.05-.66,2.44-1,4.17-1.01l.02,2.6c-1.36-.02-2.48,.2-3.36,.66-.88,.46-1.57,1.08-2.09,1.85-.51,.78-.87,1.69-1.06,2.75-.19,1.05-.29,2.16-.28,3.3l.07,10.16Z"/>
      <path d="M332.88,45.43c0,1.12,.16,2.18,.46,3.18,.3,1,.74,1.86,1.32,2.59,.58,.73,1.31,1.31,2.19,1.75,.88,.43,1.9,.65,3.04,.64,1.57-.01,2.92-.43,4.03-1.27,1.12-.83,1.85-2.01,2.21-3.54l2.68-.02c-.29,.99-.67,1.9-1.14,2.75-.47,.84-1.07,1.58-1.78,2.21-.72,.63-1.57,1.12-2.55,1.48-.98,.35-2.13,.53-3.44,.54-1.65,.01-3.08-.26-4.29-.81-1.2-.55-2.2-1.31-2.98-2.28-.78-.97-1.36-2.11-1.74-3.43-.38-1.32-.58-2.74-.59-4.26,0-1.52,.2-2.95,.63-4.28,.43-1.34,1.05-2.51,1.86-3.51,.81-1.01,1.79-1.8,2.96-2.38,1.17-.58,2.5-.88,3.99-.89,2.85-.02,5.1,.94,6.74,2.89,1.64,1.95,2.46,4.79,2.46,8.52l-16.08,.11Zm13.51-2.09c0-1.01-.15-1.97-.44-2.86-.29-.89-.71-1.66-1.26-2.31-.55-.65-1.24-1.17-2.07-1.55-.83-.38-1.78-.57-2.84-.56-1.07,0-2,.21-2.82,.62-.81,.4-1.5,.94-2.07,1.61-.57,.67-1.02,1.45-1.36,2.33-.34,.88-.56,1.82-.66,2.81l13.52-.09Z"/>
      <path d="M352.43,26.57l3.12-.02,4.48,5.53h-2.04l-5.56-5.51Z"/>
      <path d="M368.38,48.5c.38,1.78,1.07,3.04,2.04,3.77,.98,.73,2.37,1.08,4.19,1.07,.88,0,1.64-.12,2.28-.34,.64-.22,1.16-.51,1.57-.87,.41-.36,.72-.77,.93-1.23,.21-.45,.31-.94,.31-1.44,0-1.01-.34-1.76-1-2.25-.66-.49-1.48-.87-2.47-1.14-.99-.27-2.06-.51-3.21-.7-1.15-.19-2.22-.48-3.21-.88s-1.81-.96-2.47-1.7c-.66-.74-.99-1.79-1-3.15-.01-1.73,.61-3.16,1.87-4.27,1.26-1.11,3.05-1.68,5.37-1.7,2.24-.02,4.06,.47,5.47,1.46,1.41,.99,2.27,2.66,2.58,5l-2.44,.02c-.23-1.6-.84-2.72-1.84-3.37-1-.65-2.27-.96-3.79-.95-1.52,.01-2.68,.35-3.47,1-.79,.66-1.19,1.52-1.18,2.59,0,.93,.34,1.65,1,2.13,.66,.49,1.48,.88,2.47,1.18,.99,.3,2.06,.57,3.2,.8,1.15,.23,2.22,.56,3.21,1s1.81,1.02,2.47,1.76c.66,.74,.99,1.78,1,3.11,0,.99-.2,1.86-.62,2.62-.42,.76-1,1.4-1.75,1.91-.74,.51-1.63,.9-2.65,1.16s-2.15,.4-3.38,.4c-1.23,0-2.32-.16-3.26-.52-.95-.35-1.76-.85-2.43-1.48-.67-.64-1.2-1.38-1.58-2.23-.38-.85-.6-1.77-.66-2.76l2.44-.02Z"/>
    </g>
    <g>
      <path d="M389.81,32.17c-1.23-.45-1.8-1.26-1.69-2.43-1.18,.85-2.59,.97-4.22,.37-1.22-.45-2.08-1.1-2.59-1.97-.51-.87-.58-1.8-.21-2.81,.46-1.25,1.33-1.97,2.61-2.16,.49-.08,.89-.1,1.21-.06,.32,.04,.94,.17,1.86,.39,1.31,.33,2.2,.44,2.67,.34,.47-.1,.82-.47,1.06-1.12,.23-.62,.19-1.18-.11-1.69-.3-.51-.83-.91-1.6-1.19-.68-.25-1.38-.29-2.1-.13-.28,.07-.45,.19-.51,.35-.02,.06,.02,.16,.12,.3,.15,.23,.17,.52,.03,.88-.11,.3-.31,.51-.6,.62-.29,.12-.6,.11-.93,0-.39-.14-.67-.4-.83-.76-.16-.37-.18-.75-.03-1.14,.31-.84,.99-1.41,2.04-1.71,1.05-.29,2.17-.23,3.36,.21,2.73,1,3.62,2.81,2.66,5.44l-1.66,4.54c-.26,.72-.41,1.15-.42,1.3-.1,.56,.06,.91,.48,1.07,.53,.19,.96-.19,1.31-1.14l.4-1.1c.17-.48,.49-.63,.95-.46,.49,.18,.6,.63,.34,1.35l-.04,.11-.47,1.28c-.56,1.43-1.59,1.87-3.09,1.32Zm-.86-5.4l.59-1.6c-.44,.18-.86,.26-1.27,.25-.41-.01-1.1-.15-2.08-.4-1.77-.46-2.85-.14-3.25,.96-.21,.57-.17,1.1,.12,1.58,.29,.48,.79,.85,1.5,1.11,1.01,.37,1.9,.38,2.68,.05,.78-.34,1.35-.98,1.72-1.94Z"/>
      <path d="M404.7,28.06l-.87,7.47,4.66-7.29c.49-.78,.89-1.26,1.21-1.46,.32-.2,.71-.21,1.16-.05,.47,.17,.75,.44,.87,.8,.11,.37,.11,.99-.01,1.89l-1.21,8.55,4.18-6.26c.26-.4,.46-.76,.57-1.07l.02-.04c.15-.41,.05-.67-.29-.8-.13-.05-.34-.09-.62-.13-.27-.04-.48-.09-.61-.14-.56-.2-.74-.55-.56-1.05,.19-.53,.66-.65,1.39-.38,.11,.04,.21,.09,.33,.15l.88,.46c.23,.12,.6,.28,1.11,.46,.41,.15,.8,.27,1.2,.35l.78,.17c.07,0,.15,.03,.26,.07,.65,.24,.88,.61,.68,1.13-.18,.5-.52,.66-1.02,.48-.17-.06-.28-.13-.35-.22-.22-.14-.35-.22-.38-.23-.41-.15-1.13,.54-2.18,2.06l-3.67,5.27c-.44,.64-.83,1.06-1.18,1.25-.34,.19-.72,.21-1.15,.06-.8-.29-1.1-1.12-.91-2.48l1.25-8.64-4.64,7.23c-.44,.69-.84,1.14-1.21,1.36-.37,.21-.77,.24-1.21,.08-.71-.26-1.01-.9-.91-1.92l.81-8.92c.04-.53-.08-.85-.37-.95-.09-.03-.24-.05-.44-.05-.26-.05-.43-.09-.52-.12-.5-.18-.65-.52-.48-1,.2-.53,.63-.68,1.31-.43,.12,.04,.2,.08,.24,.12l.91,.5c.2,.11,.47,.23,.82,.36,.42,.15,.91,.3,1.48,.43,.71,.16,1.11,.26,1.22,.3,.66,.24,.9,.62,.71,1.14-.18,.5-.55,.65-1.11,.45-.11-.04-.29-.12-.54-.26-.17-.14-.34-.25-.52-.31-.39-.14-.67,.01-.83,.46-.11,.3-.19,.69-.25,1.16Z"/>
      <path d="M426.21,45.48c-1.23-.45-1.8-1.26-1.69-2.43-1.18,.85-2.59,.97-4.22,.37-1.22-.45-2.08-1.1-2.59-1.97-.51-.87-.58-1.8-.21-2.81,.46-1.25,1.33-1.97,2.61-2.16,.49-.08,.89-.1,1.21-.06,.32,.04,.94,.17,1.86,.39,1.31,.33,2.2,.44,2.67,.34,.47-.1,.83-.47,1.06-1.12,.23-.62,.19-1.18-.11-1.69-.3-.51-.83-.91-1.6-1.19-.68-.25-1.38-.29-2.1-.13-.28,.07-.45,.18-.51,.35-.02,.06,.02,.16,.12,.3,.16,.23,.17,.52,.04,.88-.11,.3-.31,.51-.6,.62-.29,.12-.6,.11-.93,0-.39-.14-.67-.4-.83-.76-.16-.37-.17-.75-.03-1.14,.31-.84,.99-1.41,2.04-1.71,1.05-.29,2.17-.23,3.36,.21,2.74,1,3.62,2.81,2.66,5.44l-1.66,4.54c-.26,.72-.41,1.15-.42,1.3-.1,.56,.06,.91,.48,1.07,.53,.19,.96-.19,1.31-1.14l.4-1.1c.17-.48,.49-.63,.95-.46,.49,.18,.6,.63,.34,1.35l-.04,.11-.47,1.28c-.56,1.43-1.59,1.87-3.09,1.32Zm-.86-5.4l.59-1.6c-.44,.18-.86,.26-1.28,.25-.41-.01-1.1-.15-2.08-.4-1.77-.46-2.85-.14-3.25,.96-.21,.57-.17,1.1,.13,1.58,.29,.48,.79,.85,1.5,1.11,1.01,.37,1.9,.38,2.68,.05,.78-.34,1.35-.98,1.72-1.94Z"/>
      <path d="M435.75,38.32l-.19,8.57,5.5-6.5c.15-.18,.25-.33,.29-.45,.09-.26-.03-.45-.38-.57-.18-.07-.33-.1-.45-.11-.25-.06-.42-.1-.49-.13-.5-.18-.66-.51-.48-.99,.19-.51,.6-.65,1.25-.41,.09,.03,.23,.1,.44,.21l.77,.41c.2,.11,.42,.2,.66,.29,.25,.09,.64,.2,1.17,.31,.52,.11,.91,.22,1.16,.31,.65,.24,.88,.61,.69,1.11-.18,.49-.52,.64-1.01,.46-.15-.06-.26-.11-.32-.17-.18-.12-.31-.19-.38-.22-.29-.11-.72,.17-1.3,.83l-5.87,6.54c-1.3,1.45-2.39,2.45-3.27,3-1.5,.93-3.02,1.12-4.55,.56-.92-.34-1.6-.85-2.05-1.54-.45-.69-.56-1.37-.32-2.03,.17-.47,.44-.8,.82-.99,.38-.19,.78-.21,1.22-.05,.35,.13,.59,.33,.75,.62,.15,.29,.17,.58,.06,.88-.18,.48-.51,.71-.99,.68,.1,.41,.47,.74,1.1,.97,.79,.29,1.62,.26,2.48-.1,.86-.36,1.42-.91,1.69-1.64,.14-.38,.19-1.15,.16-2.32l-.19-7.17v-.82c-.01-.77-.18-1.21-.51-1.34-.09-.03-.26-.07-.5-.12-.25-.05-.41-.09-.48-.11-.53-.19-.7-.53-.52-1.01,.19-.51,.62-.64,1.32-.39,.23,.08,.39,.15,.51,.22l.85,.46s.08,.03,.18,.07c.1,.05,.19,.09,.26,.12,.54,.2,1.13,.38,1.77,.53,.49,.12,.8,.21,.95,.26,.63,.23,.86,.59,.67,1.09-.18,.5-.56,.64-1.13,.43-.09-.03-.23-.1-.41-.2-.18-.1-.32-.17-.41-.2-.21-.08-.35,0-.43,.2-.04,.12-.07,.28-.08,.48Z"/>
    </g>
    <g>
      <path d="M423.62,77.48v-21.6h1.8v13.44l7.62-7.38h2.46l-5.82,5.61,6.51,9.93h-2.01l-5.82-8.67-2.94,2.79v5.88h-1.8Z" style="fill: #60605e;"/>
      <path d="M438.92,58.55v-2.67h1.98v2.67h-1.98Zm.09,18.93v-15.54h1.8v15.54h-1.8Z" style="fill: #60605e;"/>
      <path d="M447.2,77.48h-1.8v-15.54h1.8v2.16c.72-.76,1.46-1.38,2.24-1.86,.77-.48,1.69-.72,2.77-.72,.96,0,1.85,.17,2.67,.5,.82,.33,1.51,.9,2.07,1.72,.38,.56,.6,1.14,.67,1.73,.07,.59,.11,1.21,.11,1.85v10.17h-1.8v-10.14c0-1.4-.31-2.45-.93-3.15-.62-.7-1.65-1.05-3.09-1.05-.56,0-1.07,.08-1.53,.25s-.88,.4-1.25,.67c-.37,.28-.68,.6-.94,.96-.26,.36-.46,.74-.6,1.14-.18,.5-.29,.98-.33,1.44-.04,.46-.06,.96-.06,1.5v8.37Z" style="fill: #60605e;"/>
      <path d="M474.08,55.88h1.8v21.6h-1.8v-2.73h-.06c-.26,.52-.59,.98-1,1.36-.41,.39-.86,.72-1.35,.98-.49,.26-1,.46-1.51,.6-.52,.14-1.03,.21-1.53,.21-1.26,0-2.33-.21-3.21-.63-.88-.42-1.61-.99-2.17-1.73-.57-.73-.99-1.59-1.25-2.59-.26-1-.39-2.07-.39-3.21,0-1.08,.14-2.12,.42-3.12s.71-1.88,1.28-2.62,1.29-1.35,2.16-1.8c.87-.45,1.89-.67,3.08-.67,1.1,0,2.15,.25,3.17,.73,1.01,.49,1.8,1.22,2.38,2.18v-8.55Zm0,13.77c0-.88-.12-1.71-.36-2.5s-.58-1.48-1.04-2.07c-.45-.59-1-1.06-1.65-1.41-.65-.35-1.39-.52-2.21-.52-.94,0-1.75,.19-2.43,.55-.68,.37-1.24,.88-1.68,1.52-.44,.64-.76,1.39-.96,2.23-.2,.85-.28,1.77-.24,2.75,0,.98,.14,1.85,.41,2.6,.27,.75,.65,1.38,1.12,1.9,.48,.52,1.04,.92,1.68,1.19,.64,.27,1.34,.4,2.1,.4,.84,0,1.59-.17,2.25-.51,.66-.34,1.21-.8,1.65-1.4,.44-.59,.78-1.29,1.01-2.1,.23-.81,.34-1.68,.34-2.62Z" style="fill: #60605e;"/>
      <path d="M494.93,77.9c-1-.02-1.93-.2-2.8-.54s-1.63-.85-2.28-1.53c-.65-.68-1.17-1.53-1.54-2.55s-.57-2.21-.57-3.57c0-1.14,.15-2.21,.45-3.19,.3-.99,.75-1.85,1.35-2.6,.6-.74,1.35-1.32,2.25-1.75,.9-.43,1.95-.65,3.15-.65s2.28,.22,3.18,.65c.9,.43,1.65,1.01,2.25,1.74,.6,.73,1.04,1.6,1.34,2.6,.29,1,.43,2.07,.43,3.21,0,1.24-.17,2.36-.51,3.36-.34,1-.83,1.86-1.46,2.58-.63,.72-1.39,1.27-2.28,1.67s-1.88,.58-2.96,.58Zm5.28-8.19c0-.92-.1-1.78-.3-2.58-.2-.8-.51-1.49-.93-2.08-.42-.59-.96-1.05-1.62-1.4-.66-.34-1.47-.51-2.43-.51s-1.75,.19-2.42,.55c-.67,.37-1.21,.86-1.63,1.47-.42,.61-.73,1.31-.93,2.1-.2,.79-.3,1.6-.3,2.44,0,.96,.12,1.85,.35,2.65,.23,.81,.56,1.51,1,2.09,.44,.58,.99,1.03,1.65,1.35,.66,.32,1.42,.48,2.28,.48,.94,0,1.75-.18,2.42-.55s1.21-.86,1.63-1.49c.42-.62,.73-1.32,.93-2.1,.2-.78,.3-1.59,.3-2.43Z" style="fill: #60605e;"/>
      <path d="M503.87,63.44v-1.5h2.31v-2.46c0-1.24,.25-2.22,.75-2.94,.5-.72,1.35-1.08,2.55-1.08,.28,0,.54,.01,.78,.03,.24,.02,.48,.05,.72,.09v1.65c-.4-.1-.76-.15-1.08-.15-.46,0-.82,.09-1.08,.25-.26,.17-.45,.4-.57,.67-.12,.28-.2,.6-.23,.95-.03,.35-.04,.71-.04,1.06v1.92h3v1.5h-3v14.04h-1.8v-14.04h-2.31Z" style="fill: #60605e;"/>
    </g>
    <g>
      <path d="M309.43,108.35c0,1.38-.3,2.54-.9,3.48-.6,.95-1.59,1.75-2.97,2.41,.69,.26,1.22,.52,1.59,.77h-.04c2.46,1.43,3.7,3.53,3.7,6.28s-1.07,4.9-3.22,6.54c-2.01,1.58-4.76,2.36-8.26,2.36-.57,0-1.24-.02-2-.06s-1.6-.09-2.51-.15c-.92-.06-1.7-.11-2.34-.15-.65-.04-1.18-.06-1.61-.06-.75,0-1.42,.04-2.02,.13l-1.98,.26h-.09s-.06,0-.09,.02c-.03,.01-.06,.02-.09,.02h-.43c-1.61-.03-2.41-.72-2.41-2.06,0-1.26,.66-1.89,1.98-1.89,.11,0,.29,0,.52,.02,.23,.02,.46,.05,.69,.11h.26c.14,.03,.25,.04,.32,.04h.19c.92,0,1.38-.82,1.38-2.45v-16.6c0-1.66-.44-2.51-1.33-2.54-.06,.03-.17,.04-.34,.04s-.34,.01-.52,.04h.04c-.49,.09-.89,.13-1.2,.13-1.32,0-1.98-.63-1.98-1.89,0-1.35,.86-2.02,2.58-2.02h.6l2.02,.3c.6,.09,1.36,.13,2.28,.13,1,0,2.48-.09,4.43-.26h-.04c.66-.06,1.34-.1,2.04-.13,.7-.03,1.44-.04,2.21-.04,3.04,0,5.39,.63,7.05,1.89,1.66,1.26,2.49,3.04,2.49,5.33Zm-15.82,1.76c0,1.2,.07,1.99,.21,2.37,.26,.2,.8,.3,1.63,.3h2.32c4.41,0,6.62-1.39,6.62-4.17,0-2.52-1.78-3.78-5.33-3.78-2.72,0-4.36,.16-4.9,.47h.04c-.4,.26-.6,1.02-.6,2.28v2.54Zm0,12.99c0,1.58,.19,2.51,.56,2.79,.29,.2,.8,.34,1.55,.41,.75,.07,1.76,.11,3.05,.11,4.67,0,7.01-1.73,7.01-5.2,0-3.15-2.24-4.73-6.71-4.73h-3.44c-1.12,0-1.75,.2-1.89,.6-.09,.26-.13,.73-.13,1.42v4.6Z" style="fill: #951262;"/>
      <path d="M318.84,107.36c0-1.66-.47-2.49-1.42-2.49-.2,0-.44,.03-.73,.09-.43,.09-.85,.13-1.25,.13-.54,0-1.01-.18-1.4-.54-.39-.36-.58-.82-.58-1.4,0-1.35,.82-2.02,2.45-2.02h.26c.14,0,.29,.01,.43,.04l3.31,.26c.75,.06,1.3,.11,1.66,.15s.74,.05,1.14,.02l9.98-.3c.14,0,.84-.04,2.11-.13h-.04c.23-.03,.44-.04,.65-.04h.6c1.92,0,2.88,.83,2.88,2.49,0,.09-.01,.32-.04,.71-.03,.39-.07,.87-.13,1.44-.06,.4-.09,.82-.11,1.25-.01,.43-.02,.8-.02,1.12,0,.46,0,.85,.02,1.18,.01,.33,.04,.58,.06,.75,.06,.4,.1,.76,.13,1.08,.03,.32,.04,.59,.04,.82,0,1.4-.73,2.11-2.19,2.11s-2.19-.92-2.19-2.75v-2.15c0-2.06-.34-3.24-1.03-3.53h.04c-.72-.29-2.48-.43-5.29-.43-1.78,0-2.88,.04-3.31,.13-.83,.29-1.25,.92-1.25,1.89v2.84c-.03,.2-.04,.37-.04,.49v.8c0,.77,.06,1.22,.17,1.33,.29,.06,.57,.09,.86,.09h1.72c1.23,0,1.86-.37,1.89-1.12-.03-.06-.05-.23-.06-.52-.01-.29-.04-.53-.06-.73v.04c-.09-.52-.13-1.05-.13-1.59,0-1.46,.73-2.19,2.19-2.19s2.19,.77,2.19,2.32c0,.14-.02,.44-.06,.9-.04,.46-.12,1.05-.24,1.76-.17,1.26-.26,2.35-.26,3.27,0,.26,.01,.64,.04,1.14,.03,.5,.07,1.08,.13,1.74l.21,1.38c.09,.6,.13,1.12,.13,1.55,0,1.38-.73,2.06-2.19,2.06s-2.15-.77-2.15-2.32c0-.14,0-.34,.02-.6s.04-.5,.06-.73c0-.11,0-.27,.02-.47,.01-.2,.03-.38,.04-.54,.01-.16,.03-.27,.04-.34,.01-.07,.02-.05,.02,.06,0-.8-.54-1.2-1.63-1.2h-1.89c-.49,0-.78,.1-.88,.3-.1,.2-.15,.63-.15,1.29v3.33c0,.27,.01,.6,.04,.97,.03,.46,.04,.84,.04,1.14v.67c.03,1,.16,1.56,.39,1.68,.14,.11,.72,.17,1.72,.17h5.63c1.35,0,2.27-.21,2.77-.62,.5-.42,.75-1.17,.75-2.26v-.52c0-.2-.01-.43-.04-.69,0-.09,0-.18-.02-.28-.01-.1-.02-.19-.02-.28-.03-.34-.04-.69-.04-1.05v-.84c0-1.63,.73-2.45,2.19-2.45s2.28,.83,2.28,2.49v.65c0,.26-.01,.54-.04,.86,0,.09,0,.21-.02,.37-.01,.16-.02,.29-.02,.41,0,.14,0,.29-.02,.43-.01,.14-.02,.29-.02,.43-.03,.32-.04,.59-.04,.82v1.29c0,.29,.01,.63,.04,1.03,0,.11,0,.21,.02,.28,.01,.07,.02,.14,.02,.19,.03,.23,.04,.45,.04,.67v.54c0,1.69-.86,2.54-2.58,2.54h-.47c-.2,0-.37-.01-.52-.04-.09,0-.18,0-.28-.02-.1-.01-.19-.02-.28-.02-.52-.09-.99-.14-1.42-.15-.43-.01-.87-.02-1.31-.02s-.92,0-1.44,.02c-.52,.01-1.1,.02-1.76,.02-.97-.03-1.89-.05-2.73-.06-.85-.01-1.63-.02-2.34-.02-2.58,0-5.12,.09-7.61,.26-.12,0-.2,.01-.26,.04h-.34c-1.63,0-2.45-.69-2.45-2.06,0-1.26,.66-1.89,1.98-1.89,.03,0,.07,0,.13,.02,.06,.02,.14,.02,.26,.02,.09,0,.2,0,.34,.02,.14,.01,.29,.02,.43,.02,.14,.03,.29,.05,.43,.06,.14,.01,.27,.02,.39,.02,.95,0,1.42-.83,1.42-2.49v-16.56Z" style="fill: #951262;"/>
      <path d="M361.84,120.9c-.12-.29-.22-.47-.32-.54-.1-.07-.31-.11-.62-.11h-7.35c-.34,0-.58,.08-.71,.24-.13,.16-.32,.58-.58,1.27l-1.2,3.23c-.09,.23-.13,.43-.13,.6,0,.52,.3,.77,.9,.77,.11,0,.27,0,.47-.02,.2-.01,.42-.04,.64-.06,.23-.03,.44-.05,.65-.06,.2-.01,.39-.02,.56-.02,1.61,0,2.41,.67,2.41,2.02s-.86,1.94-2.58,1.94c-.12,0-.24,0-.39-.02-.14-.01-.29-.04-.43-.06h-.17l-2.06-.3c-.17-.03-.43-.05-.77-.06-.34-.01-.69-.02-1.03-.02-.4,0-.78,0-1.14,.02-.36,.01-.62,.04-.79,.06l-1.72,.26c-.37,.06-.71,.1-1.01,.13-.3,.03-.57,.04-.8,.04-1.55,0-2.32-.65-2.32-1.94s.76-2.02,2.28-2.02c.14,0,.25,0,.32-.02,.07-.01,.18,0,.32,.06h.39c.46,0,.82-.2,1.08-.6,.17-.23,.43-.85,.77-1.85l7.7-20.77c.52-1.4,1.61-2.11,3.27-2.11s2.67,.7,3.18,2.11l7.4,20.47c.4,1.12,.75,1.87,1.05,2.26,.3,.39,.7,.58,1.18,.58,.2,0,.34-.01,.43-.04,.2,0,.37,0,.5-.02,.13-.01,.25-.02,.37-.02s.21-.01,.3-.04c1.58,0,2.37,.63,2.37,1.89s-.76,1.98-2.28,1.98h-.49c-.19,0-.35-.01-.49-.04-.06,0-.12,0-.17-.02-.06-.01-.1-.02-.13-.02-.86-.11-1.61-.19-2.24-.24-.63-.04-1.15-.06-1.55-.06-.49,0-1.14,.03-1.96,.09-.82,.06-1.8,.14-2.95,.26-.06,0-.12,0-.19,.02-.07,.01-.14,.02-.19,.02-.17,.03-.35,.04-.54,.04h-.45c-1.58,0-2.37-.66-2.37-1.98s.85-1.98,2.54-1.98c.14,0,.32,0,.52,.02,.2,.02,.42,.04,.65,.06,.2,.03,.4,.05,.6,.06,.2,.01,.34,.02,.43,.02,.43,0,.64-.19,.64-.56,0-.03-.01-.09-.04-.17-.03-.09-.07-.2-.13-.34l-.13-.39v.04l-1.46-4.04Zm-7.74-4.39s-.03-.07-.09-.13h.13s-.04,.07-.04,.13Zm-.04,.17c0-.06,0-.11,.02-.15,.01-.04,.02-.04,.02,.02-.03,.03-.04,.06-.04,.09v.04Zm.04,.04s-.04,.02-.04-.04l.04,.04Zm3.18-9.63c-.54,1.55-1.08,3.1-1.61,4.64s-1.04,3.1-1.53,4.64h6.15v-.09l-3.01-9.2Zm3.1,9.5s-.04-.06-.04-.09-.02-.07-.04-.13h.26c-.12,.06-.17,.13-.17,.21Z" style="fill: #951262;"/>
      <path d="M381.97,110.93l-.17,3.31v6.32c0,1.92,.19,3.24,.56,3.96,.4,.77,1.09,1.38,2.06,1.81,.49,.17,1,.32,1.55,.45,.54,.13,1.08,.19,1.59,.19,1.38,0,2.53-.25,3.46-.75,.93-.5,1.54-1.17,1.83-2,.14-.49,.25-1.02,.32-1.61,.07-.59,.12-1.25,.15-2,0-1.78,.01-3.55,.04-5.31,.03-1.76,.04-3.53,.04-5.31,0-1.03,0-1.83-.02-2.39-.02-.56-.04-.91-.07-1.05-.23-1.09-.69-1.63-1.38-1.63-.14,0-.29,.01-.43,.04-.06,0-.11,0-.15,.02-.04,.01-.09,.02-.15,.02-.23,.06-.46,.09-.69,.11-.23,.01-.42,.02-.56,.02-.52,0-.98-.2-1.4-.6-.42-.4-.62-.85-.62-1.33,0-1.38,.85-2.06,2.54-2.06h.39c.11,0,.21,.01,.3,.04l2.41,.34c.6,.09,1.26,.13,1.98,.13,.66,0,1.23-.04,1.72-.13l1.81-.3c.43-.09,.8-.13,1.12-.13,1.6,0,2.41,.66,2.41,1.98s-.79,1.98-2.36,1.98h-.73c-.06-.03-.12-.04-.17-.04-.46,0-.75,.26-.86,.77-.17,.75-.26,2.82-.26,6.23v7.22c0,.89,0,1.68-.02,2.37-.01,.69-.05,1.23-.11,1.63-.26,1.38-.77,2.65-1.55,3.83-1.78,2.55-4.76,3.83-8.94,3.83-5.22,0-8.56-1.69-10.02-5.07h.04c-.29-.54-.49-1.21-.6-2-.11-.79-.17-1.7-.17-2.73s.04-2.48,.13-4.43c.09-1.92,.13-3.38,.13-4.39v-2.19c0-2.04-.01-3.12-.04-3.27-.17-1.2-.47-1.81-.9-1.81h-.3c-.14,.06-.29,.09-.45,.09h-.45c-1.63,0-2.45-.66-2.45-1.98s.76-1.98,2.28-1.98c.52,0,1.03,.04,1.55,.13,.66,.12,1.29,.2,1.89,.26,.6,.06,1.18,.09,1.72,.09,1.17,0,2.49-.13,3.96-.39,.17-.03,.36-.05,.56-.06,.2-.01,.42-.02,.64-.02,1.61,0,2.41,.66,2.41,1.98s-.72,1.98-2.15,1.98c-.17,0-.34,0-.52-.02-.17-.01-.36-.04-.56-.06-.17-.03-.39-.05-.65-.06-.26-.01-.37-.04-.34-.06-.49,.03-.83,.36-1.03,.99-.06,.17-.1,.46-.13,.86-.03,.4-.06,.9-.09,1.51l-.09,2.71Z" style="fill: #951262;"/>
      <path d="M418.73,123.96c0,1.66,.47,2.49,1.42,2.49,.06,0,.18,0,.37-.02,.19-.01,.37-.04,.54-.06,.2,0,.44-.01,.73-.04,.29-.03,.4-.04,.34-.04,.54,0,1.02,.19,1.42,.58,.4,.39,.6,.82,.6,1.31,0,1.35-.85,2.02-2.54,2.02h-.34c-.09-.03-.19-.04-.3-.04l-2.06-.3c-.4-.06-.8-.1-1.2-.13-.4-.03-.82-.04-1.25-.04-.49,0-.96,.01-1.42,.04-.46,.03-.89,.07-1.29,.13l-2.06,.3c-.11,0-.2,.01-.26,.04h-.39c-1.69,0-2.54-.67-2.54-2.02,0-1.26,.67-1.89,2.02-1.89-.06,0,.06,.02,.37,.04,.3,.03,.54,.04,.71,.04,.2,.03,.39,.05,.56,.06,.17,.01,.29,.02,.34,.02,.92,0,1.38-.83,1.38-2.49v-2.88l.04-3.66v-3.48l-.04-6.75c0-1.58-.77-2.36-2.32-2.36h-1.25c-1.52,0-2.28,.77-2.28,2.32v.84c0,.22,.01,.39,.04,.54l.17,1.46c.03,.14,.04,.32,.04,.52v.6c0,2.12-.77,3.18-2.32,3.18s-2.24-.82-2.24-2.45v-.52c0-.23,.01-.44,.04-.65,0-.09,0-.19,.02-.32,.01-.13,.02-.26,.02-.41,.09-1.29,.13-2.12,.13-2.49,0-.31,0-.64-.02-.99-.01-.34-.04-.72-.06-1.12l-.13-1.25c-.03-.17-.03-.26,0-.26,.03,0,.01-.13-.04-.39,0-1.55,.76-2.32,2.28-2.32,.17,0,.5,0,.97,.02,.47,.01,1.05,.05,1.74,.11h.34c.26,0,.64,0,1.14,.02,.5,.02,1.12,.04,1.87,.06,.77,0,1.55,.02,2.34,.04,.79,.03,1.57,.04,2.34,.04,.14,0,.36,0,.65-.02,.29-.01,.63-.02,1.03-.02,.34,0,.75,0,1.2-.02,.46-.01,.97-.02,1.55-.02,.49,0,1.38-.04,2.67-.13,.49-.06,.97-.09,1.46-.11,.49-.01,.89-.02,1.2-.02,1.83,0,2.75,.79,2.75,2.37,0,.29-.04,.81-.11,1.57-.07,.76-.14,1.56-.19,2.39v1.18c0,.33,.03,.71,.09,1.14,.06,.57,.1,1.05,.13,1.42,.03,.37,.04,.63,.04,.77,0,1.49-.77,2.24-2.32,2.24s-2.24-.87-2.24-2.62c0-.49,.04-1.23,.13-2.24,.03-.49,.05-.92,.06-1.29,.01-.37,.02-.67,.02-.9,0-1.52-.85-2.28-2.54-2.28h-1.16c-.75,0-1.29,.19-1.63,.56-.34,.37-.54,.93-.6,1.68l-.13,2.88-.04,14.02Z" style="fill: #951262;"/>
      <path d="M436.06,107.36c0-1.66-.47-2.49-1.42-2.49-.26,0-.5,.03-.73,.09-.49,.09-.9,.13-1.25,.13-.54,0-1.01-.18-1.4-.54-.39-.36-.58-.82-.58-1.4,0-1.35,.83-2.02,2.49-2.02h.34c.14,0,.27,.01,.39,.04l2.15,.3c.4,.06,.81,.1,1.23,.13,.42,.03,.82,.04,1.23,.04,.37,0,.8-.02,1.27-.06s.95-.09,1.44-.15l1.85-.26c.11-.03,.24-.04,.37-.04h.32c1.69,0,2.54,.67,2.54,2.02,0,.57-.2,1.04-.6,1.4-.4,.36-.86,.54-1.38,.54-.4,0-.82-.04-1.25-.13-.29-.06-.54-.09-.77-.09-.92,0-1.38,.83-1.38,2.49v16.56c0,1.66,.46,2.49,1.38,2.49h.19c.07,0,.18-.01,.32-.04h.26c.52-.09,.93-.13,1.25-.13,1.32,0,1.98,.63,1.98,1.89,0,1.38-.85,2.06-2.54,2.06h-.39c-.06-.03-.14-.04-.26-.04l-2.19-.34c-.37-.06-.74-.1-1.1-.13-.36-.03-.71-.04-1.05-.04-.57,0-1.1,.02-1.59,.06s-.96,.09-1.42,.15l-1.89,.3c-.12,0-.22,.01-.3,.04h-.43c-1.63,0-2.45-.69-2.45-2.06,0-1.26,.66-1.89,1.98-1.89,.03,0,.07,0,.13,.02,.06,.02,.13,.02,.21,.02s.2,0,.34,.02c.14,.01,.3,.02,.47,.02,.14,.03,.28,.05,.41,.06,.13,.01,.26,.02,.41,.02,.95,0,1.42-.83,1.42-2.49v-16.56Z" style="fill: #951262;"/>
      <path d="M452.53,117.38v-3.44l-.04-6.58c0-1.66-.47-2.49-1.42-2.49-.17,0-.4,.03-.69,.09-.49,.09-.89,.13-1.2,.13-.54,0-1.01-.18-1.4-.54-.39-.36-.58-.82-.58-1.4,0-1.35,.82-2.02,2.45-2.02h.28c.13,0,.26,.01,.41,.04l2.79,.3c.54,.06,1.11,.1,1.7,.13,.59,.03,1.21,.04,1.87,.04,.72,0,2.24-.04,4.56-.13l4.82-.17h-.04l2.19-.13c.14-.03,.34-.04,.58-.04h.71c1.95,0,2.92,.85,2.92,2.54,0,.29-.02,.62-.06,.99-.04,.37-.09,.82-.15,1.33-.06,.52-.11,.96-.15,1.33-.04,.37-.06,.67-.06,.9s0,.46,.02,.69c.01,.23,.04,.5,.06,.82,.03,.32,.05,.65,.06,.99,.01,.34,.02,.67,.02,.99,0,1.52-.73,2.28-2.19,2.28s-2.24-.85-2.24-2.54v-.75c0-.3,.01-.65,.04-1.05,0-.09,0-.18,.02-.28,.01-.1,.02-.18,.02-.24,.03-.26,.04-.49,.04-.71v-.54c0-1.23-.27-1.96-.82-2.19-.83-.37-2.7-.56-5.59-.56-2.32,0-3.63,.17-3.91,.52-.17,.23-.26,1.36-.26,3.4v3.05c0,.49,.07,.8,.21,.92,.14,.13,.52,.19,1.12,.19h1.38c1.32,0,1.98-.46,1.98-1.38,0-.17-.01-.37-.04-.58-.03-.21-.06-.44-.09-.67-.03-.23-.05-.45-.06-.67-.01-.21-.02-.39-.02-.54,0-1.43,.73-2.15,2.19-2.15s2.11,.8,2.11,2.41v.24c0,.1-.01,.21-.04,.32,0,.06,0,.13-.02,.21s-.02,.19-.02,.3l-.26,2.24c-.06,.49-.1,.9-.13,1.25-.03,.34-.04,.63-.04,.86,0,1.09,.13,2.49,.39,4.21,.09,.6,.13,1.19,.13,1.76,0,1.46-.73,2.19-2.19,2.19s-2.11-.77-2.11-2.32v-.56c0-.23,.01-.47,.04-.73,.03-.26,.05-.49,.06-.69,.01-.2,.02-.37,.02-.52,0-.63-.16-1.03-.47-1.2-.14-.11-.62-.17-1.42-.17h-1.29c-.75,0-1.18,.06-1.29,.17-.09,.09-.13,.56-.13,1.42v4.9c0,1.09,.09,1.82,.28,2.19s.55,.56,1.1,.56h.3c.14,0,.32-.01,.52-.04,.2,0,.39,0,.56-.02,.17-.01,.31-.02,.43-.02,1.75,0,2.62,.66,2.62,1.98,0,.57-.21,1.05-.64,1.42-.43,.37-.95,.56-1.55,.56-.32,0-.63-.02-.95-.06-.32-.04-.69-.09-1.12-.15-.6-.11-1.24-.19-1.91-.24-.67-.04-1.37-.06-2.09-.06-.95,0-1.98,.09-3.1,.26l-1.42,.21c-.12,0-.22,.01-.3,.04h-.3c-1.69,0-2.54-.69-2.54-2.06,0-1.26,.66-1.89,1.98-1.89,.03,0,.07,0,.13,.02,.06,.02,.13,.02,.21,.02h.32c.13,0,.28,.02,.45,.04,.14,.03,.29,.05,.43,.06,.14,.01,.27,.02,.39,.02,.49,0,.82-.18,1.01-.54,.19-.36,.29-1.01,.32-1.96l.09-6.54Z" style="fill: #951262;"/>
      <path d="M482.93,110.93l-.17,3.31v6.32c0,1.92,.19,3.24,.56,3.96,.4,.77,1.09,1.38,2.06,1.81,.49,.17,1,.32,1.55,.45,.54,.13,1.08,.19,1.59,.19,1.38,0,2.53-.25,3.46-.75,.93-.5,1.54-1.17,1.83-2,.14-.49,.25-1.02,.32-1.61,.07-.59,.12-1.25,.15-2,0-1.78,.01-3.55,.04-5.31,.03-1.76,.04-3.53,.04-5.31,0-1.03,0-1.83-.02-2.39-.02-.56-.04-.91-.07-1.05-.23-1.09-.69-1.63-1.38-1.63-.14,0-.29,.01-.43,.04-.06,0-.11,0-.15,.02-.04,.01-.09,.02-.15,.02-.23,.06-.46,.09-.69,.11-.23,.01-.42,.02-.56,.02-.52,0-.98-.2-1.4-.6-.42-.4-.62-.85-.62-1.33,0-1.38,.85-2.06,2.54-2.06h.39c.11,0,.21,.01,.3,.04l2.41,.34c.6,.09,1.26,.13,1.98,.13,.66,0,1.23-.04,1.72-.13l1.81-.3c.43-.09,.8-.13,1.12-.13,1.6,0,2.41,.66,2.41,1.98s-.79,1.98-2.36,1.98h-.73c-.06-.03-.12-.04-.17-.04-.46,0-.75,.26-.86,.77-.17,.75-.26,2.82-.26,6.23v7.22c0,.89,0,1.68-.02,2.37-.01,.69-.05,1.23-.11,1.63-.26,1.38-.77,2.65-1.55,3.83-1.78,2.55-4.76,3.83-8.94,3.83-5.22,0-8.56-1.69-10.02-5.07h.04c-.29-.54-.49-1.21-.6-2-.11-.79-.17-1.7-.17-2.73s.04-2.48,.13-4.43c.09-1.92,.13-3.38,.13-4.39v-2.19c0-2.04-.01-3.12-.04-3.27-.17-1.2-.47-1.81-.9-1.81h-.3c-.14,.06-.29,.09-.45,.09h-.45c-1.63,0-2.45-.66-2.45-1.98s.76-1.98,2.28-1.98c.52,0,1.03,.04,1.55,.13,.66,.12,1.29,.2,1.89,.26,.6,.06,1.18,.09,1.72,.09,1.17,0,2.49-.13,3.96-.39,.17-.03,.36-.05,.56-.06,.2-.01,.42-.02,.64-.02,1.61,0,2.41,.66,2.41,1.98s-.72,1.98-2.15,1.98c-.17,0-.34,0-.52-.02-.17-.01-.36-.04-.56-.06-.17-.03-.39-.05-.65-.06-.26-.01-.37-.04-.34-.06-.49,.03-.83,.36-1.03,.99-.06,.17-.1,.46-.13,.86-.03,.4-.06,.9-.09,1.51l-.09,2.71Z" style="fill: #951262;"/>
      <path d="M514.58,123.44c0,1.55,.09,2.38,.26,2.49,.14,.17,.33,.27,.56,.3,.23,.03,.57,.05,1.03,.06,.46,.01,1,.02,1.63,.02h3.61c1.75,0,2.87-.22,3.35-.65,.46-.37,.69-1.25,.69-2.62v-1.42c-.03-.26-.04-.5-.04-.73v-.6c0-.14,0-.27-.02-.39-.01-.11-.02-.2-.02-.26,0-1.61,.72-2.41,2.15-2.41,1.6,0,2.41,.75,2.41,2.24,0,.46-.01,.76-.04,.9l-.3,2.06c-.03,.32-.05,.62-.06,.92-.01,.3-.02,.61-.02,.92v.43c0,.17,.01,.37,.04,.6,0,.11,0,.21,.02,.3,.01,.09,.02,.19,.02,.3,.03,.34,.05,.68,.06,1.01,.01,.33,.02,.58,.02,.75,0,1.63-.93,2.45-2.79,2.45-.09,0-.19,0-.3-.02-.12-.01-.29-.02-.52-.02-.14,0-.32,0-.52-.02-.2-.01-.42-.02-.64-.02-.2-.03-.42-.04-.65-.04h-.82c-.23,0-.47,0-.71-.02-.24-.01-.51-.02-.79-.02l-3.1-.04h-7.48c-.34,0-.73,.01-1.16,.04-.17,0-.37,0-.58,.02-.21,.01-.44,.02-.67,.02-.09,0-.22,0-.41,.02-.19,.01-.38,.04-.58,.06-.26,.03-.51,.05-.75,.06-.24,.01-.47,.02-.67,.02-1.63,0-2.45-.69-2.45-2.06,0-1.26,.66-1.89,1.98-1.89-.06,0,.06,.02,.37,.04,.3,.03,.54,.06,.71,.09,.2,0,.39,0,.56,.02,.17,.01,.29,.02,.34,.02,.95,0,1.42-.83,1.42-2.49v-16.56c0-1.66-.47-2.49-1.42-2.49-.2,0-.44,.03-.73,.09-.43,.09-.85,.13-1.25,.13-.54,0-1.01-.18-1.4-.54-.39-.36-.58-.82-.58-1.4,0-1.35,.83-2.02,2.49-2.02h.34c.11,0,.24,.01,.39,.04h-.04l2.19,.26c.57,.06,1.09,.11,1.55,.15,.46,.04,.8,.06,1.03,.06,.32,0,.7-.02,1.14-.06s.92-.09,1.44-.15l1.89-.26h-.04c.11-.03,.24-.04,.37-.04h.32c1.69,0,2.54,.67,2.54,2.02,0,.57-.19,1.04-.58,1.4-.39,.36-.85,.54-1.4,.54-.37,0-.79-.04-1.25-.13-.11-.03-.23-.05-.34-.06-.11-.01-.24-.02-.39-.02-.95,0-1.42,.83-1.42,2.49v16.08Z" style="fill: #951262;"/>
    </g>
    <g>
      <path d="M24,131.91l1.86-1.61,15.95,9.53-1.8,1.56-4.69-2.93-4.81,4.16,2.14,5.13-1.69,1.46-6.97-17.3Zm9.52,5.54l-6.94-4.3,3.14,7.59,3.81-3.29Z"/>
      <path d="M31.76,125.19l1.94-1.68,15.39,5.54-9.33-10.78,1.57-1.36,11.54,13.34-1.85,1.6-15.46-5.45,9.31,10.77-1.57,1.36-11.54-13.34Z"/>
      <path d="M44.07,114.54l4.86-4.2c1.65-1.43,3.49-1.88,5.53-1.37,1.83,.47,3.53,1.63,5.12,3.46,1.23,1.42,2.09,2.91,2.6,4.46,.91,2.75,.33,5.02-1.73,6.8l-4.84,4.19-11.54-13.34Zm14.74,7.88c.54-.47,.94-.92,1.18-1.35,.42-.78,.54-1.67,.36-2.69-.15-.81-.52-1.7-1.1-2.67-.35-.57-.72-1.07-1.09-1.5-1.43-1.65-2.83-2.68-4.21-3.09-1.38-.41-2.71-.05-4.01,1.07l-2.86,2.47,8.86,10.25,2.87-2.48Z"/>
    </g>
    <g>
      <path d="M7.57,152.94h15.62v2.64H10.41v6.53h11.81v2.49H10.41v7.29h12.99v2.56H7.57v-21.52Z" style="fill: #60605e;"/>
      <path d="M29,152.94l6.18,18.33,6.11-18.33h3.27l-7.85,21.52h-3.09l-7.84-21.52h3.22Z" style="fill: #60605e;"/>
      <path d="M47.59,152.94h15.62v2.64h-12.77v6.53h11.81v2.49h-11.81v7.29h12.99v2.56h-15.83v-21.52Z" style="fill: #60605e;"/>
      <path d="M67.67,152.94h9.78c1.61,0,2.94,.24,3.98,.72,1.99,.92,2.98,2.61,2.98,5.08,0,1.29-.27,2.34-.8,3.16-.53,.82-1.28,1.48-2.23,1.98,.84,.34,1.47,.79,1.9,1.35,.43,.56,.66,1.46,.71,2.71l.1,2.89c.03,.82,.1,1.43,.21,1.83,.18,.68,.49,1.12,.94,1.32v.48h-3.57c-.1-.19-.18-.42-.23-.72s-.11-.86-.15-1.7l-.18-3.59c-.07-1.41-.57-2.35-1.52-2.83-.54-.26-1.39-.4-2.55-.4h-6.45v9.23h-2.92v-21.52Zm9.47,9.86c1.33,0,2.38-.27,3.16-.82s1.16-1.53,1.16-2.96c0-1.53-.54-2.58-1.62-3.13-.58-.29-1.35-.44-2.32-.44h-6.92v7.35h6.55Z" style="fill: #60605e;"/>
      <path d="M86.79,152.94h3.4l6.19,10.34,6.19-10.34h3.43l-8.15,12.85v8.67h-2.92v-8.67l-8.13-12.85Z" style="fill: #60605e;"/>
      <path d="M115.85,156.56h5.16l6.74,9.9v-9.9h5.21v17.9h-5.21l-6.7-9.83v9.83h-5.2v-17.9Z"/>
      <path d="M136.86,156.56h5.54v17.9h-5.54v-17.9Z"/>
      <path d="M155.37,167.98v-3.72h8.54v7.63c-1.64,1.12-3.08,1.87-4.34,2.28-1.26,.4-2.75,.6-4.47,.6-2.12,0-3.86-.36-5.19-1.09-1.34-.72-2.38-1.8-3.11-3.23-.74-1.43-1.1-3.08-1.1-4.93,0-1.95,.4-3.65,1.21-5.1,.81-1.44,1.99-2.54,3.54-3.29,1.21-.58,2.84-.87,4.89-.87s3.46,.18,4.44,.54c.98,.36,1.79,.91,2.44,1.67,.65,.75,1.13,1.71,1.46,2.86l-5.33,.95c-.22-.68-.59-1.19-1.12-1.55-.52-.36-1.19-.54-2.01-.54-1.21,0-2.18,.42-2.9,1.26-.72,.84-1.08,2.18-1.08,4,0,1.94,.36,3.32,1.09,4.15,.73,.83,1.74,1.25,3.05,1.25,.62,0,1.21-.09,1.77-.27,.56-.18,1.2-.48,1.93-.92v-1.68h-3.7Z"/>
      <path d="M167.22,156.56h5.53v6.26h6.04v-6.26h5.55v17.9h-5.55v-7.24h-6.04v7.24h-5.53v-17.9Z"/>
      <path d="M186.77,156.56h16.81v4.42h-5.64v13.48h-5.53v-13.48h-5.64v-4.42Z"/>
    </g>
    <g>
      <path d="M208.06,214l-.02-2.94,8.89-.06-.08-11.06-8.89,.06-.02-2.94,21.52-.15,.02,2.94-10.06,.07,.08,11.06,10.06-.07,.02,2.94-21.52,.15Z"/>
      <path d="M207.87,186.15l-.02-3.3,21.46-7.96,.02,3.19-6.43,2.23,.06,8.51,6.46,2.28,.02,2.99-21.57-7.95Zm12.67-4.88l-9.48,3.33,9.53,3.41-.05-6.74Z"/>
      <path d="M222.33,170.39c1.22-.08,2.21-.36,2.97-.85,1.42-.94,2.12-2.59,2.1-4.94,0-1.05-.17-2.01-.49-2.88-.62-1.67-1.71-2.5-3.27-2.49-1.17,0-2,.37-2.5,1.08-.48,.72-.9,1.85-1.25,3.39l-.64,2.83c-.42,1.85-.88,3.16-1.39,3.93-.89,1.33-2.23,2-4.01,2.01-1.93,.01-3.52-.63-4.77-1.92-1.25-1.29-1.88-3.13-1.9-5.52-.02-2.2,.52-4.06,1.59-5.61,1.08-1.54,2.81-2.32,5.21-2.34l.02,2.74c-1.15,.15-2.03,.45-2.65,.92-1.12,.86-1.67,2.31-1.65,4.35,.01,1.65,.38,2.83,1.11,3.55,.73,.72,1.57,1.07,2.53,1.06,1.05,0,1.82-.44,2.31-1.29,.31-.56,.69-1.83,1.15-3.8l.67-2.93c.32-1.41,.77-2.5,1.34-3.27,1-1.33,2.45-2,4.37-2.02,2.38-.02,4.09,.82,5.13,2.5s1.56,3.64,1.58,5.88c.02,2.61-.65,4.66-2.01,6.14-1.35,1.49-3.18,2.22-5.51,2.21l-.02-2.74Z"/>
    </g>
    <g>
      <path d="M237.21,134.85l2.94-.02,.15,21.52-2.94,.02-.15-21.52Z"/>
      <path d="M260.53,134.69l.02,2.56-7.25,.05,.13,18.96-2.94,.02-.13-18.96-7.25,.05-.02-2.56,17.45-.12Z"/>
      <path d="M265.21,149.23c.08,1.22,.36,2.21,.85,2.97,.94,1.42,2.59,2.12,4.94,2.1,1.05,0,2.01-.17,2.88-.49,1.67-.62,2.5-1.71,2.49-3.27,0-1.17-.37-2-1.08-2.5-.72-.48-1.85-.9-3.39-1.25l-2.83-.64c-1.85-.42-3.16-.88-3.93-1.39-1.33-.89-2-2.23-2.01-4.01-.01-1.93,.63-3.52,1.92-4.77,1.29-1.25,3.13-1.88,5.52-1.9,2.2-.02,4.06,.52,5.61,1.59,1.54,1.08,2.32,2.81,2.34,5.21l-2.74,.02c-.15-1.15-.45-2.03-.92-2.65-.86-1.12-2.31-1.67-4.35-1.65-1.65,.01-2.83,.38-3.55,1.11s-1.07,1.57-1.06,2.53c0,1.05,.44,1.82,1.29,2.31,.56,.31,1.83,.69,3.8,1.15l2.93,.67c1.41,.32,2.5,.77,3.27,1.34,1.33,1,2,2.45,2.02,4.37,.02,2.38-.82,4.09-2.5,5.13s-3.64,1.56-5.88,1.58c-2.61,.02-4.66-.65-6.14-2.01-1.49-1.35-2.22-3.18-2.21-5.51l2.74-.02Z"/>
    </g>
    <g>
      <path d="M249.46,191.73h-12.09v-28.07h12.09c1.74,.03,3.19,.23,4.34,.61,1.97,.65,3.56,1.83,4.78,3.56,.98,1.4,1.64,2.91,2,4.53s.53,3.17,.53,4.65c0,3.73-.75,6.89-2.25,9.48-2.03,3.49-5.17,5.24-9.41,5.24Zm4.36-20.91c-.9-1.52-2.69-2.29-5.35-2.29h-5.41v18.32h5.41c2.77,0,4.7-1.36,5.79-4.09,.6-1.5,.9-3.28,.9-5.35,0-2.86-.44-5.05-1.33-6.59Z"/>
      <path d="M281.97,185.96h-10.34l-1.94,5.77h-6.13l10.02-28.07h6.63l9.94,28.07h-6.36l-1.81-5.77Zm-1.64-4.84l-3.5-11.04-3.62,11.04h7.12Z"/>
      <path d="M312.78,163.66l-9.39,17.52v10.55h-5.87v-10.55l-9.71-17.52h6.91l5.83,12.23,5.58-12.23h6.65Z"/>
      <path d="M316.61,193.67c-.23,.94-.65,1.75-1.28,2.44-.67,.74-1.46,1.29-2.37,1.67-.91,.38-1.53,.56-1.88,.56v-2.09c1.09-.3,1.89-.81,2.41-1.52,.51-.71,.81-1.71,.88-2.99h-3.29v-5.67h5.87v4.91c0,.86-.11,1.76-.34,2.7Z"/>
    </g>
    <g>
      <path d="M249.58,225.94c1.6,0,2.89-.18,3.89-.53,1.89-.67,2.83-1.93,2.83-3.76,0-1.07-.47-1.9-1.41-2.48-.94-.57-2.41-1.08-4.42-1.52l-3.43-.77c-3.37-.76-5.7-1.59-6.99-2.48-2.18-1.49-3.27-3.83-3.27-7.01,0-2.9,1.05-5.31,3.16-7.23s5.21-2.88,9.29-2.88c3.41,0,6.32,.9,8.73,2.71,2.41,1.81,3.67,4.44,3.79,7.88h-6.5c-.12-1.95-.97-3.33-2.55-4.15-1.05-.54-2.37-.81-3.93-.81-1.74,0-3.13,.35-4.17,1.05s-1.56,1.68-1.56,2.94c0,1.16,.51,2.02,1.54,2.59,.66,.38,2.07,.83,4.22,1.34l5.58,1.34c2.45,.59,4.29,1.37,5.54,2.35,1.93,1.52,2.9,3.73,2.9,6.61s-1.13,5.42-3.39,7.37c-2.26,1.96-5.46,2.93-9.59,2.93s-7.54-.96-9.95-2.89c-2.42-1.93-3.63-4.57-3.63-7.94h6.46c.21,1.48,.61,2.59,1.21,3.32,1.1,1.33,2.98,2,5.65,2Z" style="fill: #c936f1;"/>
      <path d="M282.17,231.52c-4.63,0-8.17-1.26-10.61-3.78-3.28-3.09-4.92-7.54-4.92-13.36s1.64-10.38,4.92-13.36c2.45-2.52,5.98-3.78,10.61-3.78s8.17,1.26,10.61,3.78c3.27,2.97,4.9,7.43,4.9,13.36s-1.63,10.27-4.9,13.36c-2.45,2.52-5.98,3.78-10.61,3.78Zm6.39-8.7c1.57-1.98,2.35-4.79,2.35-8.44s-.79-6.44-2.36-8.43c-1.58-1.99-3.7-2.98-6.38-2.98s-4.82,.99-6.42,2.97c-1.6,1.98-2.4,4.79-2.4,8.44s.8,6.46,2.4,8.44c1.6,1.98,3.74,2.97,6.42,2.97s4.81-.99,6.39-2.97Z" style="fill: #c936f1;"/>
      <path d="M321.54,230.62h-6.31v-32.39h9.84l5.89,25.47,5.84-25.47h9.73v32.39h-6.31v-21.91c0-.63,0-1.51,.02-2.65,.02-1.13,.02-2.01,.02-2.62l-6.13,27.18h-6.57l-6.09-27.18c0,.62,0,1.49,.02,2.62,.01,1.14,.02,2.02,.02,2.65v21.91Z" style="fill: #c936f1;"/>
      <path d="M371.79,223.96h-11.93l-2.24,6.66h-7.08l11.56-32.39h7.65l11.47,32.39h-7.34l-2.09-6.66Zm-1.89-5.58l-4.04-12.74-4.17,12.74h8.22Z" style="fill: #c936f1;"/>
      <path d="M405.19,229.83c-1.79,1.1-3.98,1.65-6.59,1.65-4.29,0-7.81-1.49-10.55-4.46-2.86-2.99-4.29-7.08-4.29-12.26s1.44-9.45,4.33-12.61,6.7-4.75,11.45-4.75c4.12,0,7.42,1.04,9.92,3.13,2.5,2.09,3.93,4.69,4.3,7.81h-6.66c-.51-2.21-1.77-3.76-3.76-4.64-1.11-.48-2.35-.73-3.71-.73-2.61,0-4.75,.99-6.43,2.96-1.68,1.97-2.52,4.93-2.52,8.89s.91,6.8,2.72,8.46,3.88,2.48,6.2,2.48,4.13-.66,5.58-1.97c1.45-1.31,2.34-3.03,2.68-5.15h-7.49v-5.41h13.49v17.38h-4.48l-.68-4.04c-1.3,1.54-2.48,2.62-3.52,3.25Z" style="fill: #c936f1;"/>
      <path d="M419.8,198.23h6.72v32.39h-6.72v-32.39Z" style="fill: #c936f1;"/>
      <path d="M455.68,228.21c-2.42,2.21-5.51,3.32-9.27,3.32-4.66,0-8.32-1.49-10.99-4.48-2.67-3-4-7.12-4-12.35,0-5.65,1.52-10.01,4.55-13.07,2.64-2.67,5.99-4,10.06-4,5.45,0,9.43,1.79,11.95,5.36,1.39,2.01,2.14,4.02,2.24,6.04h-6.77c-.44-1.55-1-2.72-1.69-3.52-1.23-1.41-3.05-2.11-5.47-2.11s-4.4,.99-5.82,2.98c-1.42,1.99-2.13,4.79-2.13,8.43s.75,6.35,2.25,8.16c1.5,1.81,3.41,2.71,5.72,2.71s4.18-.78,5.43-2.33c.69-.83,1.26-2.09,1.71-3.76h6.7c-.59,3.53-2.08,6.4-4.48,8.61Z" style="fill: #c936f1;"/>
      <path d="M484.29,223.96h-11.93l-2.24,6.66h-7.08l11.56-32.39h7.65l11.47,32.39h-7.34l-2.09-6.66Zm-1.89-5.58l-4.04-12.74-4.17,12.74h8.22Z" style="fill: #c936f1;"/>
      <path d="M497.83,198.23h6.77v26.57h16.04v5.82h-22.81v-32.39Z" style="fill: #c936f1;"/>
    </g>
    <g>
      <path d="M21.03,217.38h-3.71l-.7,2.07h-2.2l3.6-10.08h2.38l3.57,10.08h-2.28l-.65-2.07Zm-.59-1.74l-1.26-3.96-1.3,3.96h2.56Z"/>
      <path d="M33.39,219.45h-2.11l-4.12-7.16v7.16h-1.96v-10.08h2.21l4.01,7.03v-7.03h1.96v10.08Z"/>
      <path d="M39.69,219.45h-4.34v-10.08h4.34c.62,0,1.14,.08,1.56,.22,.71,.23,1.28,.66,1.72,1.28,.35,.5,.59,1.04,.72,1.63s.19,1.14,.19,1.67c0,1.34-.27,2.47-.81,3.4-.73,1.25-1.85,1.88-3.38,1.88Zm1.57-7.51c-.32-.55-.96-.82-1.92-.82h-1.94v6.58h1.94c.99,0,1.69-.49,2.08-1.47,.21-.54,.32-1.18,.32-1.92,0-1.03-.16-1.81-.48-2.37Z"/>
    </g>
    <g>
      <path d="M13.6,226.37h7.32v35.27h-7.32v-35.27Z"/>
      <path d="M52.79,232.62h-17.68v8.11h15.48v6.12h-15.48v14.79h-7.32v-35.22h25v6.2Z"/>
    </g>
    <g>
      <path d="M70.94,257.31c.02,.12,.06,.29,.12,.49,.06,.2,.09,.43,.09,.68,0,.51-.12,.9-.38,1.17s-.71,.4-1.37,.41l-6.44,.04v1.24h-.84v-1.24l-2.46,.02v-1.02l2.44-.02v-1.65h.84v1.64l6.05-.04c.21,0,.4,0,.56-.02,.16-.01,.29-.05,.39-.1,.1-.06,.17-.15,.22-.27,.04-.12,.07-.29,.07-.5,0-.14-.01-.27-.04-.42s-.05-.28-.09-.42h.83Z"/>
      <path d="M70.89,255.67l-12.24,.08v-1.02l4.65-.03c-.43-.41-.79-.83-1.06-1.26-.28-.43-.42-.96-.42-1.57,0-.54,.09-1.05,.27-1.51,.18-.47,.51-.86,.97-1.18,.32-.22,.64-.35,.98-.39,.33-.04,.68-.06,1.04-.07l5.76-.04v1.02l-5.74,.04c-.79,0-1.39,.19-1.78,.54-.39,.35-.59,.94-.58,1.76,0,.32,.05,.61,.15,.87,.1,.26,.23,.49,.39,.7,.16,.21,.34,.39,.55,.53,.21,.15,.42,.26,.65,.33,.28,.1,.56,.16,.82,.18,.26,.02,.54,.03,.85,.03l4.74-.03v1.02Z"/>
      <path d="M66.66,245.62c.48,0,.93-.07,1.35-.2s.79-.31,1.1-.56c.31-.25,.56-.56,.74-.93,.19-.38,.28-.81,.27-1.29,0-.67-.18-1.24-.54-1.71-.36-.47-.86-.79-1.5-.94v-1.14c.41,.12,.8,.28,1.16,.49,.36,.2,.67,.45,.94,.76,.27,.3,.48,.67,.63,1.08,.15,.42,.23,.91,.23,1.46,0,.7-.11,1.31-.34,1.82-.23,.51-.56,.93-.97,1.26-.41,.33-.9,.58-1.46,.74-.56,.16-1.16,.25-1.81,.25-.65,0-1.25-.08-1.82-.27-.57-.18-1.07-.45-1.49-.79-.43-.34-.76-.76-1.01-1.26-.25-.5-.37-1.06-.38-1.7,0-1.21,.4-2.17,1.23-2.87s2.04-1.04,3.62-1.04l.05,6.83Zm-.89-5.74c-.43,0-.83,.06-1.21,.19-.38,.12-.71,.3-.98,.53-.28,.23-.49,.53-.66,.88-.16,.35-.24,.76-.24,1.21s.09,.85,.26,1.2c.17,.34,.4,.64,.69,.88,.29,.24,.62,.44,.99,.58s.77,.24,1.19,.28l-.04-5.75Z"/>
      <path d="M70.76,235.7v1.02l-8.8,.06v-1.02h1.64v-.05c-.71-.28-1.2-.64-1.48-1.09-.28-.45-.42-1.04-.43-1.77h1.1c0,.57,.09,1.05,.28,1.42,.2,.37,.46,.67,.79,.89,.33,.22,.72,.37,1.17,.45,.45,.08,.92,.12,1.4,.12l4.32-.03Z"/>
      <path d="M66.55,230.51c.48,0,.93-.07,1.35-.2,.42-.13,.79-.31,1.1-.56,.31-.25,.56-.56,.74-.93,.18-.38,.28-.81,.27-1.29,0-.67-.18-1.24-.54-1.71-.35-.47-.86-.79-1.5-.94v-1.14c.41,.12,.8,.28,1.16,.49,.36,.2,.67,.45,.94,.76,.27,.3,.48,.67,.63,1.08,.15,.42,.23,.91,.23,1.46,0,.7-.11,1.31-.34,1.82-.23,.51-.56,.93-.97,1.26-.41,.33-.9,.58-1.46,.74-.56,.16-1.16,.25-1.81,.25-.65,0-1.25-.08-1.82-.27-.57-.18-1.07-.45-1.49-.79-.43-.34-.76-.76-1.01-1.26-.25-.5-.37-1.06-.38-1.7,0-1.21,.4-2.17,1.23-2.87s2.04-1.04,3.62-1.04l.05,6.83Zm-.89-5.74c-.43,0-.84,.06-1.21,.19-.38,.12-.71,.3-.98,.53s-.5,.53-.66,.88c-.16,.35-.24,.76-.24,1.21,0,.45,.09,.85,.26,1.2,.17,.34,.4,.64,.69,.88,.29,.24,.62,.44,.99,.58s.77,.24,1.19,.28l-.04-5.75Z"/>
      <path d="M58.54,222.2v-1.33l2.34-1.9v.87l-2.34,2.36Z"/>
      <path d="M67.86,215.42c.76-.16,1.29-.45,1.6-.87,.31-.42,.46-1.01,.46-1.78,0-.37-.05-.7-.14-.97-.09-.27-.21-.5-.37-.67-.16-.17-.33-.31-.52-.4s-.4-.13-.61-.13c-.43,0-.75,.14-.96,.42-.21,.28-.37,.63-.49,1.05-.12,.42-.21,.87-.3,1.36-.08,.49-.21,.94-.37,1.36-.17,.42-.41,.77-.72,1.05-.32,.28-.76,.42-1.34,.42-.74,0-1.34-.26-1.82-.79-.47-.53-.71-1.29-.72-2.28,0-.95,.2-1.73,.62-2.32,.42-.6,1.13-.96,2.13-1.09v1.04c-.67,.09-1.15,.36-1.42,.78-.27,.43-.41,.96-.41,1.61,0,.65,.15,1.14,.43,1.48s.65,.5,1.1,.5c.4,0,.7-.14,.91-.42,.21-.28,.38-.63,.5-1.05,.13-.42,.24-.87,.34-1.36,.1-.49,.24-.94,.42-1.36,.18-.42,.43-.77,.75-1.05,.32-.28,.76-.42,1.32-.43,.42,0,.79,.09,1.12,.26,.32,.18,.6,.43,.81,.74,.22,.32,.38,.69,.49,1.13s.17,.91,.17,1.44c0,.52-.07,.98-.22,1.39s-.36,.75-.63,1.03c-.27,.29-.59,.51-.95,.67-.36,.16-.75,.25-1.17,.28v-1.04Z"/>
    </g>
    <g>
      <path d="M94.46,235.1v16.49c.04,2.94,.22,4.7,.53,5.3,.31,.6,1.21,.9,2.71,.9h3.92c2.7,0,4.44-.31,5.23-.93,.79-.62,1.18-1.96,1.18-4.03v-.25c0-.95-.02-1.86-.06-2.73,0-.54-.02-1.09-.06-1.67-.04-.58-.06-.89-.06-.93,0-1.94,.7-2.91,2.11-2.91s2.05,.85,2.05,2.54c0,.41-.03,1.14-.09,2.17-.15,2.52-.22,4.17-.22,4.96,0,.99,.04,1.96,.12,2.91,.12,1.45,.19,2.21,.19,2.29,0,1.74-.89,2.6-2.67,2.6-.54,0-1.38-.06-2.54-.19-.46-.04-1.84-.12-4.15-.25-2.48-.12-4.07-.19-4.77-.19-3.39,0-5.91,.1-7.56,.31-1.65,.21-2.87,.31-3.66,.31-1.57,0-2.36-.83-2.36-2.48,0-1.36,.66-2.05,1.98-2.05,.41,0,.72,.08,.93,.25,.66,.17,1.03,.25,1.12,.25,.78,0,1.28-.61,1.49-1.84,.21-1.22,.31-4.22,.31-8.99v-11.82c0-4.81-.1-7.83-.31-9.05-.21-1.22-.7-1.84-1.49-1.84-.21,0-.54,.05-.99,.15-.46,.1-.81,.16-1.05,.16-1.32,0-1.98-.7-1.98-2.11,0-1.61,.79-2.42,2.36-2.42,.58,0,1.49,.11,2.73,.34,1.24,.23,2.21,.34,2.91,.34,.66,0,1.61-.11,2.85-.34,1.24-.23,2.17-.34,2.79-.34,.66,0,1.22,.24,1.67,.71,.45,.48,.68,1.04,.68,1.71,0,1.41-.68,2.11-2.05,2.11-.12,0-.41-.05-.87-.16-.46-.1-.85-.15-1.18-.15-.79,0-1.27,.61-1.46,1.83-.19,1.22-.28,4.23-.28,9.02Z" style="fill: #d80000;"/>
      <path d="M129.55,262.44c-4.05,0-7.28-1.94-9.7-5.83-2.42-3.88-3.63-9.09-3.63-15.62s1.21-11.75,3.63-15.65,5.65-5.86,9.7-5.86,7.27,1.94,9.67,5.83c2.4,3.89,3.6,9.11,3.6,15.69s-1.2,11.74-3.6,15.62c-2.4,3.89-5.62,5.83-9.67,5.83Zm.06-38.63c-2.77,0-4.91,1.51-6.42,4.53-1.51,3.02-2.26,7.23-2.26,12.65s.75,9.52,2.26,12.56c1.51,3.04,3.58,4.56,6.23,4.56s4.86-1.51,6.39-4.53c1.53-3.02,2.29-7.21,2.29-12.59s-.75-9.53-2.26-12.59c-1.51-3.06-3.59-4.59-6.23-4.59Z" style="fill: #d80000;"/>
      <path d="M154.79,230.06l6.26,25.07,5.89-27.48c.17-.82,.25-1.44,.25-1.85,0-.91-.37-1.36-1.12-1.36h-1.8c-1.16,0-1.74-.7-1.74-2.11,0-1.53,.74-2.29,2.23-2.29,.54,0,1.38,.12,2.54,.37,.99,.21,1.9,.31,2.73,.31,.62,0,1.49-.11,2.6-.34,1.12-.23,1.92-.34,2.42-.34,1.4,0,2.11,.76,2.11,2.29,0,1.41-.6,2.11-1.8,2.11-.21,0-.49-.03-.84-.09-.35-.06-.63-.09-.84-.09-.83,0-1.63,1.59-2.42,4.77l-1.12,4.53-6.39,26.41c-.37,1.49-1.32,2.23-2.85,2.23-.99,0-1.67-.21-2.05-.62-.33-.29-.64-.99-.93-2.11l-7.94-29.76c-.91-3.51-1.88-5.27-2.91-5.27h-.19c-.12,.04-.21,.06-.25,.06-.25,.04-.52,.08-.81,.12-.5,0-.92-.24-1.27-.71s-.53-1.02-.53-1.64c0-1.49,.74-2.23,2.23-2.23,.58,0,1.43,.11,2.54,.34,1.12,.23,1.96,.34,2.54,.34,.95,0,1.76-.1,2.42-.31,1.32-.25,2.21-.37,2.67-.37,1.4,0,2.11,.73,2.11,2.2,0,.61-.21,1.13-.62,1.56-.41,.43-.91,.64-1.49,.64h-1.55c-.74,0-1.12,.41-1.12,1.24,0,.37,.16,1.19,.5,2.47l.5,1.91Z" style="fill: #d80000;"/>
      <path d="M188.82,230.82v3.84l.06,1.3c.04,1.16,.43,1.74,1.17,1.74h2.39c1.68,0,2.52-.97,2.52-2.91,0-.62-.02-1.14-.06-1.55-.12-1.2-.19-1.88-.19-2.05,0-1.57,.62-2.36,1.86-2.36s1.8,.97,1.8,2.91v1.3l-.25,3.35c-.08,1.12-.12,2.25-.12,3.41,0,2.03,.09,4.05,.27,6.08,.07,.83,.11,1.36,.11,1.61,0,1.65-.62,2.48-1.86,2.48s-1.8-.85-1.8-2.54c0-.37,.04-.95,.12-1.74,.08-.79,.12-1.36,.12-1.74,0-1.74-.78-2.6-2.33-2.6h-2.58c-.57,0-.92,.12-1.04,.37-.12,.25-.18,.95-.18,2.12v10.52c0,1.41,.35,2.3,1.05,2.68,.5,.25,1.51,.37,3.04,.37h3.35c2.73,0,4.53-.37,5.39-1.12s1.3-2.3,1.3-4.67c0-.54-.04-1.34-.12-2.4-.08-1.06-.12-1.86-.12-2.4,0-1.87,.68-2.8,2.05-2.8s2.05,.83,2.05,2.48c0,.29-.04,.97-.12,2.05-.25,1.41-.37,3.02-.37,4.84v5.33c0,1.12-.23,1.89-.68,2.33-.45,.43-1.28,.65-2.47,.65-.7,0-1.58-.06-2.65-.19-1.77-.21-4.36-.31-7.78-.31-.29,0-1.96,.06-5,.19-1.69,.08-2.88,.17-3.58,.25-1.48,.21-2.55,.31-3.21,.31-1.6,0-2.41-.83-2.41-2.48,0-1.36,.66-2.05,1.98-2.05,.41,0,.72,.04,.93,.12,.66,.08,1.03,.12,1.12,.12,.78,0,1.28-.61,1.49-1.82,.21-1.21,.31-4.19,.31-8.93v-11.74c0-4.78-.1-7.77-.31-8.99-.21-1.21-.7-1.82-1.49-1.82-.21,0-.54,.03-.99,.09-.46,.06-.81,.09-1.05,.09-1.32,0-1.98-.7-1.98-2.11,0-1.61,.79-2.42,2.36-2.42,.37,0,1.74,.17,4.09,.5,.87,.12,1.94,.19,3.22,.19,3.26,0,6.74-.14,10.42-.43,1.03-.17,2.38-.25,4.03-.25,1.82,0,2.83,.48,3.04,1.43,.08,.41,.12,.99,.12,1.74,0,.58-.02,1.34-.06,2.29-.12,2.65-.12,4.8,0,6.45l.19,2.98c0,1.7-.64,2.54-1.92,2.54-1.41,0-2.11-.92-2.11-2.76,0-.53,.02-1.3,.06-2.3,.04-1,.06-1.77,.06-2.3,0-2.25-.33-3.77-.99-4.54s-1.93-1.17-3.83-1.17h-4.75c-1.65,0-2.66,.35-3.05,1.05-.39,.7-.59,2.5-.59,5.39Z" style="fill: #d80000;"/>
    </g>
    <g>
      <path d="M135.58,293.65l-1.01-1.68,1.24-.75,1.01,1.68-1.24,.75Zm7.21,11.86l-5.87-9.77,1.13-.68,5.87,9.77-1.13,.68Z"/>
      <path d="M147.93,302.42l-1.13,.68-5.87-9.77,1.13-.68,.82,1.36c.17-.75,.4-1.42,.7-2.01,.3-.59,.79-1.09,1.47-1.5,.6-.36,1.22-.59,1.87-.7,.64-.1,1.29,0,1.95,.3,.45,.21,.81,.49,1.08,.83,.27,.34,.52,.72,.76,1.12l3.84,6.39-1.13,.68-3.83-6.37c-.53-.88-1.12-1.42-1.78-1.63-.65-.21-1.43-.04-2.34,.51-.35,.21-.64,.46-.87,.74-.22,.28-.4,.58-.53,.89-.13,.32-.2,.64-.23,.96s0,.64,.05,.94c.08,.38,.19,.72,.34,1.03,.15,.3,.33,.62,.53,.96l3.16,5.26Z"/>
      <path d="M165.98,291.62c-.12,.11-.28,.26-.47,.46-.19,.2-.42,.38-.7,.55-.57,.34-1.08,.46-1.55,.35-.47-.1-.92-.52-1.36-1.25l-4.3-7.15-1.38,.83-.57-.94,1.38-.83-1.63-2.71,1.13-.68,1.63,2.71,1.83-1.1,.57,.94-1.83,1.1,4.02,6.69c.14,.24,.28,.44,.39,.61,.12,.17,.24,.29,.38,.37,.13,.07,.28,.1,.44,.07,.16-.03,.36-.12,.6-.26,.15-.09,.3-.2,.44-.32,.14-.12,.28-.24,.4-.37l.56,.92Z"/>
      <path d="M167.77,290.49l-8.16-13.57,1.13-.68,3.11,5.17c.16-.75,.4-1.42,.7-2.01,.3-.59,.79-1.09,1.47-1.5,.6-.36,1.22-.59,1.87-.7,.64-.1,1.29,0,1.95,.3,.45,.21,.81,.49,1.08,.83,.27,.34,.52,.72,.76,1.12l3.84,6.39-1.13,.68-3.83-6.37c-.53-.88-1.12-1.42-1.78-1.63-.65-.21-1.43-.04-2.34,.51-.35,.21-.64,.46-.87,.74-.22,.28-.4,.58-.53,.89-.13,.32-.2,.64-.23,.96-.03,.32,0,.64,.05,.94,.08,.38,.19,.72,.34,1.03,.15,.3,.32,.62,.53,.96l3.16,5.26-1.13,.68Z"/>
      <path d="M171.21,272.22l-1.01-1.68,1.24-.75,1.01,1.68-1.24,.75Zm7.21,11.86l-5.87-9.77,1.13-.68,5.87,9.77-1.13,.68Z"/>
      <path d="M181.26,278.22c.68,.74,1.36,1.14,2.02,1.21,.67,.07,1.43-.15,2.28-.67,.42-.25,.74-.52,.98-.8,.24-.28,.41-.57,.5-.85s.13-.57,.1-.84c-.03-.27-.11-.53-.26-.77-.29-.48-.65-.74-1.1-.79-.45-.05-.94,0-1.49,.15-.54,.15-1.12,.34-1.71,.57-.6,.23-1.19,.39-1.76,.48-.58,.09-1.13,.05-1.65-.11-.52-.17-.97-.57-1.36-1.21-.49-.82-.6-1.67-.31-2.55,.28-.88,.97-1.65,2.06-2.31,1.06-.63,2.06-.91,3-.84s1.82,.62,2.62,1.65l-1.15,.69c-.55-.69-1.16-1.05-1.82-1.08-.66-.02-1.34,.18-2.06,.61-.72,.43-1.17,.91-1.36,1.45-.19,.53-.14,1.05,.17,1.56,.26,.44,.62,.68,1.07,.73,.45,.05,.95,0,1.5-.13s1.13-.31,1.74-.52c.61-.21,1.21-.35,1.8-.43,.59-.07,1.15-.02,1.66,.14,.52,.17,.97,.56,1.35,1.19,.28,.46,.43,.94,.44,1.42s-.08,.94-.29,1.39c-.21,.45-.52,.88-.93,1.29s-.91,.79-1.49,1.14c-.58,.35-1.14,.57-1.69,.67-.55,.1-1.07,.09-1.57-.02-.5-.11-.95-.32-1.37-.61-.42-.3-.78-.67-1.08-1.12l1.15-.69Z"/>
    </g>
    <g>
      <path d="M177.5,295.13l-5.77,27.16h16.4l-1.26,5.95h-23.31l7.03-33.11h6.92Z" style="fill: #60605e;"/>
      <path d="M191.11,328.24l7.03-33.11h6.87l-7.03,33.11h-6.87Z" style="fill: #60605e;"/>
      <path d="M229.99,308.61l-1.21,5.75h-14.53l-2.94,13.88h-6.87l7.01-33.06h23.47l-1.24,5.82h-16.6l-1.62,7.61h14.53Z" style="fill: #60605e;"/>
      <path d="M259.08,322.29l-1.26,5.95h-25.09l7.03-33.11h24.28l-1.26,5.86h-17.52l-1.48,7.03h16.08l-1.24,5.75h-16.08l-1.8,8.51h18.33Z" style="fill: #60605e;"/>
    </g>
    <g>
      <path d="M280.57,322.39c.03,.17,.09,.39,.17,.66,.08,.28,.12,.58,.12,.92,0,.69-.17,1.22-.51,1.58-.34,.36-.96,.55-1.85,.55l-8.72,.06v1.68h-1.14v-1.67l-3.32,.02v-1.38l3.3-.02-.02-2.23h1.15l.02,2.22,8.16-.06c.29,0,.54-.01,.76-.03,.21-.02,.39-.06,.53-.14,.14-.08,.24-.2,.3-.36s.09-.39,.09-.68c0-.18-.02-.37-.05-.56-.03-.19-.07-.38-.12-.56h1.13Z"/>
      <path d="M280.51,320.18l-16.56,.12v-1.38l6.29-.04c-.59-.55-1.07-1.12-1.44-1.7s-.56-1.29-.57-2.12c0-.74,.12-1.42,.37-2.05,.25-.63,.69-1.16,1.31-1.6,.43-.29,.87-.47,1.32-.53,.45-.06,.92-.09,1.41-.09l7.8-.05v1.38l-7.76,.05c-1.07,0-1.88,.25-2.41,.73-.53,.48-.8,1.27-.79,2.38,0,.43,.07,.82,.2,1.17,.13,.35,.31,.67,.52,.95,.22,.28,.46,.52,.74,.72,.28,.2,.57,.35,.88,.45,.38,.14,.75,.22,1.1,.25,.35,.03,.74,.04,1.15,.04l6.42-.04v1.38Z"/>
      <path d="M274.78,306.58c.64,0,1.25-.09,1.83-.27,.57-.17,1.07-.43,1.49-.76s.75-.75,1-1.26c.25-.51,.37-1.09,.37-1.75,0-.9-.25-1.68-.73-2.32-.48-.64-1.16-1.07-2.03-1.27v-1.54c.56,.17,1.08,.38,1.57,.66,.48,.27,.91,.62,1.27,1.03s.65,.9,.85,1.47c.2,.57,.31,1.22,.31,1.98,0,.95-.15,1.77-.47,2.46-.32,.69-.75,1.26-1.31,1.71-.56,.45-1.21,.78-1.97,1-.76,.22-1.57,.33-2.45,.34-.87,0-1.7-.11-2.46-.36-.77-.25-1.44-.6-2.02-1.07-.58-.46-1.03-1.03-1.37-1.7s-.5-1.44-.51-2.3c-.01-1.64,.54-2.93,1.66-3.88,1.12-.94,2.75-1.41,4.9-1.41l.06,9.25Zm-1.2-7.77c-.58,0-1.13,.09-1.64,.25-.51,.17-.96,.41-1.33,.72-.37,.32-.67,.71-.89,1.19-.22,.48-.33,1.02-.32,1.63,0,.61,.12,1.15,.36,1.62,.23,.47,.54,.86,.93,1.19,.38,.33,.83,.59,1.34,.79,.51,.2,1.04,.32,1.61,.38l-.05-7.77Z"/>
      <path d="M280.32,293.15v1.38l-11.9,.08v-1.38l2.22-.02v-.05c-.95-.38-1.62-.87-2-1.47-.38-.6-.57-1.4-.58-2.4h1.5c0,.77,.12,1.42,.38,1.92,.26,.5,.62,.9,1.07,1.2,.45,.3,.97,.5,1.58,.61,.61,.11,1.24,.16,1.9,.16l5.84-.04Z"/>
      <path d="M274.64,286.13c.64,0,1.25-.09,1.83-.27s1.07-.42,1.49-.76c.42-.33,.75-.75,1-1.26,.25-.51,.37-1.09,.37-1.75,0-.91-.25-1.68-.73-2.32-.48-.64-1.16-1.07-2.03-1.27v-1.54c.56,.17,1.08,.38,1.57,.66,.48,.27,.91,.61,1.27,1.03s.65,.9,.85,1.47c.2,.57,.31,1.22,.31,1.98,0,.95-.15,1.77-.47,2.46-.32,.69-.75,1.26-1.31,1.71-.56,.45-1.21,.78-1.97,1-.76,.22-1.57,.33-2.45,.34s-1.7-.11-2.46-.36c-.77-.25-1.44-.6-2.02-1.07-.58-.46-1.03-1.03-1.37-1.7-.33-.67-.5-1.44-.51-2.3-.01-1.64,.54-2.93,1.66-3.88,1.12-.94,2.75-1.42,4.9-1.41l.06,9.25Zm-1.21-7.77c-.58,0-1.13,.09-1.64,.25-.51,.16-.96,.41-1.33,.72-.37,.32-.67,.71-.89,1.19-.22,.48-.33,1.02-.32,1.64s.12,1.15,.36,1.62c.23,.47,.54,.86,.93,1.19,.38,.33,.83,.59,1.34,.78,.51,.2,1.04,.32,1.61,.38l-.05-7.77Z"/>
      <path d="M263.8,274.89v-1.79l3.17-2.58v1.17l-3.17,3.2Z"/>
      <path d="M276.41,265.72c1.03-.22,1.75-.61,2.17-1.18,.42-.56,.62-1.36,.62-2.41,0-.51-.07-.94-.19-1.31s-.29-.67-.5-.91c-.21-.24-.44-.42-.71-.54-.26-.12-.54-.18-.83-.18-.58,0-1.01,.2-1.3,.57-.28,.38-.5,.85-.66,1.42s-.29,1.18-.4,1.84c-.11,.66-.28,1.27-.5,1.84-.23,.57-.55,1.04-.98,1.42-.43,.38-1.03,.57-1.81,.58-1,0-1.82-.35-2.46-1.08s-.97-1.75-.98-3.09c0-1.29,.27-2.34,.84-3.15,.57-.81,1.53-1.3,2.88-1.48v1.4c-.91,.13-1.55,.48-1.93,1.06-.37,.58-.55,1.3-.55,2.18,0,.88,.2,1.54,.58,2,.38,.46,.88,.68,1.49,.68,.54,0,.94-.2,1.23-.57,.28-.38,.51-.85,.68-1.42,.17-.57,.32-1.18,.46-1.84,.13-.66,.32-1.27,.57-1.84,.25-.57,.59-1.04,1.01-1.42,.43-.38,1.02-.57,1.79-.58,.57,0,1.07,.12,1.51,.36,.44,.24,.81,.58,1.1,1s.52,.94,.67,1.52c.15,.59,.23,1.24,.23,1.94,0,.71-.09,1.33-.3,1.88-.2,.54-.49,1.01-.85,1.4-.37,.39-.79,.69-1.28,.91-.49,.22-1.02,.34-1.58,.38v-1.4Z"/>
    </g>
    <g>
      <path d="M302.52,257.91h-.09v27h-2.92v-30.96h3.31l17.89,27.05h.09v-27.05h2.92v30.96h-3.4l-17.8-27Z"/>
      <path d="M329.43,269.47c0-2.26,.31-4.39,.92-6.36,.62-1.98,1.53-3.71,2.73-5.18s2.69-2.64,4.47-3.5c1.78-.86,3.83-1.29,6.15-1.29s4.52,.42,6.34,1.27c1.82,.85,3.34,2.01,4.56,3.48,1.22,1.48,2.13,3.21,2.75,5.2,.62,1.99,.92,4.12,.92,6.39s-.31,4.34-.92,6.3c-.62,1.96-1.53,3.68-2.73,5.16-1.2,1.48-2.71,2.64-4.52,3.5-1.81,.86-3.9,1.29-6.28,1.29s-4.47-.43-6.28-1.29c-1.81-.86-3.31-2.03-4.51-3.5-1.2-1.48-2.11-3.2-2.71-5.16-.6-1.96-.9-4.06-.9-6.3Zm14.45,13.76c2.01,0,3.73-.38,5.18-1.14,1.45-.76,2.64-1.77,3.57-3.03,.93-1.26,1.62-2.72,2.06-4.39,.44-1.66,.67-3.4,.67-5.2,0-2.15-.27-4.08-.79-5.78-.53-1.71-1.3-3.16-2.3-4.36-1-1.2-2.22-2.12-3.66-2.75-1.43-.63-3.04-.95-4.82-.95-1.98,0-3.69,.39-5.14,1.16-1.45,.77-2.64,1.8-3.57,3.07-.93,1.28-1.62,2.75-2.06,4.41-.45,1.66-.67,3.4-.67,5.2s.22,3.58,.67,5.25c.44,1.66,1.13,3.12,2.06,4.39s2.12,2.26,3.57,3.01c1.45,.75,3.19,1.12,5.22,1.12Z"/>
    </g>
    <g>
      <path d="M334.82,305.93c2.16,2.7,3.23,5.9,3.23,9.59s-1.08,6.96-3.23,9.62-5.43,4-9.82,4-7.66-1.33-9.82-4-3.23-5.87-3.23-9.62,1.08-6.88,3.23-9.59,5.43-4.05,9.82-4.05,7.66,1.35,9.82,4.05Zm-9.84,1.59c-1.95,0-3.46,.69-4.51,2.07s-1.58,3.36-1.58,5.92,.53,4.54,1.58,5.93,2.56,2.09,4.51,2.09,3.45-.7,4.5-2.09,1.57-3.37,1.57-5.93-.52-4.54-1.57-5.92-2.55-2.07-4.5-2.07Z"/>
      <path d="M356.71,328.92c-2.11,0-3.8-.42-5.09-1.27-.77-.5-1.59-1.38-2.48-2.62v3.21h-6.54v-34.5h6.66v12.28c.84-1.19,1.77-2.09,2.79-2.72,1.2-.78,2.73-1.17,4.59-1.17,3.36,0,5.99,1.21,7.89,3.63s2.85,5.55,2.85,9.38-.94,7.26-2.81,9.87-4.49,3.91-7.85,3.91Zm3.66-13.08c0-1.81-.23-3.31-.7-4.5-.89-2.25-2.53-3.38-4.92-3.38s-4.09,1.1-4.99,3.3c-.47,1.17-.7,2.69-.7,4.55,0,2.19,.48,4,1.45,5.44s2.45,2.16,4.43,2.16c1.72,0,3.05-.7,4.01-2.09s1.43-3.22,1.43-5.48Z"/>
      <path d="M389.75,303.87c2,1.28,3.15,3.48,3.45,6.61h-6.68c-.09-.86-.34-1.54-.73-2.04-.73-.91-1.98-1.36-3.75-1.36-1.45,0-2.49,.23-3.11,.68s-.93,.98-.93,1.59c0,.77,.33,1.32,.98,1.66,.66,.36,2.98,.98,6.96,1.85,2.66,.62,4.65,1.57,5.98,2.84,1.31,1.28,1.97,2.88,1.97,4.8,0,2.53-.94,4.6-2.82,6.2s-4.79,2.4-8.73,2.4-6.98-.85-8.89-2.54-2.87-3.86-2.87-6.48h6.77c.14,1.19,.45,2.03,.91,2.53,.83,.89,2.36,1.34,4.59,1.34,1.31,0,2.36-.2,3.13-.59s1.16-.98,1.16-1.76-.31-1.32-.94-1.71-2.95-1.06-6.96-2.02c-2.89-.72-4.93-1.62-6.12-2.7-1.19-1.06-1.78-2.59-1.78-4.59,0-2.36,.93-4.39,2.78-6.08s4.46-2.54,7.82-2.54,5.79,.63,7.8,1.9Z"/>
      <path d="M410.54,323.48v4.99l-3.16,.12c-3.16,.11-5.31-.44-6.47-1.64-.75-.77-1.12-1.95-1.12-3.54v-15.73h-3.56v-4.76h3.56v-7.12h6.61v7.12h4.15v4.76h-4.15v13.5c0,1.05,.13,1.7,.4,1.96s1.08,.39,2.44,.39c.2,0,.42,0,.64-.01s.45-.02,.67-.04Z"/>
      <path d="M415.79,305.46c1.77-2.25,4.8-3.38,9.09-3.38,2.8,0,5.28,.55,7.45,1.66s3.26,3.2,3.26,6.28v11.72c0,.81,.02,1.8,.05,2.95,.05,.88,.18,1.47,.4,1.78s.55,.57,.98,.77v.98h-7.27c-.2-.52-.34-1-.42-1.45s-.14-.97-.19-1.55c-.92,1-1.98,1.85-3.19,2.55-1.44,.83-3.06,1.24-4.88,1.24-2.31,0-4.22-.66-5.73-1.98s-2.26-3.19-2.26-5.61c0-3.14,1.21-5.41,3.63-6.82,1.33-.77,3.28-1.31,5.86-1.64l2.27-.28c1.23-.16,2.12-.35,2.65-.59,.95-.41,1.43-1.04,1.43-1.9,0-1.05-.36-1.77-1.09-2.17s-1.79-.6-3.2-.6c-1.58,0-2.7,.39-3.35,1.17-.47,.58-.78,1.36-.94,2.34h-6.45c.14-2.23,.77-4.07,1.88-5.51Zm4.97,17.95c.62,.52,1.39,.77,2.3,.77,1.44,0,2.76-.42,3.97-1.27s1.84-2.38,1.89-4.62v-2.48c-.42,.27-.85,.48-1.28,.64s-1.02,.32-1.77,.46l-1.5,.28c-1.41,.25-2.41,.55-3.02,.91-1.03,.61-1.55,1.55-1.55,2.84,0,1.14,.32,1.96,.96,2.46Z"/>
      <path d="M463.63,311.86h-6.84c-.12-.95-.45-1.81-.96-2.58-.75-1.03-1.91-1.55-3.49-1.55-2.25,0-3.79,1.12-4.62,3.35-.44,1.19-.66,2.77-.66,4.73s.22,3.38,.66,4.52c.8,2.12,2.3,3.19,4.5,3.19,1.56,0,2.67-.42,3.33-1.27s1.05-1.94,1.2-3.28h6.82c-.16,2.03-.89,3.95-2.2,5.77-2.09,2.92-5.2,4.38-9.3,4.38s-7.13-1.22-9.07-3.66-2.91-5.6-2.91-9.49c0-4.39,1.07-7.8,3.21-10.24s5.09-3.66,8.86-3.66c3.2,0,5.82,.72,7.86,2.16s3.25,3.98,3.62,7.62Z"/>
      <path d="M468.36,293.69h6.68v34.55h-6.68v-34.55Z"/>
      <path d="M503.42,320.74c-.17,1.52-.96,3.05-2.37,4.62-2.19,2.48-5.25,3.73-9.19,3.73-3.25,0-6.12-1.05-8.6-3.14s-3.73-5.5-3.73-10.22c0-4.42,1.12-7.81,3.36-10.17s5.15-3.54,8.73-3.54c2.12,0,4.04,.4,5.74,1.2s3.11,2.05,4.22,3.77c1,1.52,1.65,3.27,1.95,5.27,.17,1.17,.24,2.86,.21,5.06h-17.48c.09,2.56,.9,4.36,2.41,5.39,.92,.64,2.03,.96,3.33,.96,1.38,0,2.49-.39,3.35-1.17,.47-.42,.88-1.01,1.24-1.76h6.82Zm-6.61-7.83c-.11-1.77-.64-3.11-1.61-4.02s-2.15-1.37-3.57-1.37c-1.55,0-2.75,.48-3.6,1.45s-1.39,2.28-1.61,3.94h10.38Z"/>
    </g>
    <g>
      <path d="M271.77,420.48l-.1-13.62h1.51l.04,5.92,17.21-.12v1.77l-17.2,.12,.04,5.93h-1.51Z"/>
      <path d="M290.37,404.23l-18.72,.13v-1.77l8.02-.06-.08-11.08-8.03,.06v-1.77l18.71-.13v1.77l-9.16,.06,.08,11.07,9.18-.06v1.77Z"/>
      <path d="M290.26,387.14l-18.77-7.23v-2l18.66-7.31v1.82l-5.85,2.2,.06,8.53,5.89,2.17v1.82Zm-7.4-4.58l-.05-7.33-9.8,3.73,9.85,3.6Z"/>
      <path d="M271.42,369.91l-.1-13.62h1.51l.04,5.92,17.21-.12v1.77l-17.2,.12,.04,5.93h-1.51Z"/>
    </g>
    <g>
      <path d="M310.88,406.66c-.28-1-.77-1.78-1.45-2.34s-1.54-.83-2.58-.83c-.8,0-1.48,.18-2.05,.51-.57,.33-1.03,.77-1.39,1.32-.36,.55-.62,1.17-.79,1.85-.17,.69-.25,1.38-.25,2.07,0,.71,.09,1.4,.26,2.08,.17,.67,.44,1.28,.81,1.81,.37,.54,.84,.96,1.41,1.28,.57,.32,1.27,.47,2.08,.47,1.16,0,2.09-.33,2.79-.98,.7-.65,1.14-1.53,1.32-2.66h1.66c-.13,.74-.35,1.42-.65,2.03-.3,.62-.69,1.15-1.16,1.59-.47,.45-1.04,.79-1.7,1.04-.66,.25-1.41,.37-2.26,.38-1.08,0-2-.17-2.79-.53-.78-.36-1.43-.85-1.93-1.48-.51-.63-.89-1.38-1.13-2.24-.25-.87-.38-1.79-.38-2.78,0-.94,.12-1.83,.38-2.69,.26-.86,.65-1.62,1.17-2.28,.52-.66,1.16-1.19,1.93-1.59,.77-.39,1.66-.6,2.66-.6,1.56-.01,2.82,.35,3.79,1.09,.97,.74,1.58,1.9,1.83,3.47h-1.59Z"/>
      <path d="M321.99,407.96c.29-.04,.64-.09,1.05-.16,.41-.07,.74-.17,1-.29s.42-.33,.48-.61c.06-.29,.09-.55,.09-.79,0-.8-.27-1.45-.78-1.96s-1.38-.76-2.59-.75c-.54,0-1.03,.05-1.48,.15s-.84,.27-1.18,.5c-.34,.24-.61,.55-.83,.94s-.35,.88-.42,1.47h-1.59c.05-.79,.22-1.47,.53-2.03,.31-.57,.71-1.03,1.2-1.39,.49-.36,1.06-.62,1.71-.79,.65-.17,1.34-.26,2.07-.26,.68,0,1.31,.06,1.91,.21,.6,.14,1.12,.37,1.56,.69,.44,.32,.79,.74,1.05,1.28,.25,.54,.39,1.19,.39,1.97l.05,7.33c0,.61,.11,.99,.33,1.16,.22,.16,.65,.12,1.31-.13v1.22c-.11,.04-.29,.09-.52,.16s-.46,.11-.69,.11c-.24,0-.48-.02-.7-.07-.26-.03-.47-.11-.63-.24-.16-.13-.28-.28-.38-.46s-.16-.38-.2-.6c-.04-.22-.05-.45-.06-.69-.65,.73-1.4,1.29-2.25,1.68-.85,.39-1.76,.58-2.75,.59-.59,0-1.16-.07-1.7-.22s-1.03-.39-1.45-.72c-.42-.33-.75-.73-1-1.2s-.37-1.04-.38-1.7c-.02-2.29,1.54-3.65,4.68-4.09l2.16-.3Zm2.63,.76c-.66,.28-1.32,.47-2,.56-.68,.09-1.35,.17-2.03,.22-1.2,.09-2.13,.37-2.79,.83-.66,.45-.99,1.14-.99,2.06,0,.42,.09,.78,.25,1.08,.17,.3,.38,.55,.66,.75,.27,.2,.58,.34,.94,.44,.36,.09,.72,.14,1.08,.13,.62,0,1.23-.09,1.82-.25,.59-.16,1.11-.4,1.57-.73,.46-.32,.82-.73,1.1-1.23,.27-.5,.41-1.08,.4-1.76v-2.11Z"/>
      <path d="M331.87,415.75h-1.56l-.09-13.46h1.56v1.86c.63-.66,1.27-1.21,1.94-1.63s1.46-.63,2.4-.64c.83,0,1.6,.13,2.32,.41,.71,.28,1.31,.78,1.8,1.48,.33,.48,.53,.98,.6,1.49,.06,.51,.1,1.04,.1,1.6l.06,8.81h-1.56l-.06-8.78c0-1.21-.28-2.12-.83-2.72-.54-.6-1.44-.9-2.68-.89-.49,0-.93,.08-1.32,.23-.4,.15-.76,.35-1.08,.59-.32,.25-.59,.52-.81,.84-.22,.31-.39,.64-.51,.99-.15,.43-.25,.85-.28,1.25-.03,.4-.05,.83-.04,1.3l.05,7.25Z"/>
      <path d="M343.94,397.12h2.03l2.91,3.58h-1.33l-3.61-3.58Z"/>
      <path d="M358.16,415.62c-.19,.04-.44,.1-.75,.19-.31,.09-.66,.13-1.04,.14-.78,0-1.38-.19-1.79-.57-.41-.39-.62-1.08-.62-2.09l-.07-9.85h-1.9v-1.29h1.89l-.03-3.76h1.56l.03,3.73,2.52-.02v1.3l-2.51,.02,.06,9.23c0,.33,.01,.62,.03,.86,.02,.24,.07,.44,.16,.6,.09,.16,.22,.27,.41,.34s.44,.1,.77,.1c.21,0,.42-.02,.64-.06,.22-.04,.43-.08,.64-.13v1.27Z"/>
      <path d="M369.62,415.48h-1.56l-.13-18.71h1.56l.05,7.4c.5-.84,1.18-1.47,2.05-1.9,.87-.43,1.79-.65,2.74-.66,1.02,0,1.91,.18,2.67,.57,.76,.38,1.38,.9,1.88,1.55,.5,.65,.87,1.4,1.12,2.27,.25,.87,.38,1.77,.38,2.7,0,.99-.1,1.92-.32,2.78-.22,.87-.57,1.62-1.06,2.26-.49,.64-1.11,1.14-1.88,1.51-.76,.37-1.69,.56-2.78,.57-.43,0-.88-.06-1.33-.17-.45-.12-.89-.29-1.32-.51s-.82-.5-1.18-.84-.65-.73-.88-1.18h-.05l.02,2.37Zm-.05-6.79c0,.82,.11,1.57,.32,2.27,.2,.7,.5,1.3,.88,1.81,.38,.51,.86,.91,1.44,1.2,.57,.29,1.23,.43,1.95,.43,.66,0,1.26-.13,1.82-.36,.55-.24,1.04-.58,1.45-1.04,.41-.45,.73-1.01,.96-1.66,.23-.65,.34-1.4,.33-2.25,.03-.85-.05-1.64-.22-2.38-.18-.74-.46-1.38-.85-1.93s-.88-.99-1.48-1.3c-.6-.32-1.3-.47-2.1-.47-.71,0-1.35,.16-1.91,.47-.56,.31-1.03,.72-1.42,1.23-.39,.51-.68,1.11-.88,1.8-.2,.69-.3,1.41-.3,2.17Z"/>
      <path d="M384.68,409.01c0,.73,.11,1.42,.3,2.07,.2,.65,.48,1.21,.86,1.68,.38,.47,.85,.85,1.42,1.13,.57,.28,1.23,.42,1.98,.42,1.02,0,1.9-.28,2.62-.82,.72-.54,1.2-1.31,1.44-2.3h1.74c-.19,.63-.43,1.22-.74,1.77-.31,.55-.7,1.03-1.16,1.44s-1.02,.73-1.66,.96c-.64,.23-1.38,.35-2.23,.35-1.08,0-2-.17-2.79-.53-.78-.36-1.43-.85-1.93-1.48-.51-.63-.88-1.37-1.13-2.23-.25-.86-.38-1.78-.38-2.77,0-.99,.13-1.92,.41-2.79,.28-.87,.68-1.63,1.21-2.28,.52-.65,1.17-1.17,1.93-1.55,.76-.38,1.63-.57,2.6-.58,1.85-.01,3.31,.61,4.38,1.88,1.07,1.27,1.6,3.11,1.6,5.54l-10.45,.07Zm8.78-1.36c0-.66-.1-1.28-.29-1.86-.19-.58-.46-1.08-.82-1.5-.36-.42-.81-.76-1.35-1-.54-.25-1.16-.37-1.85-.36-.69,0-1.3,.14-1.83,.4-.53,.26-.97,.61-1.34,1.05-.37,.44-.67,.94-.89,1.51-.22,.57-.37,1.18-.43,1.82l8.79-.06Z"/>
    </g>
    <g>
      <path d="M393.57,375.5c.69-.17,1.34-.22,1.97-.15,.62,.07,1.2,.23,1.72,.48l-.36-1.44c-.08-.33-.15-.58-.2-.77-.06-.19-.11-.33-.15-.41-.11-.22-.22-.36-.33-.41-.07,.04-.17,.08-.3,.12-.13,.04-.24,.07-.31,.09h.05c-.1,.05-.21,.1-.32,.14s-.22,.07-.31,.09c-.94,.23-1.51-.05-1.71-.85-.2-.82,.28-1.37,1.44-1.65,.04,0,.1-.02,.19-.05s.18-.04,.28-.04c.05-.01,.11-.02,.17-.03s.11-.01,.17-.03l.84-.12s.11-.03,.23-.07c.12-.04,.23-.08,.36-.13,.14-.05,.27-.1,.38-.14,.12-.04,.23-.07,.34-.1,.78-.19,1.29,.18,1.52,1.12l.1,.41s.02,.21,.11,.55c.02,.09,.04,.2,.06,.32,.02,.12,.05,.24,.08,.37,.04,.15,.17,.82,.42,2.03,.02,.09,.04,.19,.06,.3,.02,.11,.04,.2,.05,.28,.05,.29,.11,.55,.17,.78,.06,.23,.1,.42,.14,.58l.62,2.53,1.12,4.28c.16,.58,.29,1.02,.39,1.35,.1,.32,.18,.53,.24,.63,.03,.11,.1,.15,.23,.12,.09-.02,.17-.05,.23-.07,.06-.03,.13-.06,.19-.09,.05-.01,.11-.03,.16-.05,.05-.02,.1-.04,.13-.05,.03-.03,.09-.05,.17-.07s.14-.03,.18-.04c.92-.23,1.48,.06,1.68,.85,.21,.83-.23,1.38-1.29,1.65-.09,.02-.21,.05-.37,.08-.16,.03-.31,.05-.46,.07-.07,.02-.15,.03-.24,.04-.08,.01-.17,.02-.27,.02-.09,0-.2,.02-.3,.05-.02,0-.04,.01-.05,.03-.02,.01-.04,.02-.08,.03-.04,0-.08,.02-.14,.03-.05,.01-.12,.04-.21,.08h.05c-.2,.09-.42,.18-.63,.23-.58,.14-1.01-.05-1.3-.57-.71,1-1.8,1.69-3.27,2.05-1.92,.47-3.6,.17-5.04-.92-1.47-1.04-2.47-2.64-3-4.8-.26-1.05-.35-2.06-.27-3.02,.08-.96,.3-1.82,.67-2.59,.79-1.62,2.13-2.66,4.01-3.13Zm5.56,8.61c-.04-.3-.09-.63-.16-.98-.07-.36-.16-.75-.27-1.19-.14-.56-.27-1.03-.39-1.39-.12-.36-.22-.64-.31-.83-.35-.8-.82-1.33-1.4-1.59-.78-.35-1.54-.43-2.28-.24-1.07,.26-1.8,.89-2.19,1.88-.39,.99-.4,2.22-.04,3.69,.38,1.54,.99,2.66,1.83,3.37s1.8,.93,2.89,.66c.82-.2,1.43-.61,1.85-1.22,.42-.61,.57-1.33,.46-2.15Z"/>
      <path d="M417.72,376c.1,.42,.17,.75,.21,.99,.04,.24,.03,.43-.03,.58-.06,.15-.17,.26-.34,.33-.17,.07-.4,.14-.71,.22l-8.18,2.02c-.07,.02-.11,.04-.1,.05,.3,1.21,.9,2.11,1.79,2.7,.86,.61,1.8,.79,2.82,.54,.67-.17,1.23-.5,1.69-.99,.45-.5,.69-1.05,.72-1.65l.06-.79c.04-.3,.15-.56,.31-.77,.17-.21,.41-.36,.71-.44,.94-.23,1.53,.1,1.75,1.01,.3,1.23-.06,2.48-1.1,3.73-.99,1.21-2.25,2-3.77,2.37-1.96,.48-3.67,.22-5.12-.78-1.44-1.01-2.42-2.57-2.95-4.69-.53-2.14-.37-4.06,.48-5.77,.87-1.7,2.28-2.79,4.24-3.27,.91-.22,1.75-.28,2.53-.16s1.52,.38,2.22,.81c1.41,.9,2.34,2.22,2.77,3.96Zm-3.12,.08c-.2-.82-.68-1.45-1.42-1.9-.78-.44-1.56-.57-2.34-.37-.8,.2-1.5,.72-2.1,1.56-.53,.81-.71,1.57-.53,2.29l6.39-1.58Z"/>
      <path d="M425.21,366.04c-.05-.2-.05-.4,0-.6-.2-.05-.46-.03-.77,.04-.58,.14-1,.47-1.25,.97-.25,.5-.29,1.12-.11,1.84l.11,.44,1.9-.47c.87-.21,1.41,.1,1.62,.96,.21,.85-.12,1.38-.99,1.6l-1.9,.47,2.07,8.37c.08,.25,.19,.36,.34,.32-.02,0,.02-.01,.12-.06,.09-.04,.23-.1,.4-.19,.07-.02,.13-.04,.18-.07,.09-.04,.17-.07,.24-.09,.07-.02,.13-.03,.16-.04,.89-.22,1.43,.07,1.63,.87,.21,.85-.18,1.4-1.18,1.65-.16,.04-.37,.08-.61,.12s-.51,.08-.81,.11c-.32,.04-.58,.08-.78,.11-.2,.03-.38,.06-.52,.1-.49,.12-.93,.26-1.31,.41-.34,.12-.61,.22-.82,.3-.21,.08-.37,.13-.48,.16-1.03,.25-1.65-.04-1.87-.89-.08-.31-.01-.62,.19-.93,.2-.31,.48-.51,.85-.6,.14-.04,.27-.06,.37-.06,.1,0,.21,0,.33,0,.1,.01,.19,.01,.29-.01s.16-.04,.22-.05c.09-.02,.12-.15,.08-.37-.03-.42-.21-1.4-.56-2.95-.22-.91-.44-1.8-.65-2.7-.21-.89-.43-1.8-.66-2.72-.02-.07-.04-.11-.05-.1l-1.28,.32c-.89,.22-1.44-.11-1.65-.98-.21-.83,.14-1.36,1.05-1.59l1.36-.33-.11-.44c-.36-1.47-.25-2.69,.35-3.68,.59-.98,1.62-1.66,3.09-2.02,1.21-.3,2.25-.29,3.11,.04,.86,.33,1.39,.91,1.6,1.74,.12,.47,.05,.9-.19,1.29s-.61,.64-1.09,.76c-.47,.12-.9,.07-1.29-.13-.39-.2-.63-.51-.73-.93Z"/>
      <path d="M440.77,370.3c.1,.42,.17,.75,.21,.99,.04,.24,.03,.44-.03,.58-.06,.15-.17,.26-.34,.33-.17,.07-.4,.14-.71,.22l-8.18,2.02c-.07,.02-.11,.04-.1,.05,.3,1.21,.9,2.11,1.79,2.7,.86,.61,1.8,.8,2.82,.54,.67-.17,1.23-.5,1.69-.99,.45-.5,.69-1.05,.72-1.65l.06-.79c.04-.3,.15-.55,.31-.77,.17-.21,.41-.36,.71-.44,.94-.23,1.53,.1,1.75,1.01,.3,1.23-.06,2.48-1.1,3.73-.99,1.21-2.25,2-3.77,2.37-1.96,.48-3.67,.22-5.12-.78-1.44-1.01-2.42-2.57-2.95-4.69-.53-2.14-.37-4.06,.48-5.77,.87-1.7,2.28-2.79,4.24-3.27,.91-.22,1.75-.28,2.53-.16,.78,.12,1.52,.38,2.22,.81,1.42,.9,2.34,2.22,2.77,3.96Zm-3.12,.08c-.2-.82-.67-1.45-1.42-1.9-.78-.44-1.56-.57-2.34-.37-.8,.2-1.5,.72-2.1,1.56-.53,.81-.71,1.57-.53,2.29l6.39-1.58Z"/>
      <path d="M456.13,375.27c-1.34,.33-2.36,.1-3.05-.69-.72,1.22-1.93,2.04-3.63,2.46-1.54,.38-2.86,.31-3.95-.22-1.09-.53-1.79-1.42-2.1-2.67-.19-.76-.17-1.48,.06-2.16,.23-.68,.61-1.28,1.16-1.8,.42-.39,.8-.68,1.14-.86,.32-.18,.99-.46,2.01-.84,1.34-.49,2.17-.89,2.5-1.22,.25-.29,.31-.74,.16-1.34-.14-.58-.46-.99-.95-1.24-.49-.24-1.11-.27-1.85-.09-.71,.17-1.3,.53-1.78,1.08v-.03c-.1,.16-.15,.25-.14,.26h.03c.46,.23,.75,.57,.86,1.02,.11,.45,.04,.87-.23,1.24-.26,.37-.65,.62-1.16,.75-.58,.14-1.11,.08-1.58-.2-.47-.28-.78-.7-.92-1.26-.27-1.09,.04-2.13,.93-3.14,.83-.99,1.98-1.67,3.45-2.04,3.42-.85,5.54,.35,6.34,3.6l1.28,5.19c.09,.36,.17,.67,.24,.91,.07,.24,.12,.41,.17,.49,.19,.38,.38,.54,.58,.49,.31-.08,.36-.54,.15-1.39l-.32-1.28c-.19-.78,.12-1.27,.94-1.47,.87-.21,1.43,.2,1.69,1.25l.03,.14,.33,1.47c.43,1.89-.36,3.09-2.37,3.59Zm-4.87-5.69c-.1,.06-.19,.13-.28,.2-.09,.07-.19,.14-.31,.21-.45,.28-1.19,.6-2.22,.95-1.66,.58-2.36,1.4-2.11,2.45,.13,.53,.43,.9,.9,1.12,.47,.22,1.05,.25,1.73,.08,1.03-.25,1.77-.73,2.2-1.44,.43-.7,.54-1.55,.31-2.53l-.23-1.04Z"/>
      <path d="M465.54,366.69c-.2-.95,.15-1.54,1.04-1.76,.89-.22,1.46,.19,1.71,1.22,.24,.98,.37,1.83,.4,2.54,.02,.72-.04,1.31-.19,1.79-.46,1.27-1.51,2.1-3.16,2.51-.76,.19-1.45,.22-2.06,.11-.62-.12-1.14-.37-1.59-.76-.67-.62-1.2-1.71-1.59-3.27l-1.52-6.17c-.03-.13-.07-.19-.1-.18l-.82,.2c-.4,.1-.76,.06-1.08-.12s-.53-.45-.62-.81c-.08-.33-.02-.65,.18-.98,.2-.33,.47-.54,.81-.62l1.01-.25-.69-2.77c-.22-.91,.14-1.48,1.11-1.71,.91-.22,1.47,.12,1.69,1.02l.68,2.75s.02,.02,.03,.02l2.8-.69c.94-.23,1.52,.07,1.72,.9,.21,.87-.17,1.43-1.15,1.67l-2.85,.71c.06,.02,.11,.08,.13,.17l1.56,6.33c.39,1.56,1.02,2.23,1.91,2.01,.96-.24,1.29-.96,.99-2.18l-.36-1.67Z"/>
      <path d="M481.32,360.28c.1,.42,.17,.75,.21,.98,.04,.24,.03,.44-.03,.58-.06,.15-.17,.26-.34,.33-.17,.07-.4,.14-.71,.22l-8.18,2.02c-.07,.02-.11,.04-.1,.05,.3,1.21,.9,2.11,1.79,2.7,.86,.61,1.8,.79,2.82,.54,.67-.17,1.23-.5,1.69-.99s.69-1.05,.72-1.65l.06-.79c.04-.3,.15-.56,.31-.77,.17-.21,.41-.36,.71-.44,.94-.23,1.53,.1,1.75,1.01,.3,1.23-.06,2.48-1.1,3.73-.99,1.21-2.25,2-3.77,2.37-1.96,.48-3.67,.22-5.12-.78-1.44-1.01-2.42-2.57-2.95-4.69-.53-2.14-.37-4.06,.48-5.77,.87-1.7,2.28-2.79,4.24-3.27,.91-.22,1.75-.28,2.53-.16,.78,.12,1.52,.38,2.22,.81,1.41,.9,2.34,2.22,2.77,3.96Zm-3.12,.08c-.2-.82-.67-1.45-1.42-1.9-.78-.44-1.56-.57-2.34-.37-.8,.2-1.5,.72-2.1,1.56-.53,.8-.71,1.57-.53,2.29l6.39-1.58Z"/>
      <path d="M487.84,352.21c.69-.17,1.34-.22,1.97-.15,.62,.07,1.2,.23,1.72,.48l-.36-1.44c-.08-.33-.15-.58-.21-.77-.06-.19-.1-.32-.14-.41-.11-.22-.22-.36-.33-.41-.07,.04-.17,.07-.3,.12-.13,.04-.24,.07-.31,.09h.05c-.1,.05-.21,.1-.32,.14s-.22,.07-.31,.09c-.94,.23-1.51-.05-1.71-.85-.2-.82,.28-1.37,1.44-1.65,.04,0,.1-.02,.19-.05,.09-.02,.18-.04,.28-.04,.06-.01,.11-.02,.17-.03,.06,0,.11-.01,.17-.03l.83-.12s.11-.03,.23-.07c.12-.04,.23-.08,.36-.13,.14-.05,.27-.1,.38-.14,.12-.04,.23-.07,.34-.1,.78-.19,1.29,.18,1.52,1.12l.1,.41s.02,.21,.11,.55c.02,.09,.04,.2,.06,.32,.02,.12,.05,.24,.08,.37,.04,.15,.17,.82,.42,2.03,.02,.09,.04,.19,.06,.3,.02,.11,.04,.2,.05,.28,.05,.29,.11,.55,.17,.78,.06,.23,.1,.42,.14,.58l.62,2.53,1.11,4.28c.16,.58,.29,1.02,.39,1.35,.1,.32,.18,.53,.24,.63,.03,.11,.1,.15,.23,.12,.09-.02,.17-.05,.23-.07,.06-.03,.12-.06,.19-.09,.05-.01,.11-.03,.16-.05,.05-.02,.1-.04,.13-.05,.03-.03,.09-.05,.17-.07,.08-.02,.14-.04,.18-.04,.92-.23,1.48,.06,1.68,.85,.21,.83-.23,1.38-1.29,1.65-.09,.02-.21,.05-.37,.08-.16,.03-.31,.05-.46,.07-.07,.02-.15,.03-.23,.04-.08,.01-.17,.02-.27,.02-.09,0-.2,.02-.3,.05-.02,0-.04,.01-.05,.03s-.04,.02-.08,.03c-.04,0-.08,.02-.14,.03-.05,.01-.12,.04-.21,.08h.05c-.2,.09-.42,.18-.63,.23-.58,.14-1.01-.05-1.3-.57-.71,1-1.8,1.69-3.27,2.05-1.92,.47-3.6,.17-5.04-.92-1.47-1.04-2.47-2.64-3-4.8-.26-1.05-.35-2.06-.27-3.02s.3-1.82,.67-2.59c.79-1.62,2.13-2.66,4.02-3.13Zm5.56,8.61c-.04-.3-.09-.63-.16-.99-.07-.36-.16-.75-.27-1.19-.14-.56-.27-1.03-.39-1.39-.12-.36-.22-.64-.31-.83-.35-.8-.82-1.33-1.4-1.59-.78-.35-1.54-.43-2.28-.24-1.07,.26-1.8,.89-2.19,1.88-.39,.99-.4,2.22-.04,3.69,.38,1.54,.99,2.66,1.83,3.37s1.8,.92,2.89,.66c.82-.2,1.43-.61,1.85-1.22,.42-.61,.57-1.33,.47-2.15Z"/>
    </g>
  </g>
</svg>